URWGroteskGPL-LightItalic.ufo
<glyph name="exclam" format="2">
  <advance width="239"/>
  <unicode hex="0021"/>
  <outline>
    <contour>
      <point x="92" y="199" type="line"/>
      <point x="136" y="199" type="line"/>
      <point x="212" y="484" type="line"/>
      <point x="251" y="667" type="line"/>
      <point x="181" y="667" type="line"/>
      <point x="148" y="518" type="line"/>
    </contour>
    <contour>
      <point x="87" y="94" type="curve" smooth="yes"/>
      <point x="54" y="94"/>
      <point x="28" y="68"/>
      <point x="28" y="35" type="curve" smooth="yes"/>
      <point x="28" y="7"/>
      <point x="46" y="-11"/>
      <point x="74" y="-11" type="curve" smooth="yes"/>
      <point x="109" y="-11"/>
      <point x="135" y="14"/>
      <point x="135" y="49" type="curve" smooth="yes"/>
      <point x="135" y="76"/>
      <point x="116" y="94"/>
    </contour>
  </outline>
</glyph>
<glyph name="quotedbl" format="2">
  <advance width="329"/>
  <unicode hex="0022"/>
  <outline>
    <contour>
      <point x="160" y="399" type="line"/>
      <point x="228" y="667" type="line"/>
      <point x="148" y="667" type="line"/>
      <point x="103" y="399" type="line"/>
    </contour>
    <contour>
      <point x="302" y="399" type="line"/>
      <point x="371" y="667" type="line"/>
      <point x="291" y="667" type="line"/>
      <point x="246" y="399" type="line"/>
    </contour>
  </outline>
</glyph>
<glyph name="numbersign" format="2">
  <advance width="432"/>
  <unicode hex="0023"/>
  <outline>
    <contour>
      <point x="75.5499" y="219" type="line"/>
      <point x="49.5839" y="158" type="line"/>
      <point x="122.584" y="158" type="line"/>
      <point x="55" y="0" type="line"/>
      <point x="101" y="0" type="line"/>
      <point x="166.584" y="158" type="line" name="hr02"/>
      <point x="263.584" y="158" type="line"/>
      <point x="197" y="0" type="line" name="hr03"/>
      <point x="242" y="0" type="line"/>
      <point x="307.584" y="158" type="line" name="hr04"/>
      <point x="380.584" y="158" type="line"/>
      <point x="405.55" y="219" type="line"/>
      <point x="332.55" y="219" type="line"/>
      <point x="437.539" y="473" type="line"/>
      <point x="509.539" y="473" type="line"/>
      <point x="534.08" y="532" type="line"/>
      <point x="462.08" y="532" type="line"/>
      <point x="518.775" y="667" type="line" name="hr05"/>
      <point x="476.775" y="667" type="line"/>
      <point x="419.08" y="532" type="line" name="hr06"/>
      <point x="323.08" y="532" type="line"/>
      <point x="380.775" y="667" type="line" name="hr07"/>
      <point x="337.775" y="667" type="line"/>
      <point x="281.08" y="532" type="line" name="hr08"/>
      <point x="206.08" y="532" type="line"/>
      <point x="180.539" y="473" type="line"/>
      <point x="256.539" y="473" type="line"/>
      <point x="147.55" y="219" type="line"/>
    </contour>
    <contour>
      <point x="193.55" y="219" type="line"/>
      <point x="298.539" y="473" type="line"/>
      <point x="395.539" y="473" type="line"/>
      <point x="289.55" y="219" type="line"/>
    </contour>
  </outline>
</glyph>
<glyph name="dollar" format="2">
  <advance width="543"/>
  <unicode hex="0024"/>
  <outline>
    <contour>
      <point x="33" y="99" type="line"/>
      <point x="59" y="29"/>
      <point x="115" y="-6"/>
      <point x="200" y="-7" type="curve"/>
      <point x="178" y="-110" type="line"/>
      <point x="210" y="-110" type="line"/>
      <point x="232" y="-7" type="line"/>
      <point x="277" y="-6"/>
      <point x="306" y="1"/>
      <point x="338" y="17" type="curve" smooth="yes"/>
      <point x="408" y="51"/>
      <point x="453" y="123"/>
      <point x="453" y="201" type="curve" smooth="yes"/>
      <point x="453" y="277"/>
      <point x="423" y="316"/>
      <point x="315" y="381" type="curve"/>
      <point x="364" y="612" type="line"/>
      <point x="410" y="612"/>
      <point x="441" y="585"/>
      <point x="454" y="534" type="curve"/>
      <point x="522" y="585" type="line"/>
      <point x="500" y="639"/>
      <point x="448" y="671"/>
      <point x="377" y="674" type="curve"/>
      <point x="396" y="763" type="line"/>
      <point x="364" y="763" type="line"/>
      <point x="345" y="674" type="line"/>
      <point x="305" y="672"/>
      <point x="276" y="665"/>
      <point x="246" y="649" type="curve" smooth="yes"/>
      <point x="184" y="617"/>
      <point x="144" y="550"/>
      <point x="144" y="479" type="curve" smooth="yes"/>
      <point x="144" y="435"/>
      <point x="163" y="395"/>
      <point x="202" y="362" type="curve"/>
      <point x="217" y="348"/>
      <point x="225" y="342"/>
      <point x="268" y="314" type="curve"/>
      <point x="213" y="55" type="line"/>
      <point x="149" y="57"/>
      <point x="111" y="88"/>
      <point x="96" y="151" type="curve"/>
    </contour>
    <contour>
      <point x="287" y="399" type="line"/>
      <point x="244" y="430"/>
      <point x="227" y="458"/>
      <point x="227" y="499" type="curve" smooth="yes"/>
      <point x="227" y="539"/>
      <point x="248" y="578"/>
      <point x="280" y="597" type="curve" smooth="yes"/>
      <point x="295" y="606"/>
      <point x="307" y="610"/>
      <point x="332" y="612" type="curve"/>
    </contour>
    <contour>
      <point x="296" y="295" type="line"/>
      <point x="355" y="252"/>
      <point x="370" y="232"/>
      <point x="370" y="190" type="curve" smooth="yes"/>
      <point x="370" y="118"/>
      <point x="318" y="61"/>
      <point x="245" y="55" type="curve"/>
    </contour>
  </outline>
</glyph>
<glyph name="percent" format="2">
  <advance width="752"/>
  <unicode hex="0025"/>
  <outline>
    <contour>
      <point x="371.625" y="671" type="curve" smooth="yes"/>
      <point x="275.625" y="671"/>
      <point x="214.147" y="617"/>
      <point x="192.042" y="513" type="curve" smooth="yes"/>
      <point x="169.085" y="405"/>
      <point x="205.607" y="351"/>
      <point x="302.607" y="351" type="curve" smooth="yes"/>
      <point x="400.607" y="351"/>
      <point x="460.873" y="404"/>
      <point x="483.616" y="511" type="curve" smooth="yes"/>
      <point x="506.147" y="617"/>
      <point x="468.625" y="671"/>
    </contour>
    <contour>
      <point x="364.548" y="633" type="curve" smooth="yes"/>
      <point x="416.548" y="633"/>
      <point x="432.259" y="594"/>
      <point x="414.616" y="511" type="curve" smooth="yes"/>
      <point x="396.974" y="428"/>
      <point x="364.685" y="389"/>
      <point x="312.685" y="389" type="curve" smooth="yes"/>
      <point x="260.685" y="389"/>
      <point x="244.762" y="427"/>
      <point x="262.829" y="512" type="curve" smooth="yes"/>
      <point x="280.259" y="594"/>
      <point x="312.548" y="633"/>
    </contour>
    <contour>
      <point x="788.215" y="702" type="line"/>
      <point x="748.915" y="710" type="line"/>
      <point x="52.382" y="-97" type="line"/>
      <point x="93.8941" y="-104" type="line"/>
    </contour>
    <contour>
      <point x="590.593" y="318" type="curve" smooth="yes"/>
      <point x="494.593" y="318"/>
      <point x="433.115" y="264"/>
      <point x="411.009" y="160" type="curve" smooth="yes"/>
      <point x="388.053" y="52"/>
      <point x="424.575" y="-2" name="hr01"/>
      <point x="521.575" y="-2" type="curve" smooth="yes"/>
      <point x="619.575" y="-2"/>
      <point x="679.84" y="51"/>
      <point x="702.584" y="158" type="curve" smooth="yes"/>
      <point x="725.115" y="264"/>
      <point x="687.593" y="318"/>
    </contour>
    <contour>
      <point x="583.516" y="280" type="curve" smooth="yes"/>
      <point x="635.516" y="280"/>
      <point x="651.226" y="241"/>
      <point x="633.584" y="158" type="curve" smooth="yes"/>
      <point x="615.942" y="75"/>
      <point x="583.652" y="36"/>
      <point x="531.652" y="36" type="curve" smooth="yes"/>
      <point x="479.652" y="36"/>
      <point x="463.729" y="74"/>
      <point x="481.796" y="159" type="curve" smooth="yes"/>
      <point x="499.226" y="241"/>
      <point x="532.516" y="280"/>
    </contour>
  </outline>
</glyph>
<glyph name="ampersand" format="2">
  <advance width="644"/>
  <unicode hex="0026"/>
  <outline>
    <contour>
      <point x="605" y="61" type="line"/>
      <point x="560" y="83"/>
      <point x="523" y="106"/>
      <point x="495" y="129" type="curve"/>
      <point x="555" y="194"/>
      <point x="592" y="259"/>
      <point x="614" y="338" type="curve"/>
      <point x="536" y="338" type="line"/>
      <point x="526" y="278"/>
      <point x="494" y="214"/>
      <point x="450" y="167" type="curve"/>
      <point x="389" y="225"/>
      <point x="343" y="285"/>
      <point x="312" y="346" type="curve"/>
      <point x="389" y="381"/>
      <point x="414" y="394"/>
      <point x="438" y="411" type="curve" smooth="yes"/>
      <point x="497" y="452"/>
      <point x="528" y="503"/>
      <point x="528" y="560" type="curve" smooth="yes"/>
      <point x="528" y="633"/>
      <point x="472" y="678"/>
      <point x="381" y="678" type="curve" smooth="yes"/>
      <point x="265" y="678"/>
      <point x="189" y="606"/>
      <point x="189" y="495" type="curve" smooth="yes"/>
      <point x="189" y="454"/>
      <point x="197" y="420"/>
      <point x="219" y="366" type="curve"/>
      <point x="91" y="312"/>
      <point x="38" y="250"/>
      <point x="38" y="155" type="curve" smooth="yes"/>
      <point x="38" y="56"/>
      <point x="110" y="-11"/>
      <point x="216" y="-11" type="curve" smooth="yes"/>
      <point x="293" y="-11"/>
      <point x="364" y="16"/>
      <point x="436" y="74" type="curve"/>
      <point x="479" y="37"/>
      <point x="506" y="20"/>
      <point x="549" y="0" type="curve"/>
    </contour>
    <contour>
      <point x="393" y="114" type="curve"/>
      <point x="338" y="70"/>
      <point x="293" y="52"/>
      <point x="239" y="52" type="curve" smooth="yes"/>
      <point x="169" y="52"/>
      <point x="120" y="99"/>
      <point x="120" y="167" type="curve" smooth="yes"/>
      <point x="120" y="231"/>
      <point x="159" y="279"/>
      <point x="244" y="317" type="curve"/>
      <point x="284" y="243"/>
      <point x="334" y="174"/>
    </contour>
    <contour>
      <point x="287" y="395" type="curve"/>
      <point x="266" y="452"/>
      <point x="260" y="477"/>
      <point x="260" y="508" type="curve" smooth="yes"/>
      <point x="260" y="579"/>
      <point x="306" y="627"/>
      <point x="373" y="627" type="curve" smooth="yes"/>
      <point x="425" y="627"/>
      <point x="458" y="598"/>
      <point x="458" y="554" type="curve" smooth="yes"/>
      <point x="458" y="507"/>
      <point x="427" y="467"/>
      <point x="363" y="432" type="curve" smooth="yes"/>
      <point x="340" y="419"/>
      <point x="323" y="411"/>
    </contour>
  </outline>
</glyph>
<glyph name="quotesingle" format="2">
  <advance width="187"/>
  <unicode hex="0027"/>
  <outline>
    <contour>
      <point x="205.81" y="399" type="line"/>
      <point x="274.775" y="667" type="line"/>
      <point x="194.775" y="667" type="line"/>
      <point x="149.81" y="399" type="line"/>
    </contour>
  </outline>
</glyph>
<glyph name="parenleft" format="2">
  <advance width="270"/>
  <unicode hex="0028"/>
  <outline>
    <contour>
      <point x="345.79" y="700" type="line"/>
      <point x="287.374" y="651"/>
      <point x="258.147" y="617"/>
      <point x="223.032" y="560" type="curve" smooth="yes"/>
      <point x="167.689" y="469"/>
      <point x="126.52" y="360"/>
      <point x="101.014" y="240" type="curve" smooth="yes"/>
      <point x="75.5068" y="120"/>
      <point x="70.3381" y="11"/>
      <point x="86.9955" y="-80" type="curve" smooth="yes"/>
      <point x="97.8798" y="-137"/>
      <point x="112.653" y="-171"/>
      <point x="150.238" y="-220" type="curve"/>
      <point x="196.238" y="-220" type="line"/>
      <point x="161.503" y="-167"/>
      <point x="151.88" y="-137"/>
      <point x="146.696" y="-72" type="curve" smooth="yes"/>
      <point x="139.039" y="19"/>
      <point x="147.082" y="118"/>
      <point x="173.014" y="240" type="curve" smooth="yes"/>
      <point x="198.945" y="362"/>
      <point x="232.989" y="461"/>
      <point x="279.331" y="552" type="curve" smooth="yes"/>
      <point x="311.935" y="616"/>
      <point x="334.524" y="647"/>
      <point x="391.79" y="700" type="curve"/>
    </contour>
  </outline>
</glyph>
<glyph name="parenright" format="2">
  <advance width="270"/>
  <unicode hex="0029"/>
  <outline>
    <contour>
      <point x="26.2376" y="-220" type="line"/>
      <point x="84.6528" y="-171"/>
      <point x="113.88" y="-137"/>
      <point x="148.995" y="-80" type="curve" smooth="yes"/>
      <point x="204.338" y="11"/>
      <point x="245.294" y="119"/>
      <point x="271.014" y="240" type="curve" smooth="yes"/>
      <point x="296.945" y="362"/>
      <point x="301.689" y="469"/>
      <point x="285.032" y="560" type="curve" smooth="yes"/>
      <point x="274.147" y="617"/>
      <point x="259.374" y="651"/>
      <point x="221.79" y="700" type="curve"/>
      <point x="175.79" y="700" type="line"/>
      <point x="210.524" y="647"/>
      <point x="220.935" y="616"/>
      <point x="226.331" y="552" type="curve" smooth="yes"/>
      <point x="233.989" y="461"/>
      <point x="226.158" y="363"/>
      <point x="200.226" y="241" type="curve" smooth="yes"/>
      <point x="174.082" y="118"/>
      <point x="140.039" y="19"/>
      <point x="93.6959" y="-72" type="curve" smooth="yes"/>
      <point x="61.0923" y="-136"/>
      <point x="37.5031" y="-167"/>
      <point x="-19.7624" y="-220" type="curve"/>
    </contour>
  </outline>
</glyph>
<glyph name="asterisk" format="2">
  <advance width="407"/>
  <unicode hex="002A"/>
  <outline>
    <contour>
      <point x="303.752" y="474" type="line"/>
      <point x="381.433" y="369" type="line"/>
      <point x="398.197" y="382" type="line"/>
      <point x="346.129" y="504" type="line"/>
      <point x="492.669" y="563" type="line"/>
      <point x="490.92" y="583" type="line"/>
      <point x="343.481" y="548" type="line"/>
      <point x="361.79" y="700" type="line"/>
      <point x="341.79" y="700" type="line"/>
      <point x="295.481" y="548" type="line"/>
      <point x="162.92" y="583" type="line"/>
      <point x="152.669" y="563" type="line"/>
      <point x="274.129" y="504" type="line"/>
      <point x="168.197" y="382" type="line"/>
      <point x="181.433" y="369" type="line"/>
    </contour>
  </outline>
</glyph>
<glyph name="plus" format="2">
  <advance width="520"/>
  <unicode hex="002B"/>
  <outline>
    <contour>
      <point x="92.5831" y="365" type="line"/>
      <point x="83.2307" y="321" type="line"/>
      <point x="303.231" y="321" type="line"/>
      <point x="256.043" y="99" type="line"/>
      <point x="304.043" y="99" type="line"/>
      <point x="351.231" y="321" type="line"/>
      <point x="574.231" y="321" type="line"/>
      <point x="583.583" y="365" type="line"/>
      <point x="360.583" y="365" type="line"/>
      <point x="408.621" y="591" type="line"/>
      <point x="360.621" y="591" type="line"/>
      <point x="312.583" y="365" type="line"/>
    </contour>
  </outline>
</glyph>
<glyph name="comma" format="2">
  <advance width="227"/>
  <unicode hex="002C"/>
  <outline>
    <contour>
      <point x="179.744" y="107" type="line"/>
      <point x="103.744" y="107" type="line"/>
      <point x="88.652" y="36" type="line" smooth="yes"/>
      <point x="85.0386" y="19"/>
      <point x="74.2923" y="-1.87944"/>
      <point x="48.435" y="-45" type="curve" smooth="yes"/>
      <point x="-7.33281" y="-138" type="line"/>
      <point x="35.6672" y="-138" type="line"/>
      <point x="157" y="0" type="line"/>
    </contour>
  </outline>
</glyph>
<glyph name="hyphen" format="2">
  <advance width="210"/>
  <unicode hex="002D"/>
  <outline>
    <contour>
      <point x="56.7526" y="267" type="line"/>
      <point x="44.8494" y="211" type="line"/>
      <point x="254.849" y="211" type="line"/>
      <point x="266.753" y="267" type="line"/>
    </contour>
  </outline>
</glyph>
<glyph name="period" format="2">
  <advance width="227"/>
  <unicode hex="002E"/>
  <outline>
    <contour>
      <point x="133.98" y="94" type="curve" smooth="yes"/>
      <point x="103.98" y="94"/>
      <point x="74.879" y="70"/>
      <point x="68.7148" y="41" type="curve" smooth="yes"/>
      <point x="62.3381" y="11"/>
      <point x="81.2368" y="-13"/>
      <point x="111.237" y="-13" type="curve" smooth="yes"/>
      <point x="140.237" y="-13"/>
      <point x="169.338" y="11"/>
      <point x="175.715" y="41" type="curve" smooth="yes"/>
      <point x="181.879" y="70"/>
      <point x="162.98" y="94"/>
    </contour>
  </outline>
</glyph>
<glyph name="slash" format="2">
  <advance width="411"/>
  <unicode hex="002F"/>
  <outline>
    <contour>
      <point x="-123" y="-220" type="line"/>
      <point x="-73" y="-227" type="line"/>
      <point x="489" y="700" type="line"/>
      <point x="440" y="707" type="line"/>
    </contour>
  </outline>
</glyph>
<glyph name="zero" format="2">
  <advance width="543"/>
  <unicode hex="0030"/>
  <outline>
    <contour>
      <point x="419.538" y="680" type="curve" smooth="yes"/>
      <point x="271.538" y="680"/>
      <point x="161.756" y="554"/>
      <point x="114.356" y="331" type="curve" smooth="yes"/>
      <point x="68.444" y="115"/>
      <point x="126.237" y="-13"/>
      <point x="269.237" y="-13" type="curve" smooth="yes"/>
      <point x="412.237" y="-13"/>
      <point x="523.444" y="115"/>
      <point x="569.781" y="333" type="curve" smooth="yes"/>
      <point x="615.906" y="550"/>
      <point x="559.538" y="680"/>
    </contour>
    <contour>
      <point x="405.147" y="617" type="curve" smooth="yes"/>
      <point x="496.147" y="617"/>
      <point x="525.467" y="515"/>
      <point x="486.781" y="333" type="curve" smooth="yes"/>
      <point x="447.883" y="150"/>
      <point x="375.628" y="50"/>
      <point x="282.628" y="50" type="curve" smooth="yes"/>
      <point x="238.628" y="50"/>
      <point x="207.879" y="70"/>
      <point x="195.169" y="109" type="curve"/>
      <point x="176.222" y="161"/>
      <point x="177.588" y="238"/>
      <point x="197.356" y="331" type="curve" smooth="yes"/>
      <point x="218.187" y="429"/>
      <point x="249.341" y="505"/>
      <point x="290.607" y="558" type="curve" smooth="yes"/>
      <point x="321.109" y="598"/>
      <point x="358.147" y="617"/>
    </contour>
  </outline>
</glyph>
<glyph name="one" format="2">
  <advance width="543"/>
  <unicode hex="0031"/>
  <outline>
    <contour>
      <point x="515.775" y="667" type="line"/>
      <point x="470.775" y="667" type="line"/>
      <point x="415.833" y="592"/>
      <point x="370.37" y="571"/>
      <point x="244.032" y="560" type="curve"/>
      <point x="235.742" y="521" type="line"/>
      <point x="406.23" y="528" type="line"/>
      <point x="294" y="0" type="line"/>
      <point x="374" y="0" type="line"/>
    </contour>
  </outline>
</glyph>
<glyph name="two" format="2">
  <advance width="543"/>
  <unicode hex="0032"/>
  <outline>
    <contour>
      <point x="32" y="0" type="line"/>
      <point x="431" y="0" type="line"/>
      <point x="446" y="67" type="line"/>
      <point x="148" y="67" type="line"/>
      <point x="350" y="266" type="line" smooth="yes"/>
      <point x="442.183" y="356.814"/>
      <point x="442" y="357"/>
      <point x="470" y="394" type="curve" smooth="yes"/>
      <point x="510" y="445"/>
      <point x="530" y="495"/>
      <point x="530" y="541" type="curve" smooth="yes"/>
      <point x="530" y="625"/>
      <point x="465" y="681"/>
      <point x="365" y="681" type="curve" smooth="yes"/>
      <point x="268" y="681"/>
      <point x="197" y="630"/>
      <point x="163" y="536" type="curve"/>
      <point x="227" y="491" type="line"/>
      <point x="248" y="575"/>
      <point x="293" y="621"/>
      <point x="355" y="621" type="curve" smooth="yes"/>
      <point x="410" y="621"/>
      <point x="449" y="583"/>
      <point x="449" y="529" type="curve" smooth="yes"/>
      <point x="449" y="470"/>
      <point x="411" y="413"/>
      <point x="297" y="302" type="curve" smooth="yes"/>
      <point x="44" y="57" type="line"/>
    </contour>
  </outline>
</glyph>
<glyph name="three" format="2">
  <advance width="543"/>
  <unicode hex="0033"/>
  <outline>
    <contour>
      <point x="28" y="93" type="line"/>
      <point x="63" y="21"/>
      <point x="122" y="-13"/>
      <point x="212" y="-13" type="curve" smooth="yes"/>
      <point x="284" y="-13"/>
      <point x="345" y="11"/>
      <point x="392" y="57" type="curve" smooth="yes"/>
      <point x="437" y="101"/>
      <point x="465" y="169"/>
      <point x="465" y="233" type="curve" smooth="yes"/>
      <point x="465" y="305"/>
      <point x="424" y="357"/>
      <point x="358" y="371" type="curve"/>
      <point x="396" y="384"/>
      <point x="415" y="395"/>
      <point x="438" y="415" type="curve" smooth="yes"/>
      <point x="478" y="451"/>
      <point x="503" y="500" name="hr01"/>
      <point x="503" y="546" type="curve" smooth="yes"/>
      <point x="503" y="626"/>
      <point x="437" y="681"/>
      <point x="339" y="681" type="curve" smooth="yes"/>
      <point x="263" y="681"/>
      <point x="213" y="654"/>
      <point x="169" y="589" type="curve"/>
      <point x="229" y="539" type="line"/>
      <point x="255" y="597"/>
      <point x="287" y="620"/>
      <point x="339" y="620" type="curve" smooth="yes"/>
      <point x="393" y="620"/>
      <point x="427" y="589"/>
      <point x="427" y="538" type="curve" smooth="yes"/>
      <point x="427" y="455"/>
      <point x="359" y="401"/>
      <point x="235" y="387" type="curve"/>
      <point x="224" y="334" type="line"/>
      <point x="235" y="335"/>
      <point x="245" y="335"/>
      <point x="250" y="335" type="curve" smooth="yes"/>
      <point x="336" y="335"/>
      <point x="384" y="296" name="hr02"/>
      <point x="384" y="224" type="curve" smooth="yes"/>
      <point x="384" y="127"/>
      <point x="313" y="50"/>
      <point x="224" y="50" type="curve" smooth="yes"/>
      <point x="165" y="50"/>
      <point x="121" y="82"/>
      <point x="102" y="139" type="curve"/>
    </contour>
  </outline>
</glyph>
<glyph name="four" format="2">
  <advance width="543"/>
  <unicode hex="0034"/>
  <outline>
    <contour>
      <point x="547.775" y="667" type="line"/>
      <point x="457.775" y="667" type="line"/>
      <point x="86.062" y="212" type="line"/>
      <point x="72.6709" y="149" type="line"/>
      <point x="364.671" y="149" type="line"/>
      <point x="333" y="0" type="line"/>
      <point x="406" y="0" type="line"/>
      <point x="437.671" y="149" type="line"/>
      <point x="529.671" y="149" type="line"/>
      <point x="543.062" y="212" type="line"/>
      <point x="451.062" y="212" type="line"/>
    </contour>
    <contour>
      <point x="455.007" y="574" type="line"/>
      <point x="378.062" y="212" type="line"/>
      <point x="170.062" y="212" type="line"/>
    </contour>
  </outline>
</glyph>
<glyph name="five" format="2">
  <advance width="543"/>
  <unicode hex="0035"/>
  <outline>
    <contour>
      <point x="596.775" y="667" type="line"/>
      <point x="299.775" y="667" type="line"/>
      <point x="180.632" y="337" type="line"/>
      <point x="236.68" y="309" type="line"/>
      <point x="277.607" y="351"/>
      <point x="307.796" y="366"/>
      <point x="351.796" y="366" type="curve" smooth="yes"/>
      <point x="427.796" y="366"/>
      <point x="463.68" y="309"/>
      <point x="444.55" y="219" type="curve" smooth="yes"/>
      <point x="423.719" y="121"/>
      <point x="344.628" y="50"/>
      <point x="255.628" y="50" type="curve" smooth="yes"/>
      <point x="199.628" y="50"/>
      <point x="164.43" y="82"/>
      <point x="150.608" y="144" type="curve"/>
      <point x="76.4682" y="101" type="line"/>
      <point x="107.251" y="20"/>
      <point x="157.237" y="-13"/>
      <point x="245.237" y="-13" type="curve" smooth="yes"/>
      <point x="319.237" y="-13"/>
      <point x="385.763" y="13"/>
      <point x="434.753" y="60" type="curve" smooth="yes"/>
      <point x="481.318" y="105"/>
      <point x="516.71" y="168"/>
      <point x="529.675" y="229" type="curve" smooth="yes"/>
      <point x="554.97" y="348"/>
      <point x="494.187" y="429"/>
      <point x="381.187" y="429" type="curve" smooth="yes"/>
      <point x="337.187" y="429"/>
      <point x="308.061" y="419"/>
      <point x="265.897" y="390" type="curve"/>
      <point x="347.384" y="604" type="line"/>
      <point x="583.384" y="604" type="line"/>
    </contour>
  </outline>
</glyph>
<glyph name="six" format="2">
  <advance width="543"/>
  <unicode hex="0036"/>
  <outline>
    <contour>
      <point x="591.548" y="633" type="line"/>
      <point x="557.2" y="669"/>
      <point x="529.538" y="680"/>
      <point x="480.538" y="680" type="curve" smooth="yes"/>
      <point x="320.538" y="680"/>
      <point x="181.955" y="522"/>
      <point x="130.941" y="282" type="curve" smooth="yes"/>
      <point x="90.9803" y="94"/>
      <point x="144.237" y="-13"/>
      <point x="277.237" y="-13" type="curve" smooth="yes"/>
      <point x="393.237" y="-13"/>
      <point x="496.005" y="80"/>
      <point x="523.424" y="209" type="curve" smooth="yes"/>
      <point x="549.781" y="333"/>
      <point x="497.361" y="411"/>
      <point x="388.361" y="411" type="curve" smooth="yes"/>
      <point x="326.361" y="411"/>
      <point x="279.897" y="390"/>
      <point x="222.844" y="338" type="curve"/>
      <point x="249.399" y="430"/>
      <point x="269.964" y="475"/>
      <point x="304.955" y="522" type="curve" smooth="yes"/>
      <point x="350.92" y="583"/>
      <point x="407.147" y="617"/>
      <point x="463.147" y="617" type="curve" smooth="yes"/>
      <point x="504.147" y="617"/>
      <point x="526.172" y="603"/>
      <point x="540.732" y="568" type="curve"/>
    </contour>
    <contour>
      <point x="354.97" y="348" type="curve" smooth="yes"/>
      <point x="429.97" y="348"/>
      <point x="458.917" y="296"/>
      <point x="438.511" y="200" type="curve" smooth="yes"/>
      <point x="418.956" y="108"/>
      <point x="359.628" y="50"/>
      <point x="285.628" y="50" type="curve" smooth="yes"/>
      <point x="211.628" y="50"/>
      <point x="177.381" y="110"/>
      <point x="197.149" y="203" type="curve" smooth="yes"/>
      <point x="216.279" y="293"/>
      <point x="275.97" y="348"/>
    </contour>
  </outline>
</glyph>
<glyph name="seven" format="2">
  <advance width="543"/>
  <unicode hex="0037"/>
  <outline>
    <contour>
      <point x="609.775" y="667" type="line"/>
      <point x="226.775" y="667" type="line"/>
      <point x="213.384" y="604" type="line"/>
      <point x="516.384" y="604" type="line"/>
      <point x="118" y="0" type="line"/>
      <point x="198" y="0" type="line"/>
      <point x="597.022" y="607" type="line"/>
    </contour>
  </outline>
</glyph>
<glyph name="eight" format="2">
  <advance width="543"/>
  <unicode hex="0038"/>
  <outline>
    <contour>
      <point x="208" y="373" type="curve"/>
      <point x="161" y="354"/>
      <point x="140" y="340"/>
      <point x="115" y="314" type="curve" smooth="yes"/>
      <point x="77" y="274"/>
      <point x="54" y="214"/>
      <point x="54" y="156" type="curve" smooth="yes"/>
      <point x="54" y="52"/>
      <point x="122" y="-13"/>
      <point x="232" y="-13" type="curve" smooth="yes"/>
      <point x="372" y="-13"/>
      <point x="473" y="89"/>
      <point x="473" y="230" type="curve" smooth="yes"/>
      <point x="473" y="295"/>
      <point x="452" y="331"/>
      <point x="397" y="363" type="curve"/>
      <point x="437" y="381"/>
      <point x="455" y="394"/>
      <point x="475" y="416" type="curve" smooth="yes"/>
      <point x="502" y="447"/>
      <point x="520" y="496" name="hr01"/>
      <point x="520" y="541" type="curve" smooth="yes"/>
      <point x="520" y="624"/>
      <point x="455" y="680"/>
      <point x="357" y="680" type="curve" smooth="yes"/>
      <point x="237" y="680"/>
      <point x="150" y="601"/>
      <point x="150" y="492" type="curve" smooth="yes"/>
      <point x="150" y="440"/>
      <point x="167" y="405"/>
    </contour>
    <contour>
      <point x="351" y="623" type="curve" smooth="yes"/>
      <point x="411" y="623"/>
      <point x="445" y="590"/>
      <point x="445" y="532" type="curve" smooth="yes"/>
      <point x="445" y="452"/>
      <point x="390" y="393"/>
      <point x="315" y="393" type="curve" smooth="yes"/>
      <point x="258" y="393"/>
      <point x="223" y="430"/>
      <point x="223" y="491" type="curve" smooth="yes"/>
      <point x="223" y="568"/>
      <point x="276" y="623"/>
    </contour>
    <contour>
      <point x="289" y="335" type="curve" smooth="yes"/>
      <point x="354" y="335"/>
      <point x="394" y="294"/>
      <point x="394" y="228" type="curve" smooth="yes"/>
      <point x="394" y="126" name="hr02"/>
      <point x="326" y="47"/>
      <point x="238" y="47" type="curve" smooth="yes"/>
      <point x="172" y="47"/>
      <point x="133" y="88"/>
      <point x="133" y="158" type="curve" smooth="yes"/>
      <point x="133" y="254"/>
      <point x="205" y="335"/>
    </contour>
  </outline>
</glyph>
<glyph name="nine" format="2">
  <advance width="543"/>
  <unicode hex="0039"/>
  <outline>
    <contour>
      <point x="39" y="31" type="line"/>
      <point x="77" y="0"/>
      <point x="123" y="-14"/>
      <point x="182" y="-14" type="curve" smooth="yes"/>
      <point x="297" y="-14"/>
      <point x="377" y="42"/>
      <point x="434" y="163" type="curve" smooth="yes"/>
      <point x="484" y="271"/>
      <point x="516" y="401"/>
      <point x="516" y="501" type="curve" smooth="yes"/>
      <point x="516" y="618"/>
      <point x="458" y="680"/>
      <point x="348" y="680" type="curve" smooth="yes"/>
      <point x="214" y="680"/>
      <point x="107" y="566"/>
      <point x="107" y="423" type="curve" smooth="yes"/>
      <point x="107" y="320"/>
      <point x="168" y="255"/>
      <point x="267" y="255" type="curve" smooth="yes"/>
      <point x="319" y="255"/>
      <point x="360" y="272"/>
      <point x="410" y="314" type="curve"/>
      <point x="357" y="123"/>
      <point x="296" y="49"/>
      <point x="192" y="49" type="curve" smooth="yes"/>
      <point x="144" y="49"/>
      <point x="109" y="63"/>
      <point x="79" y="95" type="curve"/>
    </contour>
    <contour>
      <point x="343" y="617" type="curve" smooth="yes"/>
      <point x="410" y="617"/>
      <point x="443" y="579"/>
      <point x="443" y="503" type="curve" smooth="yes"/>
      <point x="443" y="401"/>
      <point x="372" y="318"/>
      <point x="285" y="318" type="curve" smooth="yes"/>
      <point x="224" y="318"/>
      <point x="186" y="358"/>
      <point x="186" y="422" type="curve" smooth="yes"/>
      <point x="186" y="531"/>
      <point x="256" y="617"/>
    </contour>
  </outline>
</glyph>
<glyph name="colon" format="2">
  <advance width="225"/>
  <unicode hex="003A"/>
  <outline>
    <contour>
      <point x="81" y="94" type="curve" smooth="yes"/>
      <point x="48" y="94"/>
      <point x="21" y="68"/>
      <point x="21" y="35" type="curve" smooth="yes"/>
      <point x="21" y="7"/>
      <point x="39" y="-11"/>
      <point x="67" y="-11" type="curve" smooth="yes"/>
      <point x="102" y="-11"/>
      <point x="128" y="14"/>
      <point x="128" y="49" type="curve" smooth="yes"/>
      <point x="128" y="76"/>
      <point x="109" y="94"/>
    </contour>
    <contour>
      <point x="154" y="439" type="curve" smooth="yes"/>
      <point x="121" y="439"/>
      <point x="94" y="412"/>
      <point x="94" y="380" type="curve" smooth="yes"/>
      <point x="94" y="352"/>
      <point x="112" y="334"/>
      <point x="140" y="334" type="curve" smooth="yes"/>
      <point x="175" y="334"/>
      <point x="201" y="360"/>
      <point x="201" y="393" type="curve" smooth="yes"/>
      <point x="201" y="421"/>
      <point x="182" y="439"/>
    </contour>
  </outline>
</glyph>
<glyph name="semicolon" format="2">
  <advance width="225"/>
  <unicode hex="003B"/>
  <outline>
    <contour>
      <point x="-58" y="-137" type="line"/>
      <point x="-19" y="-137" type="line"/>
      <point x="103" y="3" type="line"/>
      <point x="125" y="107" type="line"/>
      <point x="51" y="107" type="line"/>
      <point x="47" y="89" type="line" smooth="yes"/>
      <point x="32" y="18"/>
      <point x="30" y="12"/>
      <point x="9" y="-25" type="curve"/>
      <point x="-28" y="-85" type="line"/>
    </contour>
    <contour>
      <point x="152" y="439" type="curve" smooth="yes"/>
      <point x="119" y="439"/>
      <point x="92" y="412"/>
      <point x="92" y="380" type="curve" smooth="yes"/>
      <point x="92" y="352"/>
      <point x="111" y="334"/>
      <point x="139" y="334" type="curve" smooth="yes"/>
      <point x="173" y="334"/>
      <point x="200" y="360"/>
      <point x="200" y="393" type="curve" smooth="yes"/>
      <point x="200" y="421"/>
      <point x="181" y="439"/>
    </contour>
  </outline>
</glyph>
<glyph name="less" format="2">
  <advance width="513"/>
  <unicode hex="003C"/>
  <outline>
    <contour>
      <point x="83.9311" y="329" type="line"/>
      <point x="495.608" y="144" type="line"/>
      <point x="537.898" y="183" type="line"/>
      <point x="161.545" y="346" type="line"/>
      <point x="607.404" y="510" type="line"/>
      <point x="592.056" y="546" type="line"/>
      <point x="91.3706" y="364" type="line"/>
    </contour>
  </outline>
</glyph>
<glyph name="equal" format="2">
  <advance width="540"/>
  <unicode hex="003D"/>
  <outline>
    <contour>
      <point x="111.25" y="434" type="line"/>
      <point x="101.897" y="390" type="line"/>
      <point x="603.897" y="390" type="line"/>
      <point x="613.25" y="434" type="line"/>
    </contour>
    <contour>
      <point x="82.767" y="300" type="line"/>
      <point x="73.4145" y="256" type="line"/>
      <point x="575.414" y="256" type="line"/>
      <point x="584.767" y="300" type="line"/>
    </contour>
  </outline>
</glyph>
<glyph name="greater" format="2">
  <advance width="513"/>
  <unicode hex="003E"/>
  <outline>
    <contour>
      <point x="514" y="361" type="line"/>
      <point x="52" y="543" type="line"/>
      <point x="29" y="506" type="line"/>
      <point x="440" y="342" type="line"/>
      <point x="29" y="180" type="line"/>
      <point x="63" y="140" type="line"/>
      <point x="514" y="326" type="line"/>
    </contour>
  </outline>
</glyph>
<glyph name="question" format="2">
  <advance width="337"/>
  <unicode hex="003F"/>
  <outline>
    <contour>
      <point x="201.143" y="537" type="line"/>
      <point x="221.771" y="587"/>
      <point x="252.872" y="611"/>
      <point x="294.872" y="611" type="curve" smooth="yes"/>
      <point x="338.872" y="611"/>
      <point x="364.283" y="580"/>
      <point x="354.93" y="536" type="curve" smooth="yes"/>
      <point x="346.003" y="494"/>
      <point x="319.989" y="461"/>
      <point x="252.298" y="406" type="curve" smooth="yes"/>
      <point x="177.757" y="347"/>
      <point x="152.53" y="313"/>
      <point x="141.69" y="262" type="curve" smooth="yes"/>
      <point x="134.463" y="228"/>
      <point x="138.362" y="204"/>
      <point x="156.623" y="177" type="curve"/>
      <point x="231.623" y="177" type="line"/>
      <point x="212.999" y="207" name="hr01"/>
      <point x="207.588" y="238"/>
      <point x="214.39" y="270" type="curve" smooth="yes"/>
      <point x="219.917" y="296"/>
      <point x="238.231" y="321"/>
      <point x="272.607" y="351" type="curve" smooth="yes"/>
      <point x="353.911" y="423"/>
      <point x="353.911" y="423"/>
      <point x="372.375" y="444" type="curve" smooth="yes"/>
      <point x="398.327" y="472"/>
      <point x="418.829" y="512"/>
      <point x="425.631" y="544" type="curve" smooth="yes"/>
      <point x="433.92" y="583"/>
      <point x="425.998" y="621"/>
      <point x="404.312" y="646" type="curve" smooth="yes"/>
      <point x="385.2" y="669"/>
      <point x="358.538" y="680"/>
      <point x="317.538" y="680" type="curve" smooth="yes"/>
      <point x="239.538" y="680"/>
      <point x="184.099" y="645"/>
      <point x="140.945" y="569" type="curve" name="hr02"/>
    </contour>
    <contour>
      <point x="170.98" y="94" type="curve" smooth="yes"/>
      <point x="141.98" y="94"/>
      <point x="112.879" y="70"/>
      <point x="106.715" y="41" type="curve" smooth="yes"/>
      <point x="100.338" y="11"/>
      <point x="119.237" y="-13"/>
      <point x="149.237" y="-13" type="curve" smooth="yes"/>
      <point x="178.237" y="-13"/>
      <point x="207.338" y="11"/>
      <point x="213.715" y="41" type="curve" smooth="yes"/>
      <point x="219.879" y="70"/>
      <point x="200.98" y="94"/>
    </contour>
  </outline>
</glyph>
<glyph name="at" format="2">
  <advance width="736"/>
  <unicode hex="0040"/>
  <outline>
    <contour>
      <point x="537.736" y="480.759" type="line"/>
      <point x="519.646" y="424.366" type="line" name="hr01"/>
      <point x="498.022" y="466.742"/>
      <point x="461.133" y="491.732"/>
      <point x="423.245" y="491.732" type="curve" smooth="yes"/>
      <point x="333.59" y="491.732"/>
      <point x="244.121" y="400.775"/>
      <point x="233.34" y="298.206" type="curve" smooth="yes"/>
      <point x="224.687" y="215.873"/>
      <point x="272.521" y="155.559"/>
      <point x="347.009" y="155.559" type="curve" smooth="yes"/>
      <point x="394.003" y="155.559"/>
      <point x="447.703" y="185.184"/>
      <point x="488.791" y="233.853" type="curve"/>
      <point x="493.906" y="191.198"/>
      <point x="521.249" y="164.538" name="hr02"/>
      <point x="556.457" y="164.538" type="curve" smooth="yes"/>
      <point x="642.129" y="164.538"/>
      <point x="730.172" y="270.473"/>
      <point x="742.839" y="390.986" type="curve" smooth="yes"/>
      <point x="760.189" y="556.065"/>
      <point x="644.37" y="672.304"/>
      <point x="461.179" y="672.304" type="curve" smooth="yes"/>
      <point x="265.867" y="672.304"/>
      <point x="90.5578" y="515.364"/>
      <point x="70.1452" y="321.152" type="curve" smooth="yes"/>
      <point x="60.8089" y="232.323"/>
      <point x="89.6615" y="141.198"/>
      <point x="145.464" y="82.1757" type="curve"/>
      <point x="202.22" y="25.3258"/>
      <point x="280.921" y="-5.05942"/>
      <point x="385.994" y="-5.05942" type="curve" smooth="yes"/>
      <point x="453.764" y="-5.05942"/>
      <point x="521.188" y="3.95313"/>
      <point x="579.898" y="21.3194" type="curve"/>
      <point x="571.646" y="76.8374" type="line"/>
      <point x="509.176" y="58.1676"/>
      <point x="454.963" y="48.7842"/>
      <point x="393.649" y="48.7842" type="curve" smooth="yes"/>
      <point x="301.097" y="48.7842"/>
      <point x="240.835" y="72.289"/>
      <point x="194.301" y="125.43" type="curve" smooth="yes"/>
      <point x="152.807" y="174.063"/>
      <point x="133.058" y="246.439"/>
      <point x="140.911" y="321.152" type="curve" smooth="yes"/>
      <point x="158.46" y="488.122"/>
      <point x="300.731" y="619.458"/>
      <point x="464.603" y="619.458" type="curve" smooth="yes"/>
      <point x="613.689" y="619.458"/>
      <point x="701.468" y="528.285"/>
      <point x="686.933" y="389.988" type="curve" smooth="yes"/>
      <point x="677.821" y="303.291"/>
      <point x="616.08" y="210.4"/>
      <point x="568.261" y="210.4" type="curve" smooth="yes"/>
      <point x="546.84" y="210.4"/>
      <point x="535.12" y="227.615"/>
      <point x="538.136" y="256.306" type="curve" smooth="yes"/>
      <point x="538.91" y="263.673"/>
      <point x="542.888" y="282.262"/>
      <point x="550.273" y="304.469" type="curve" smooth="yes"/>
      <point x="607.126" y="480.759" type="line"/>
    </contour>
    <contour>
      <point x="430.189" y="424.92" type="curve" smooth="yes"/>
      <point x="474.47" y="424.92"/>
      <point x="501.431" y="390.534"/>
      <point x="496.236" y="341.104" type="curve" smooth="yes"/>
      <point x="489.618" y="278.143"/>
      <point x="435.623" y="219.379"/>
      <point x="383.645" y="219.379" type="curve" smooth="yes"/>
      <point x="338.344" y="219.379"/>
      <point x="311.403" y="253.734"/>
      <point x="316.706" y="304.192" type="curve" smooth="yes"/>
      <point x="323.437" y="368.23"/>
      <point x="377.195" y="424.92"/>
    </contour>
  </outline>
</glyph>
<glyph name="A" format="2">
  <advance width="599"/>
  <unicode hex="0041"/>
  <outline>
    <contour>
      <point x="478.775" y="667" type="line"/>
      <point x="404.775" y="667" type="line"/>
      <point x="-3" y="0" type="line"/>
      <point x="83" y="0" type="line"/>
      <point x="208.912" y="216" type="line"/>
      <point x="479.912" y="216" type="line"/>
      <point x="517" y="0" type="line"/>
      <point x="603" y="0" type="line"/>
    </contour>
    <contour>
      <point x="467.728" y="281" type="line"/>
      <point x="248.728" y="281" type="line"/>
      <point x="417.945" y="569" type="line"/>
    </contour>
  </outline>
</glyph>
<glyph name="B" format="2">
  <advance width="557"/>
  <unicode hex="0042"/>
  <outline>
    <contour>
      <point x="47" y="0" type="line"/>
      <point x="234" y="0" type="line" smooth="yes"/>
      <point x="323" y="0"/>
      <point x="359" y="8"/>
      <point x="402" y="37" type="curve" smooth="yes"/>
      <point x="464" y="78"/>
      <point x="503" y="153"/>
      <point x="503" y="228" type="curve" smooth="yes"/>
      <point x="503" y="296"/>
      <point x="476" y="338"/>
      <point x="412" y="365" type="curve"/>
      <point x="495" y="411"/>
      <point x="536" y="469" name="hr01"/>
      <point x="536" y="541" type="curve" smooth="yes"/>
      <point x="536" y="587"/>
      <point x="513" y="629"/>
      <point x="477" y="647" type="curve" smooth="yes"/>
      <point x="452" y="660"/>
      <point x="414" y="667" name="hr02"/>
      <point x="368" y="667" type="curve" smooth="yes"/>
      <point x="189" y="667" type="line"/>
    </contour>
    <contour>
      <point x="210" y="389" type="line"/>
      <point x="255" y="604" type="line"/>
      <point x="354" y="604" type="line" smooth="yes"/>
      <point x="421" y="604"/>
      <point x="449" y="580" name="hr03"/>
      <point x="449" y="524" type="curve" smooth="yes"/>
      <point x="449" y="445"/>
      <point x="387" y="389"/>
      <point x="298" y="389" type="curve" smooth="yes"/>
    </contour>
    <contour>
      <point x="140" y="63" type="line"/>
      <point x="196" y="326" type="line"/>
      <point x="303" y="326" type="line" smooth="yes"/>
      <point x="381" y="326"/>
      <point x="414" y="296" name="hr04"/>
      <point x="414" y="226" type="curve" smooth="yes"/>
      <point x="414" y="175"/>
      <point x="392" y="125"/>
      <point x="356" y="96" type="curve"/>
      <point x="327" y="71"/>
      <point x="294" y="63"/>
      <point x="228" y="63" type="curve" smooth="yes"/>
    </contour>
  </outline>
</glyph>
<glyph name="C" format="2">
  <advance width="615"/>
  <unicode hex="0043"/>
  <outline>
    <contour>
      <point x="530" y="142" type="line"/>
      <point x="477" y="76"/>
      <point x="417" y="47"/>
      <point x="334" y="47" type="curve" smooth="yes"/>
      <point x="216" y="47"/>
      <point x="150" y="114"/>
      <point x="150" y="236" type="curve" smooth="yes"/>
      <point x="150" y="321"/>
      <point x="177" y="419"/>
      <point x="221" y="487" type="curve" smooth="yes"/>
      <point x="275" y="571"/>
      <point x="354" y="618"/>
      <point x="445" y="618" type="curve" smooth="yes"/>
      <point x="514" y="618"/>
      <point x="563" y="593"/>
      <point x="596" y="541" type="curve"/>
      <point x="658" y="594" type="line"/>
      <point x="608" y="655"/>
      <point x="547" y="681"/>
      <point x="453" y="681" type="curve" smooth="yes"/>
      <point x="337" y="681"/>
      <point x="241" y="637"/>
      <point x="171" y="553" type="curve" smooth="yes"/>
      <point x="106" y="475"/>
      <point x="64" y="347"/>
      <point x="64" y="227" type="curve" smooth="yes"/>
      <point x="64" y="70"/>
      <point x="156" y="-13"/>
      <point x="330" y="-13" type="curve" smooth="yes"/>
      <point x="410" y="-13"/>
      <point x="475" y="3"/>
      <point x="522" y="34" type="curve" smooth="yes"/>
      <point x="538" y="45"/>
      <point x="550" y="54"/>
      <point x="574" y="77" type="curve"/>
    </contour>
  </outline>
</glyph>
<glyph name="D" format="2">
  <advance width="685"/>
  <unicode hex="0044"/>
  <outline>
    <contour>
      <point x="47" y="0" type="line"/>
      <point x="251" y="0" type="line" smooth="yes"/>
      <point x="402" y="0"/>
      <point x="480" y="29"/>
      <point x="557" y="114" type="curve" smooth="yes"/>
      <point x="626" y="191"/>
      <point x="671" y="319"/>
      <point x="671" y="439" type="curve" smooth="yes"/>
      <point x="671" y="584"/>
      <point x="577" y="667"/>
      <point x="412" y="667" type="curve" smooth="yes"/>
      <point x="189" y="667" type="line"/>
    </contour>
    <contour>
      <point x="140" y="63" type="line"/>
      <point x="255" y="604" type="line"/>
      <point x="393" y="604" type="line" smooth="yes"/>
      <point x="461" y="604"/>
      <point x="501" y="593"/>
      <point x="533" y="564" type="curve" smooth="yes"/>
      <point x="567" y="533"/>
      <point x="584" y="487"/>
      <point x="584" y="429" type="curve" smooth="yes"/>
      <point x="584" y="342"/>
      <point x="555" y="245"/>
      <point x="509" y="180" type="curve" smooth="yes"/>
      <point x="449" y="95"/>
      <point x="384" y="63"/>
      <point x="271" y="63" type="curve" smooth="yes"/>
    </contour>
  </outline>
</glyph>
<glyph name="E" format="2">
  <advance width="489"/>
  <unicode hex="0045"/>
  <outline>
    <contour>
      <point x="252.071" y="372" type="line"/>
      <point x="301.384" y="604" type="line"/>
      <point x="547.384" y="604" type="line"/>
      <point x="560.775" y="667" type="line"/>
      <point x="234.775" y="667" type="line"/>
      <point x="93" y="0" type="line"/>
      <point x="455" y="0" type="line"/>
      <point x="468.391" y="63" type="line"/>
      <point x="186.391" y="63" type="line"/>
      <point x="238.68" y="309" type="line"/>
      <point x="484.68" y="309" type="line"/>
      <point x="498.071" y="372" type="line"/>
    </contour>
  </outline>
</glyph>
<glyph name="F" format="2">
  <advance width="434"/>
  <unicode hex="0046"/>
  <outline>
    <contour>
      <point x="251.221" y="368" type="line"/>
      <point x="301.384" y="604" type="line"/>
      <point x="542.384" y="604" type="line"/>
      <point x="555.775" y="667" type="line"/>
      <point x="234.775" y="667" type="line"/>
      <point x="93" y="0" type="line"/>
      <point x="173" y="0" type="line"/>
      <point x="237.83" y="305" type="line"/>
      <point x="454.83" y="305" type="line"/>
      <point x="468.221" y="368" type="line"/>
    </contour>
  </outline>
</glyph>
<glyph name="G" format="2">
  <advance width="663"/>
  <unicode hex="0047"/>
  <outline>
    <contour>
      <point x="637" y="320" type="line"/>
      <point x="373" y="320" type="line"/>
      <point x="360" y="259" type="line"/>
      <point x="544" y="259" type="line"/>
      <point x="506" y="79" type="line"/>
      <point x="446" y="54"/>
      <point x="397" y="43"/>
      <point x="342" y="43" type="curve" smooth="yes"/>
      <point x="215" y="43"/>
      <point x="150" y="107"/>
      <point x="150" y="233" type="curve" smooth="yes"/>
      <point x="150" y="318"/>
      <point x="178" y="417"/>
      <point x="221" y="485" type="curve" smooth="yes"/>
      <point x="275" y="570"/>
      <point x="354" y="617"/>
      <point x="445" y="617" type="curve" smooth="yes"/>
      <point x="521" y="617"/>
      <point x="575" y="587"/>
      <point x="607" y="528" type="curve"/>
      <point x="670" y="581" type="line"/>
      <point x="638" y="644"/>
      <point x="558" y="681"/>
      <point x="452" y="681" type="curve" smooth="yes"/>
      <point x="338" y="681"/>
      <point x="245" y="638"/>
      <point x="172" y="553" type="curve" smooth="yes"/>
      <point x="106" y="476"/>
      <point x="64" y="348"/>
      <point x="64" y="227" type="curve" smooth="yes"/>
      <point x="64" y="69"/>
      <point x="156" y="-14"/>
      <point x="331" y="-14" type="curve" smooth="yes"/>
      <point x="416" y="-14"/>
      <point x="492" y="1"/>
      <point x="577" y="34" type="curve"/>
    </contour>
  </outline>
</glyph>
<glyph name="H" format="2">
  <advance width="693"/>
  <unicode hex="0048"/>
  <outline>
    <contour>
      <point x="740.775" y="667" type="line"/>
      <point x="660.775" y="667" type="line"/>
      <point x="597.646" y="370" type="line"/>
      <point x="251.646" y="370" type="line"/>
      <point x="314.775" y="667" type="line"/>
      <point x="234.775" y="667" type="line"/>
      <point x="93" y="0" type="line"/>
      <point x="173" y="0" type="line"/>
      <point x="238.255" y="307" type="line"/>
      <point x="584.255" y="307" type="line"/>
      <point x="519" y="0" type="line"/>
      <point x="599" y="0" type="line"/>
    </contour>
  </outline>
</glyph>
<glyph name="I" format="2">
  <advance width="267"/>
  <unicode hex="0049"/>
  <outline>
    <contour>
      <point x="47" y="0" type="line"/>
      <point x="127" y="0" type="line"/>
      <point x="269" y="667" type="line"/>
      <point x="189" y="667" type="line"/>
    </contour>
  </outline>
</glyph>
<glyph name="J" format="2">
  <advance width="369"/>
  <unicode hex="004A"/>
  <outline>
    <contour>
      <point x="-76" y="73" type="line"/>
      <point x="-60" y="41"/>
      <point x="-49" y="27"/>
      <point x="-28" y="14" type="curve"/>
      <point x="-2" y="-4"/>
      <point x="37" y="-14"/>
      <point x="78" y="-14" type="curve" smooth="yes"/>
      <point x="186" y="-14"/>
      <point x="245.738" y="43.8413"/>
      <point x="274" y="177" type="curve" smooth="yes"/>
      <point x="378" y="667" type="line"/>
      <point x="298" y="667" type="line"/>
      <point x="194" y="178" type="line" smooth="yes"/>
      <point x="174" y="82"/>
      <point x="140" y="43"/>
      <point x="78" y="43" type="curve" smooth="yes"/>
      <point x="32" y="43"/>
      <point x="7" y="63"/>
      <point x="-11" y="113" type="curve"/>
    </contour>
  </outline>
</glyph>
<glyph name="K" format="2">
  <advance width="508"/>
  <unicode hex="004B"/>
  <outline>
    <contour>
      <point x="47" y="0" type="line"/>
      <point x="127" y="0" type="line"/>
      <point x="198" y="332" type="line"/>
      <point x="399" y="0" type="line"/>
      <point x="492" y="0" type="line"/>
      <point x="282" y="345" type="line"/>
      <point x="603" y="667" type="line"/>
      <point x="506" y="667" type="line"/>
      <point x="204" y="363" type="line"/>
      <point x="269" y="667" type="line"/>
      <point x="189" y="667" type="line"/>
    </contour>
  </outline>
</glyph>
<glyph name="L" format="2">
  <advance width="442"/>
  <unicode hex="004C"/>
  <outline>
    <contour>
      <point x="314.775" y="667" type="line"/>
      <point x="234.775" y="667" type="line"/>
      <point x="93" y="0" type="line"/>
      <point x="441" y="0" type="line"/>
      <point x="454.391" y="63" type="line"/>
      <point x="186.391" y="63" type="line"/>
    </contour>
  </outline>
</glyph>
<glyph name="M" format="2">
  <advance width="856"/>
  <unicode hex="004D"/>
  <outline>
    <contour>
      <point x="903.775" y="667" type="line"/>
      <point x="823.775" y="667" type="line"/>
      <point x="451.806" y="112" type="line"/>
      <point x="314.775" y="667" type="line"/>
      <point x="234.775" y="667" type="line"/>
      <point x="93" y="0" type="line"/>
      <point x="170" y="0" type="line"/>
      <point x="275.641" y="497" type="line"/>
      <point x="399" y="0" type="line"/>
      <point x="456" y="0" type="line"/>
      <point x="790.641" y="497" type="line"/>
      <point x="685" y="0" type="line"/>
      <point x="762" y="0" type="line"/>
    </contour>
  </outline>
</glyph>
<glyph name="N" format="2">
  <advance width="736"/>
  <unicode hex="004E"/>
  <outline>
    <contour>
      <point x="47" y="0" type="line"/>
      <point x="124" y="0" type="line"/>
      <point x="240" y="546" type="line"/>
      <point x="520" y="0" type="line"/>
      <point x="596" y="0" type="line"/>
      <point x="738" y="667" type="line"/>
      <point x="662" y="667" type="line"/>
      <point x="546" y="121" type="line"/>
      <point x="266" y="667" type="line"/>
      <point x="189" y="667" type="line"/>
    </contour>
  </outline>
</glyph>
<glyph name="O" format="2">
  <advance width="740"/>
  <unicode hex="004F"/>
  <outline>
    <contour>
      <point x="447" y="681" type="curve" smooth="yes"/>
      <point x="344" y="681"/>
      <point x="256" y="645"/>
      <point x="189" y="575" type="curve" smooth="yes"/>
      <point x="114" y="497"/>
      <point x="63" y="357"/>
      <point x="63" y="227" type="curve" smooth="yes"/>
      <point x="63" y="69"/>
      <point x="157" y="-14"/>
      <point x="333" y="-14" type="curve" smooth="yes"/>
      <point x="445" y="-14"/>
      <point x="528" y="18"/>
      <point x="598" y="91" type="curve" smooth="yes"/>
      <point x="671" y="166"/>
      <point x="725" y="311"/>
      <point x="725" y="432" type="curve" smooth="yes"/>
      <point x="725" y="518"/>
      <point x="701" y="582"/>
      <point x="656" y="620" type="curve" smooth="yes"/>
      <point x="610" y="659"/>
      <point x="534" y="681"/>
    </contour>
    <contour>
      <point x="451" y="617" type="curve" smooth="yes"/>
      <point x="575" y="617"/>
      <point x="638" y="553"/>
      <point x="638" y="425" type="curve" smooth="yes"/>
      <point x="638" y="342"/>
      <point x="606" y="235"/>
      <point x="562" y="171" type="curve" smooth="yes"/>
      <point x="507" y="91"/>
      <point x="430" y="49"/>
      <point x="336" y="49" type="curve" smooth="yes"/>
      <point x="214" y="49"/>
      <point x="150" y="113"/>
      <point x="150" y="236" type="curve" smooth="yes"/>
      <point x="150" y="324"/>
      <point x="180" y="426"/>
      <point x="226" y="494" type="curve" smooth="yes"/>
      <point x="281" y="576"/>
      <point x="357" y="617"/>
    </contour>
  </outline>
</glyph>
<glyph name="P" format="2">
  <advance width="480"/>
  <unicode hex="0050"/>
  <outline>
    <contour>
      <point x="93" y="0" type="line"/>
      <point x="173" y="0" type="line"/>
      <point x="236.767" y="300" type="line"/>
      <point x="299.767" y="300" type="line" smooth="yes"/>
      <point x="352.767" y="300"/>
      <point x="414.53" y="313"/>
      <point x="450.569" y="332" type="curve" smooth="yes"/>
      <point x="510.371" y="364"/>
      <point x="556.549" y="426"/>
      <point x="571.215" y="495" type="curve" smooth="yes"/>
      <point x="583.331" y="552"/>
      <point x="571.959" y="602"/>
      <point x="539.548" y="633" type="curve" smooth="yes"/>
      <point x="511.862" y="658"/>
      <point x="476.775" y="667"/>
      <point x="397.775" y="667" type="curve" smooth="yes"/>
      <point x="234.775" y="667" type="line"/>
    </contour>
    <contour>
      <point x="250.158" y="363" type="line"/>
      <point x="301.384" y="604" type="line"/>
      <point x="386.384" y="604" type="line" smooth="yes"/>
      <point x="426.384" y="604"/>
      <point x="447.321" y="599"/>
      <point x="462.771" y="587" type="curve" smooth="yes"/>
      <point x="484.945" y="569"/>
      <point x="492.505" y="534"/>
      <point x="483.365" y="491" type="curve" smooth="yes"/>
      <point x="465.511" y="407"/>
      <point x="407.158" y="363"/>
      <point x="313.158" y="363" type="curve" smooth="yes"/>
    </contour>
  </outline>
</glyph>
<glyph name="Q" format="2">
  <advance width="734"/>
  <unicode hex="0051"/>
  <outline>
    <contour>
      <point x="808.657" y="-91" type="line"/>
      <point x="476.425" y="2" type="line"/>
      <point x="537.101" y="24"/>
      <point x="567.502" y="40"/>
      <point x="602.241" y="67" type="curve" smooth="yes"/>
      <point x="678.782" y="126"/>
      <point x="729.7" y="215"/>
      <point x="754.356" y="331" type="curve" smooth="yes"/>
      <point x="780.076" y="452"/>
      <point x="767.355" y="538"/>
      <point x="715.534" y="600" type="curve" smooth="yes"/>
      <point x="671.799" y="653"/>
      <point x="602.538" y="680"/>
      <point x="511.538" y="680" type="curve" smooth="yes"/>
      <point x="420.538" y="680"/>
      <point x="339.799" y="653"/>
      <point x="273.534" y="600" type="curve" smooth="yes"/>
      <point x="195.355" y="538"/>
      <point x="146.076" y="452"/>
      <point x="120.994" y="334" type="curve" smooth="yes"/>
      <point x="77.4198" y="129"/>
      <point x="151.275" y="6"/>
      <point x="328.449" y="-12" type="curve"/>
      <point x="734.691" y="-152" type="line"/>
    </contour>
    <contour>
      <point x="498.147" y="617" type="curve" smooth="yes"/>
      <point x="641.147" y="617"/>
      <point x="705.404" y="510"/>
      <point x="667.781" y="333" type="curve" smooth="yes"/>
      <point x="630.371" y="157"/>
      <point x="520.628" y="50"/>
      <point x="377.628" y="50" type="curve" smooth="yes"/>
      <point x="232.628" y="50"/>
      <point x="170.159" y="156"/>
      <point x="208.844" y="338" type="curve" smooth="yes"/>
      <point x="245.404" y="510"/>
      <point x="356.147" y="617"/>
    </contour>
  </outline>
</glyph>
<glyph name="R" format="2">
  <advance width="553"/>
  <unicode hex="0052"/>
  <outline>
    <contour>
      <point x="47" y="0" type="line"/>
      <point x="127" y="0" type="line"/>
      <point x="192" y="305" type="line"/>
      <point x="272" y="305" type="line"/>
      <point x="402" y="0" type="line"/>
      <point x="492" y="0" type="line"/>
      <point x="353" y="313" type="line"/>
      <point x="463" y="346"/>
      <point x="535" y="431"/>
      <point x="535" y="528" type="curve" smooth="yes"/>
      <point x="535" y="615"/>
      <point x="473" y="667"/>
      <point x="368" y="667" type="curve" smooth="yes"/>
      <point x="189" y="667" type="line"/>
    </contour>
    <contour>
      <point x="205" y="368" type="line"/>
      <point x="255" y="604" type="line"/>
      <point x="341" y="604" type="line" smooth="yes"/>
      <point x="388" y="604"/>
      <point x="404" y="601"/>
      <point x="419" y="589" type="curve" smooth="yes"/>
      <point x="436" y="575"/>
      <point x="446" y="551"/>
      <point x="446" y="522" type="curve" smooth="yes"/>
      <point x="446" y="488"/>
      <point x="433" y="452"/>
      <point x="411" y="424" type="curve" smooth="yes"/>
      <point x="380" y="386"/>
      <point x="337" y="368"/>
      <point x="277" y="368" type="curve" smooth="yes"/>
    </contour>
  </outline>
</glyph>
<glyph name="T" format="2">
  <advance width="449"/>
  <unicode hex="0054"/>
  <outline>
    <contour>
      <point x="391.384" y="604" type="line"/>
      <point x="587.384" y="604" type="line"/>
      <point x="600.775" y="667" type="line"/>
      <point x="131.775" y="667" type="line"/>
      <point x="118.384" y="604" type="line"/>
      <point x="311.384" y="604" type="line"/>
      <point x="183" y="0" type="line"/>
      <point x="263" y="0" type="line"/>
    </contour>
  </outline>
</glyph>
<glyph name="U" format="2">
  <advance width="685"/>
  <unicode hex="0055"/>
  <outline>
    <contour>
      <point x="182" y="667" type="line"/>
      <point x="91" y="239" type="line" smooth="yes"/>
      <point x="85.2479" y="211.946"/>
      <point x="82" y="184"/>
      <point x="82" y="158" type="curve" smooth="yes"/>
      <point x="82" y="46"/>
      <point x="156" y="-13"/>
      <point x="297" y="-13" type="curve" smooth="yes"/>
      <point x="361" y="-13"/>
      <point x="423" y="1"/>
      <point x="468" y="25" type="curve" smooth="yes"/>
      <point x="538" y="63"/>
      <point x="580" y="131"/>
      <point x="604" y="246" type="curve" smooth="yes"/>
      <point x="694" y="667" type="line"/>
      <point x="614" y="667" type="line"/>
      <point x="521" y="231" type="line" smooth="yes"/>
      <point x="495" y="110"/>
      <point x="423" y="50"/>
      <point x="304" y="50" type="curve" smooth="yes"/>
      <point x="211" y="50"/>
      <point x="160" y="90"/>
      <point x="160" y="161" type="curve" smooth="yes"/>
      <point x="160" y="177"/>
      <point x="164" y="205"/>
      <point x="169" y="229" type="curve" smooth="yes"/>
      <point x="262" y="667" type="line"/>
    </contour>
  </outline>
</glyph>
<glyph name="V" format="2">
  <advance width="578"/>
  <unicode hex="0056"/>
  <outline>
    <contour>
      <point x="224.775" y="667" type="line"/>
      <point x="138.775" y="667" type="line"/>
      <point x="253" y="0" type="line"/>
      <point x="308" y="0" type="line"/>
      <point x="736.775" y="667" type="line"/>
      <point x="658.775" y="667" type="line"/>
      <point x="316.483" y="134" type="line"/>
    </contour>
  </outline>
</glyph>
<glyph name="W" format="2">
  <advance width="898"/>
  <unicode hex="0057"/>
  <outline>
    <contour>
      <point x="221.775" y="667" type="line"/>
      <point x="144.775" y="667" type="line"/>
      <point x="201" y="0" type="line"/>
      <point x="264" y="0" type="line"/>
      <point x="553.592" y="525" type="line"/>
      <point x="596" y="0" type="line"/>
      <point x="660" y="0" type="line"/>
      <point x="1032.78" y="667" type="line"/>
      <point x="961.775" y="667" type="line"/>
      <point x="661.42" y="129" type="line"/>
      <point x="616.775" y="667" type="line"/>
      <point x="562.775" y="667" type="line"/>
      <point x="265.42" y="129" type="line"/>
    </contour>
  </outline>
</glyph>
<glyph name="X" format="2">
  <advance width="529"/>
  <unicode hex="0058"/>
  <outline>
    <contour>
      <point x="554.775" y="667" type="line"/>
      <point x="350.723" y="408" type="line"/>
      <point x="244.775" y="667" type="line"/>
      <point x="148.775" y="667" type="line"/>
      <point x="287.482" y="341" type="line"/>
      <point x="12" y="0" type="line"/>
      <point x="97" y="0" type="line"/>
      <point x="320.091" y="278" type="line"/>
      <point x="430" y="0" type="line"/>
      <point x="525" y="0" type="line"/>
      <point x="380.97" y="348" type="line"/>
      <point x="640.775" y="667" type="line"/>
    </contour>
  </outline>
</glyph>
<glyph name="Y" format="2">
  <advance width="479"/>
  <unicode hex="0059"/>
  <outline>
    <contour>
      <point x="558.775" y="667" type="line"/>
      <point x="322.921" y="376" type="line"/>
      <point x="207.775" y="667" type="line"/>
      <point x="114.775" y="667" type="line"/>
      <point x="261.917" y="296" type="line"/>
      <point x="199" y="0" type="line"/>
      <point x="279" y="0" type="line"/>
      <point x="341.917" y="296" type="line"/>
      <point x="643.775" y="667" type="line"/>
    </contour>
  </outline>
</glyph>
<glyph name="Z" format="2">
  <advance width="491"/>
  <unicode hex="005A"/>
  <outline>
    <contour>
      <point x="178.775" y="667" type="line"/>
      <point x="165.384" y="604" type="line"/>
      <point x="505.384" y="604" type="line"/>
      <point x="13.8162" y="65" type="line"/>
      <point x="0" y="0" type="line"/>
      <point x="504" y="0" type="line"/>
      <point x="517.816" y="65" type="line"/>
      <point x="102.816" y="65" type="line"/>
      <point x="593.746" y="601" type="line"/>
      <point x="607.775" y="667" type="line"/>
    </contour>
  </outline>
</glyph>
<glyph name="bracketleft" format="2">
  <advance width="263"/>
  <unicode hex="005B"/>
  <outline>
    <contour>
      <point x="-14" y="-220" type="line"/>
      <point x="144" y="-220" type="line"/>
      <point x="152" y="-183" type="line"/>
      <point x="57" y="-173" type="line"/>
      <point x="233" y="653" type="line"/>
      <point x="331" y="662" type="line"/>
      <point x="340" y="700" type="line"/>
      <point x="182" y="700" type="line"/>
    </contour>
  </outline>
</glyph>
<glyph name="backslash" format="2">
  <advance width="411"/>
  <unicode hex="005C"/>
  <outline>
    <contour>
      <point x="319" y="-220" type="line"/>
      <point x="149" y="707" type="line"/>
      <point x="97" y="700" type="line"/>
      <point x="266" y="-227" type="line"/>
    </contour>
  </outline>
</glyph>
<glyph name="bracketright" format="2">
  <advance width="269"/>
  <unicode hex="005D"/>
  <outline>
    <contour>
      <point x="89.0779" y="-169" type="line"/>
      <point x="-8.62251" y="-177" type="line"/>
      <point x="-17.7624" y="-220" type="line"/>
      <point x="142.238" y="-220" type="line"/>
      <point x="337.79" y="700" type="line"/>
      <point x="177.79" y="700" type="line"/>
      <point x="168.65" y="657" type="line"/>
      <point x="262.949" y="649" type="line"/>
    </contour>
  </outline>
</glyph>
<glyph name="asciicircum" format="2">
  <advance width="434"/>
  <unicode hex="005E"/>
  <outline>
    <contour>
      <point x="184.312" y="439" type="line"/>
      <point x="351.036" y="640" type="line"/>
      <point x="435.312" y="439" type="line"/>
      <point x="483.501" y="454" type="line"/>
      <point x="377.152" y="697" type="line"/>
      <point x="345.152" y="697" type="line"/>
      <point x="142.501" y="454" type="line"/>
    </contour>
  </outline>
</glyph>
<glyph name="underscore" format="2">
  <advance width="542"/>
  <unicode hex="005F"/>
  <outline>
    <contour>
      <point x="-53" y="-65" type="line"/>
      <point x="-53" y="-108" type="line"/>
      <point x="490" y="-108" type="line"/>
      <point x="490" y="-65" type="line"/>
    </contour>
  </outline>
</glyph>
<glyph name="grave" format="2">
  <advance width="500"/>
  <unicode hex="0060"/>
  <outline>
    <contour>
      <point x="309.79" y="700" type="line"/>
      <point x="227.389" y="684" type="line"/>
      <point x="377.08" y="532" type="line"/>
      <point x="412.355" y="538" type="line"/>
    </contour>
  </outline>
</glyph>
<glyph name="a" format="2">
  <advance width="528"/>
  <unicode hex="0061"/>
  <outline>
    <contour>
      <point x="544.525" y="440" type="line"/>
      <point x="471.525" y="440" type="line"/>
      <point x="460.047" y="386" type="line"/>
      <point x="426.824" y="432"/>
      <point x="392.65" y="450"/>
      <point x="338.65" y="450" type="curve" smooth="yes"/>
      <point x="222.65" y="450"/>
      <point x="120.245" y="354"/>
      <point x="91.7624" y="220" type="curve" smooth="yes"/>
      <point x="78.3714" y="157"/>
      <point x="83.6808" y="102"/>
      <point x="107.179" y="62" type="curve" smooth="yes"/>
      <point x="133.826" y="18"/>
      <point x="184.874" y="-10"/>
      <point x="239.874" y="-10" type="curve" smooth="yes"/>
      <point x="292.874" y="-10"/>
      <point x="337.913" y="9"/>
      <point x="389.478" y="54" type="curve"/>
      <point x="378" y="0" type="line"/>
      <point x="451" y="0" type="line"/>
    </contour>
    <contour>
      <point x="336.259" y="387" type="curve" smooth="yes"/>
      <point x="413.259" y="387"/>
      <point x="451.018" y="320"/>
      <point x="429.975" y="221" type="curve" smooth="yes"/>
      <point x="408.719" y="121"/>
      <point x="342.478" y="54"/>
      <point x="265.478" y="54" type="curve" smooth="yes"/>
      <point x="187.478" y="54"/>
      <point x="150.507" y="120"/>
      <point x="172.188" y="222" type="curve" smooth="yes"/>
      <point x="193.018" y="320"/>
      <point x="259.259" y="387"/>
    </contour>
  </outline>
</glyph>
<glyph name="b" format="2">
  <advance width="528"/>
  <unicode hex="0062"/>
  <outline>
    <contour>
      <point x="298.79" y="700" type="line"/>
      <point x="225.79" y="700" type="line"/>
      <point x="77" y="0" type="line"/>
      <point x="110" y="0" type="line"/>
      <point x="161.478" y="54" type="line" name="hr01"/>
      <point x="193.913" y="9"/>
      <point x="230.874" y="-10"/>
      <point x="284.874" y="-10" type="curve" smooth="yes"/>
      <point x="338.874" y="-10"/>
      <point x="401.826" y="18"/>
      <point x="447.179" y="62" type="curve" smooth="yes"/>
      <point x="487.681" y="102"/>
      <point x="516.371" y="157"/>
      <point x="529.762" y="220" type="curve" smooth="yes"/>
      <point x="543.154" y="283"/>
      <point x="537.844" y="338"/>
      <point x="514.346" y="378" type="curve" smooth="yes"/>
      <point x="487.911" y="423"/>
      <point x="436.65" y="450"/>
      <point x="381.65" y="450" type="curve" smooth="yes"/>
      <point x="328.65" y="450"/>
      <point x="283.612" y="431"/>
      <point x="232.047" y="386" type="curve"/>
    </contour>
    <contour>
      <point x="356.259" y="387" type="curve" smooth="yes"/>
      <point x="434.259" y="387"/>
      <point x="471.231" y="321"/>
      <point x="449.975" y="221" type="curve" smooth="yes"/>
      <point x="428.719" y="121"/>
      <point x="362.478" y="54"/>
      <point x="285.478" y="54" type="curve" smooth="yes"/>
      <point x="207.478" y="54"/>
      <point x="170.507" y="120"/>
      <point x="192.188" y="222" type="curve" smooth="yes"/>
      <point x="213.018" y="320"/>
      <point x="279.259" y="387"/>
    </contour>
  </outline>
</glyph>
<glyph name="c" format="2">
  <advance width="436"/>
  <unicode hex="0063"/>
  <outline>
    <contour>
      <point x="484.656" y="323" type="line"/>
      <point x="485.371" y="364"/>
      <point x="481.409" y="383"/>
      <point x="466.66" y="403" type="curve" smooth="yes"/>
      <point x="444.037" y="433"/>
      <point x="401.65" y="450"/>
      <point x="347.65" y="450" type="curve" smooth="yes"/>
      <point x="222.65" y="450"/>
      <point x="121.308" y="359"/>
      <point x="91.7624" y="220" type="curve" smooth="yes"/>
      <point x="62.4296" y="82"/>
      <point x="124.874" y="-10"/>
      <point x="248.874" y="-10" type="curve" smooth="yes"/>
      <point x="293.874" y="-10"/>
      <point x="335.425" y="2"/>
      <point x="371.526" y="26" type="curve" smooth="yes"/>
      <point x="400.565" y="45"/>
      <point x="416.604" y="64"/>
      <point x="442.169" y="109" type="curve"/>
      <point x="375.632" y="130" type="line"/>
      <point x="343.517" y="73"/>
      <point x="313.265" y="53"/>
      <point x="262.265" y="53" type="curve" smooth="yes"/>
      <point x="223.265" y="53"/>
      <point x="195.666" y="69"/>
      <point x="181.831" y="98" type="curve" smooth="yes"/>
      <point x="165.632" y="130"/>
      <point x="162.41" y="176"/>
      <point x="171.975" y="221" type="curve" smooth="yes"/>
      <point x="193.443" y="322"/>
      <point x="259.259" y="387"/>
      <point x="339.259" y="387" type="curve" smooth="yes"/>
      <point x="398.259" y="387"/>
      <point x="420.308" y="359"/>
      <point x="410.917" y="296" type="curve"/>
    </contour>
  </outline>
</glyph>
<glyph name="d" format="2">
  <advance width="528"/>
  <unicode hex="0064"/>
  <outline>
    <contour>
      <point x="599.79" y="700" type="line"/>
      <point x="526.79" y="700" type="line"/>
      <point x="460.047" y="386" type="line"/>
      <point x="427.612" y="431"/>
      <point x="390.65" y="450"/>
      <point x="337.65" y="450" type="curve" smooth="yes"/>
      <point x="282.65" y="450"/>
      <point x="219.699" y="422"/>
      <point x="174.346" y="378" type="curve" smooth="yes"/>
      <point x="133.844" y="338"/>
      <point x="105.154" y="283"/>
      <point x="91.7624" y="220" type="curve" smooth="yes"/>
      <point x="78.3714" y="157"/>
      <point x="83.6808" y="102"/>
      <point x="107.179" y="62" type="curve" smooth="yes"/>
      <point x="133.826" y="18"/>
      <point x="184.874" y="-10"/>
      <point x="239.874" y="-10" type="curve" smooth="yes"/>
      <point x="292.874" y="-10"/>
      <point x="337.913" y="9"/>
      <point x="389.478" y="54" type="curve"/>
      <point x="378" y="0" type="line"/>
      <point x="451" y="0" type="line"/>
    </contour>
    <contour>
      <point x="336.259" y="387" type="curve" smooth="yes"/>
      <point x="413.259" y="387"/>
      <point x="451.018" y="320"/>
      <point x="429.975" y="221" type="curve" smooth="yes"/>
      <point x="408.719" y="121"/>
      <point x="342.478" y="54" name="hr02"/>
      <point x="265.478" y="54" type="curve" smooth="yes"/>
      <point x="187.478" y="54"/>
      <point x="150.507" y="120"/>
      <point x="172.188" y="222" type="curve" smooth="yes"/>
      <point x="193.018" y="320"/>
      <point x="259.259" y="387"/>
    </contour>
  </outline>
</glyph>
<glyph name="e" format="2">
  <advance width="472"/>
  <unicode hex="0065"/>
  <outline>
    <contour>
      <point x="468.724" y="201" type="line"/>
      <point x="485.366" y="284"/>
      <point x="488.443" y="322"/>
      <point x="479.52" y="360" type="curve" smooth="yes"/>
      <point x="466.061" y="419"/>
      <point x="419.65" y="450"/>
      <point x="346.65" y="450" type="curve" smooth="yes"/>
      <point x="222.65" y="450"/>
      <point x="121.095" y="358"/>
      <point x="91.7624" y="220" type="curve" smooth="yes"/>
      <point x="62.2171" y="81"/>
      <point x="124.874" y="-10"/>
      <point x="250.874" y="-10" type="curve" smooth="yes"/>
      <point x="331.874" y="-10"/>
      <point x="380.613" y="17"/>
      <point x="446.618" y="97" type="curve"/>
      <point x="387.632" y="130" type="line"/>
      <point x="348.942" y="75"/>
      <point x="315.265" y="53"/>
      <point x="269.265" y="53" type="curve" smooth="yes"/>
      <point x="233.265" y="53"/>
      <point x="206.816" y="65"/>
      <point x="188.705" y="88" type="curve" smooth="yes"/>
      <point x="167.444" y="115"/>
      <point x="162.396" y="143"/>
      <point x="168.724" y="201" type="curve"/>
    </contour>
    <contour>
      <point x="185.115" y="264" type="line"/>
      <point x="209.97" y="348"/>
      <point x="260.535" y="393"/>
      <point x="329.535" y="393" type="curve" smooth="yes"/>
      <point x="367.535" y="393"/>
      <point x="394.559" y="379"/>
      <point x="405.032" y="353" type="curve"/>
      <point x="414.781" y="333"/>
      <point x="415.318" y="312"/>
      <point x="406.115" y="264" type="curve"/>
    </contour>
  </outline>
</glyph>
<glyph name="f" format="2">
  <advance width="292"/>
  <unicode hex="0066"/>
  <outline>
    <contour>
      <point x="35" y="0" type="line"/>
      <point x="108" y="0" type="line"/>
      <point x="188" y="377" type="line"/>
      <point x="318" y="377" type="line"/>
      <point x="332" y="440" type="line"/>
      <point x="202" y="440" type="line"/>
      <point x="214" y="498" type="line" smooth="yes"/>
      <point x="225" y="549"/>
      <point x="234" y="573"/>
      <point x="249" y="597" type="curve" smooth="yes"/>
      <point x="267" y="626"/>
      <point x="298" y="644"/>
      <point x="327" y="644" type="curve" smooth="yes"/>
      <point x="344" y="644"/>
      <point x="356" y="639"/>
      <point x="371" y="623" type="curve"/>
      <point x="410" y="679" type="line"/>
      <point x="386" y="695"/>
      <point x="365" y="701"/>
      <point x="333" y="701" type="curve" smooth="yes"/>
      <point x="280" y="701"/>
      <point x="233" y="679"/>
      <point x="199" y="638" type="curve" smooth="yes"/>
      <point x="171" y="604"/>
      <point x="156" y="568"/>
      <point x="141" y="500" type="curve"/>
      <point x="129" y="440" type="line"/>
      <point x="70" y="440" type="line"/>
      <point x="56" y="377" type="line"/>
      <point x="115" y="377" type="line"/>
    </contour>
  </outline>
</glyph>
<glyph name="g" format="2">
  <advance width="528"/>
  <unicode hex="0067"/>
  <outline>
    <contour>
      <point x="544.525" y="440" type="line"/>
      <point x="471.525" y="440" type="line"/>
      <point x="460.047" y="386" type="line"/>
      <point x="427.612" y="431"/>
      <point x="390.65" y="450"/>
      <point x="337.65" y="450" type="curve" smooth="yes"/>
      <point x="282.65" y="450"/>
      <point x="219.699" y="422"/>
      <point x="174.346" y="378" type="curve" smooth="yes"/>
      <point x="133.844" y="338"/>
      <point x="105.154" y="283"/>
      <point x="91.7624" y="220" type="curve" smooth="yes"/>
      <point x="78.3714" y="157"/>
      <point x="83.6808" y="102"/>
      <point x="107.179" y="62" type="curve" smooth="yes"/>
      <point x="133.826" y="18"/>
      <point x="184.874" y="-10"/>
      <point x="239.874" y="-10" type="curve" smooth="yes"/>
      <point x="292.874" y="-10"/>
      <point x="337.913" y="9"/>
      <point x="389.478" y="54" type="curve"/>
      <point x="380.763" y="13" type="line" smooth="yes"/>
      <point x="369.285" y="-41"/>
      <point x="354.846" y="-76"/>
      <point x="334.107" y="-103" type="curve" smooth="yes"/>
      <point x="302.179" y="-145"/>
      <point x="259.503" y="-167"/>
      <point x="212.503" y="-167" type="curve" smooth="yes"/>
      <point x="151.503" y="-167"/>
      <point x="117.368" y="-130"/>
      <point x="109.459" y="-59" type="curve"/>
      <point x="37.469" y="-106" type="line"/>
      <point x="51.6914" y="-152"/>
      <point x="62.4403" y="-172"/>
      <point x="88.9766" y="-193" type="curve" smooth="yes"/>
      <point x="119.088" y="-216"/>
      <point x="160.112" y="-230"/>
      <point x="202.112" y="-230" type="curve" smooth="yes"/>
      <point x="268.112" y="-230"/>
      <point x="338.126" y="-197"/>
      <point x="385.604" y="-143" type="curve" smooth="yes"/>
      <point x="417.469" y="-106"/>
      <point x="437.821" y="-62"/>
      <point x="451" y="0" type="curve" smooth="yes"/>
    </contour>
    <contour>
      <point x="336.259" y="387" type="curve" smooth="yes"/>
      <point x="413.259" y="387"/>
      <point x="451.018" y="320"/>
      <point x="429.975" y="221" type="curve" smooth="yes"/>
      <point x="408.719" y="121"/>
      <point x="342.478" y="54"/>
      <point x="265.478" y="54" type="curve" smooth="yes"/>
      <point x="187.478" y="54"/>
      <point x="150.507" y="120"/>
      <point x="172.188" y="222" type="curve" smooth="yes"/>
      <point x="193.231" y="321"/>
      <point x="259.259" y="387"/>
    </contour>
  </outline>
</glyph>
<glyph name="h" format="2">
  <advance width="514"/>
  <unicode hex="0068"/>
  <outline>
    <contour>
      <point x="298.79" y="700" type="line"/>
      <point x="225.79" y="700" type="line"/>
      <point x="77" y="0" type="line"/>
      <point x="150" y="0" type="line"/>
      <point x="208.24" y="274" type="line" smooth="yes"/>
      <point x="214.83" y="305"/>
      <point x="225.293" y="326"/>
      <point x="244.119" y="344" type="curve" smooth="yes"/>
      <point x="270.646" y="370"/>
      <point x="312.259" y="387"/>
      <point x="350.259" y="387" type="curve" smooth="yes"/>
      <point x="414.259" y="387"/>
      <point x="439.182" y="349"/>
      <point x="423.666" y="276" type="curve" smooth="yes"/>
      <point x="365" y="0" type="line"/>
      <point x="438" y="0" type="line"/>
      <point x="497.091" y="278" type="line" smooth="yes"/>
      <point x="508.994" y="334"/>
      <point x="508.583" y="365"/>
      <point x="495.322" y="392" type="curve" smooth="yes"/>
      <point x="476.187" y="429"/>
      <point x="433.863" y="451"/>
      <point x="379.863" y="451" type="curve" smooth="yes"/>
      <point x="325.863" y="451"/>
      <point x="287.462" y="435"/>
      <point x="232.259" y="387" type="curve"/>
    </contour>
  </outline>
</glyph>
<glyph name="i" format="2">
  <advance width="227"/>
  <unicode hex="0069"/>
  <outline>
    <contour>
      <point x="242.525" y="440" type="line"/>
      <point x="169.525" y="440" type="line"/>
      <point x="76" y="0" type="line"/>
      <point x="149" y="0" type="line"/>
    </contour>
    <contour>
      <point x="251.138" y="664" type="curve" smooth="yes"/>
      <point x="224.138" y="664"/>
      <point x="196.461" y="642"/>
      <point x="190.722" y="615" type="curve" smooth="yes"/>
      <point x="184.771" y="587"/>
      <point x="201.882" y="564"/>
      <point x="229.882" y="564" type="curve" smooth="yes"/>
      <point x="256.882" y="564"/>
      <point x="284.771" y="587"/>
      <point x="290.51" y="614" type="curve" smooth="yes"/>
      <point x="296.461" y="642"/>
      <point x="279.138" y="664"/>
    </contour>
  </outline>
</glyph>
<glyph name="j" format="2">
  <advance width="227"/>
  <unicode hex="006A"/>
  <outline>
    <contour>
      <point x="243.525" y="440" type="line"/>
      <point x="170.525" y="440" type="line"/>
      <point x="68.9229" y="-38" type="line" smooth="yes"/>
      <point x="57.6574" y="-91"/>
      <point x="43.0681" y="-122"/>
      <point x="22.2421" y="-140" type="curve" smooth="yes"/>
      <point x="2.62862" y="-157"/>
      <point x="-26.4969" y="-167"/>
      <point x="-55.4969" y="-167" type="curve" smooth="yes"/>
      <point x="-65.4969" y="-167"/>
      <point x="-73.2844" y="-166"/>
      <point x="-88.6467" y="-163" type="curve"/>
      <point x="-91.9122" y="-216" type="line"/>
      <point x="-65.5499" y="-219"/>
      <point x="-54.7624" y="-220"/>
      <point x="-44.7624" y="-220" type="curve" smooth="yes"/>
      <point x="3.23756" y="-220"/>
      <point x="48.0636" y="-202"/>
      <point x="81.8654" y="-170" type="curve" smooth="yes"/>
      <point x="112.242" y="-140"/>
      <point x="127.044" y="-108"/>
      <point x="142.348" y="-36" type="curve" smooth="yes"/>
    </contour>
    <contour>
      <point x="252.138" y="664" type="curve" smooth="yes"/>
      <point x="225.138" y="664"/>
      <point x="197.249" y="641"/>
      <point x="191.722" y="615" type="curve" smooth="yes"/>
      <point x="185.771" y="587"/>
      <point x="202.882" y="564"/>
      <point x="230.882" y="564" type="curve" smooth="yes"/>
      <point x="257.882" y="564"/>
      <point x="285.771" y="587"/>
      <point x="291.51" y="614" type="curve" smooth="yes"/>
      <point x="297.461" y="642"/>
      <point x="280.138" y="664"/>
    </contour>
  </outline>
</glyph>
<glyph name="k" format="2">
  <advance width="423"/>
  <unicode hex="006B"/>
  <outline>
    <contour>
      <point x="30" y="0" type="line"/>
      <point x="103" y="0" type="line"/>
      <point x="152" y="230" type="line"/>
      <point x="294" y="0" type="line"/>
      <point x="379" y="0" type="line"/>
      <point x="233" y="238" type="line"/>
      <point x="446" y="440" type="line"/>
      <point x="353" y="440" type="line"/>
      <point x="155" y="243" type="line"/>
      <point x="252" y="700" type="line"/>
      <point x="179" y="700" type="line"/>
    </contour>
  </outline>
</glyph>
<glyph name="l" format="2">
  <advance width="227"/>
  <unicode hex="006C"/>
  <outline>
    <contour>
      <point x="298.79" y="700" type="line"/>
      <point x="225.79" y="700" type="line"/>
      <point x="77" y="0" type="line"/>
      <point x="150" y="0" type="line"/>
    </contour>
  </outline>
</glyph>
<glyph name="m" format="2">
  <advance width="784"/>
  <unicode hex="006D"/>
  <outline>
    <contour>
      <point x="170.525" y="440" type="line"/>
      <point x="77" y="0" type="line"/>
      <point x="150" y="0" type="line"/>
      <point x="208.666" y="276" type="line" smooth="yes"/>
      <point x="222.907" y="343"/>
      <point x="276.259" y="387"/>
      <point x="344.259" y="387" type="curve" smooth="yes"/>
      <point x="410.259" y="387"/>
      <point x="433.245" y="354"/>
      <point x="417.728" y="281" type="curve" smooth="yes"/>
      <point x="358" y="0" type="line"/>
      <point x="431" y="0" type="line"/>
      <point x="489.666" y="276" type="line" smooth="yes"/>
      <point x="497.955" y="315"/>
      <point x="512.269" y="340"/>
      <point x="535.095" y="358" type="curve" smooth="yes"/>
      <point x="557.921" y="376"/>
      <point x="590.259" y="387"/>
      <point x="622.259" y="387" type="curve" smooth="yes"/>
      <point x="688.259" y="387"/>
      <point x="710.245" y="354"/>
      <point x="694.728" y="281" type="curve" smooth="yes"/>
      <point x="635" y="0" type="line"/>
      <point x="708" y="0" type="line"/>
      <point x="771.342" y="298" type="line" smooth="yes"/>
      <point x="791.535" y="393"/>
      <point x="745.65" y="450"/>
      <point x="651.65" y="450" type="curve" smooth="yes"/>
      <point x="591.65" y="450"/>
      <point x="545.612" y="431"/>
      <point x="491.409" y="383" type="curve"/>
      <point x="467.824" y="432"/>
      <point x="438.65" y="450"/>
      <point x="378.65" y="450" type="curve" smooth="yes"/>
      <point x="323.65" y="450"/>
      <point x="286.462" y="435"/>
      <point x="233.11" y="391" type="curve"/>
      <point x="243.525" y="440" type="line"/>
    </contour>
  </outline>
</glyph>
<glyph name="n" format="2">
  <advance width="514"/>
  <unicode hex="006E"/>
  <outline>
    <contour>
      <point x="243.525" y="440" type="line"/>
      <point x="170.525" y="440" type="line"/>
      <point x="77" y="0" type="line"/>
      <point x="150" y="0" type="line"/>
      <point x="208.24" y="274" type="line" smooth="yes"/>
      <point x="214.83" y="305"/>
      <point x="225.293" y="326"/>
      <point x="244.119" y="344" type="curve" smooth="yes"/>
      <point x="270.646" y="370"/>
      <point x="312.259" y="387"/>
      <point x="350.259" y="387" type="curve" smooth="yes"/>
      <point x="414.259" y="387"/>
      <point x="439.182" y="349"/>
      <point x="423.666" y="276" type="curve" smooth="yes"/>
      <point x="365" y="0" type="line"/>
      <point x="438" y="0" type="line"/>
      <point x="497.091" y="278" type="line" smooth="yes"/>
      <point x="508.994" y="334"/>
      <point x="508.583" y="365"/>
      <point x="495.322" y="392" type="curve" smooth="yes"/>
      <point x="476.187" y="429"/>
      <point x="433.863" y="451"/>
      <point x="379.863" y="451" type="curve" smooth="yes"/>
      <point x="325.863" y="451"/>
      <point x="287.462" y="435"/>
      <point x="232.259" y="387" type="curve"/>
    </contour>
  </outline>
</glyph>
<glyph name="o" format="2">
  <advance width="508"/>
  <unicode hex="006F"/>
  <outline>
    <contour>
      <point x="349.65" y="450" type="curve" smooth="yes"/>
      <point x="223.65" y="450"/>
      <point x="121.308" y="359"/>
      <point x="92.4001" y="223" type="curve" smooth="yes"/>
      <point x="62.0045" y="80"/>
      <point x="123.874" y="-10"/>
      <point x="251.874" y="-10" type="curve" smooth="yes"/>
      <point x="377.874" y="-10"/>
      <point x="479.217" y="81"/>
      <point x="508.762" y="220" type="curve" smooth="yes"/>
      <point x="538.52" y="360"/>
      <point x="475.65" y="450"/>
    </contour>
    <contour>
      <point x="336.259" y="387" type="curve" smooth="yes"/>
      <point x="413.259" y="387"/>
      <point x="450.018" y="320"/>
      <point x="428.762" y="220" type="curve" smooth="yes"/>
      <point x="407.507" y="120"/>
      <point x="342.265" y="53"/>
      <point x="265.265" y="53" type="curve" smooth="yes"/>
      <point x="187.265" y="53"/>
      <point x="150.294" y="119"/>
      <point x="172.188" y="222" type="curve" smooth="yes"/>
      <point x="193.018" y="320"/>
      <point x="259.259" y="387"/>
    </contour>
  </outline>
</glyph>
<glyph name="p" format="2">
  <advance width="528"/>
  <unicode hex="0070"/>
  <outline>
    <contour>
      <point x="243.525" y="440" type="line"/>
      <point x="170.525" y="440" type="line"/>
      <point x="30.2376" y="-220" type="line"/>
      <point x="103.238" y="-220" type="line"/>
      <point x="161.478" y="54" type="line"/>
      <point x="193.913" y="9"/>
      <point x="230.874" y="-10"/>
      <point x="284.874" y="-10" type="curve" smooth="yes"/>
      <point x="338.874" y="-10"/>
      <point x="401.826" y="18"/>
      <point x="447.179" y="62" type="curve" smooth="yes"/>
      <point x="487.681" y="102"/>
      <point x="516.371" y="157"/>
      <point x="529.762" y="220" type="curve" smooth="yes"/>
      <point x="543.154" y="283"/>
      <point x="537.844" y="338"/>
      <point x="514.346" y="378" type="curve" smooth="yes"/>
      <point x="487.911" y="423"/>
      <point x="436.65" y="450"/>
      <point x="381.65" y="450" type="curve" smooth="yes"/>
      <point x="328.65" y="450"/>
      <point x="283.612" y="431"/>
      <point x="232.047" y="386" type="curve"/>
    </contour>
    <contour>
      <point x="356.259" y="387" type="curve" smooth="yes"/>
      <point x="434.259" y="387"/>
      <point x="471.231" y="321"/>
      <point x="449.975" y="221" type="curve" smooth="yes"/>
      <point x="428.719" y="121"/>
      <point x="362.478" y="54"/>
      <point x="285.478" y="54" type="curve" smooth="yes"/>
      <point x="207.478" y="54"/>
      <point x="170.507" y="120"/>
      <point x="192.188" y="222" type="curve" smooth="yes"/>
      <point x="213.018" y="320"/>
      <point x="279.259" y="387"/>
    </contour>
  </outline>
</glyph>
<glyph name="q" format="2">
  <advance width="528"/>
  <unicode hex="0071"/>
  <outline>
    <contour>
      <point x="331.238" y="-220" type="line"/>
      <point x="404.238" y="-220" type="line"/>
      <point x="544.525" y="440" type="line"/>
      <point x="511.525" y="440" type="line"/>
      <point x="460.047" y="386" type="line"/>
      <point x="427.612" y="431"/>
      <point x="390.65" y="450"/>
      <point x="337.65" y="450" type="curve" smooth="yes"/>
      <point x="282.65" y="450"/>
      <point x="219.699" y="422"/>
      <point x="174.346" y="378" type="curve" smooth="yes"/>
      <point x="133.844" y="338"/>
      <point x="105.154" y="283"/>
      <point x="91.7624" y="220" type="curve" smooth="yes"/>
      <point x="78.3714" y="157"/>
      <point x="83.6808" y="102"/>
      <point x="107.179" y="62" type="curve" smooth="yes"/>
      <point x="133.826" y="18"/>
      <point x="184.874" y="-10"/>
      <point x="239.874" y="-10" type="curve" smooth="yes"/>
      <point x="292.874" y="-10"/>
      <point x="337.913" y="9"/>
      <point x="389.478" y="54" type="curve"/>
    </contour>
    <contour>
      <point x="336.259" y="387" type="curve" smooth="yes"/>
      <point x="413.259" y="387"/>
      <point x="451.018" y="320"/>
      <point x="429.975" y="221" type="curve" smooth="yes"/>
      <point x="408.719" y="121"/>
      <point x="342.478" y="54"/>
      <point x="265.478" y="54" type="curve" smooth="yes"/>
      <point x="187.478" y="54"/>
      <point x="150.507" y="120"/>
      <point x="172.188" y="222" type="curve" smooth="yes"/>
      <point x="193.018" y="320"/>
      <point x="259.259" y="387"/>
    </contour>
  </outline>
</glyph>
<glyph name="r" format="2">
  <advance width="341"/>
  <unicode hex="0072"/>
  <outline>
    <contour>
      <point x="170.525" y="440" type="line"/>
      <point x="77" y="0" type="line"/>
      <point x="150" y="0" type="line"/>
      <point x="204.84" y="258" type="line" smooth="yes"/>
      <point x="219.719" y="328"/>
      <point x="279.685" y="389"/>
      <point x="334.685" y="389" type="curve" smooth="yes"/>
      <point x="360.685" y="389"/>
      <point x="375.771" y="380"/>
      <point x="392.82" y="352" type="curve"/>
      <point x="441.786" y="413" type="line"/>
      <point x="415.737" y="441"/>
      <point x="398.65" y="450"/>
      <point x="368.65" y="450" type="curve" smooth="yes"/>
      <point x="320.65" y="450"/>
      <point x="282.187" y="429"/>
      <point x="229.709" y="375" type="curve"/>
      <point x="243.525" y="440" type="line"/>
    </contour>
  </outline>
</glyph>
<glyph name="s" format="2">
  <advance width="405"/>
  <unicode hex="0073"/>
  <outline>
    <contour>
      <point x="435.071" y="372" type="line"/>
      <point x="413.974" y="428"/>
      <point x="376.65" y="450"/>
      <point x="306.65" y="450" type="curve" smooth="yes"/>
      <point x="219.65" y="450"/>
      <point x="147.598" y="398"/>
      <point x="131.656" y="323" type="curve" smooth="yes"/>
      <point x="125.917" y="296"/>
      <point x="129.603" y="271"/>
      <point x="142.352" y="251" type="curve" smooth="yes"/>
      <point x="158.25" y="227"/>
      <point x="175.125" y="217"/>
      <point x="230.724" y="201" type="curve" smooth="yes"/>
      <point x="307.048" y="179"/>
      <point x="321.284" y="166"/>
      <point x="313.42" y="129" type="curve" smooth="yes"/>
      <point x="303.642" y="83"/>
      <point x="259.84" y="51"/>
      <point x="206.84" y="51" type="curve" smooth="yes"/>
      <point x="154.84" y="51"/>
      <point x="127.792" y="79"/>
      <point x="124.545" y="139" type="curve"/>
      <point x="48.1687" y="109" type="line"/>
      <point x="63.3139" y="25"/>
      <point x="103.874" y="-10"/>
      <point x="186.874" y="-10" type="curve" smooth="yes"/>
      <point x="287.874" y="-10"/>
      <point x="372.628" y="50"/>
      <point x="390.483" y="134" type="curve" smooth="yes"/>
      <point x="396.859" y="164"/>
      <point x="391.661" y="196"/>
      <point x="377.912" y="216" type="curve" smooth="yes"/>
      <point x="363.163" y="236"/>
      <point x="341.714" y="248"/>
      <point x="290.477" y="261" type="curve" smooth="yes"/>
      <point x="217.516" y="280"/>
      <point x="200.492" y="294"/>
      <point x="208.144" y="330" type="curve" smooth="yes"/>
      <point x="215.583" y="365"/>
      <point x="250.897" y="390"/>
      <point x="294.897" y="390" type="curve" smooth="yes"/>
      <point x="339.897" y="390"/>
      <point x="360.071" y="372"/>
      <point x="362.356" y="331" type="curve"/>
    </contour>
  </outline>
</glyph>
<glyph name="t" format="2">
  <advance width="309"/>
  <unicode hex="0074"/>
  <outline>
    <contour>
      <point x="284.708" y="582" type="line"/>
      <point x="205.331" y="552" type="line"/>
      <point x="181.525" y="440" type="line"/>
      <point x="110.525" y="440" type="line"/>
      <point x="97.1338" y="377" type="line"/>
      <point x="168.134" y="377" type="line"/>
      <point x="123.497" y="167" type="line" smooth="yes"/>
      <point x="111.381" y="110"/>
      <point x="108.517" y="73"/>
      <point x="114.415" y="49" type="curve" smooth="yes"/>
      <point x="123.551" y="12"/>
      <point x="160.874" y="-10"/>
      <point x="214.874" y="-10" type="curve" smooth="yes"/>
      <point x="235.874" y="-10"/>
      <point x="251.512" y="-7"/>
      <point x="285.425" y="2" type="curve"/>
      <point x="305.604" y="64" type="line"/>
      <point x="279.691" y="55"/>
      <point x="268.265" y="53"/>
      <point x="251.265" y="53" type="curve" smooth="yes"/>
      <point x="232.265" y="53"/>
      <point x="216.116" y="57"/>
      <point x="204.604" y="64" type="curve" smooth="yes"/>
      <point x="183.579" y="78"/>
      <point x="182.043" y="99"/>
      <point x="196.072" y="165" type="curve" smooth="yes"/>
      <point x="241.134" y="377" type="line"/>
      <point x="365.134" y="377" type="line"/>
      <point x="378.525" y="440" type="line"/>
      <point x="254.525" y="440" type="line"/>
    </contour>
  </outline>
</glyph>
<glyph name="u" format="2">
  <advance width="514"/>
  <unicode hex="0075"/>
  <outline>
    <contour>
      <point x="365" y="0" type="line"/>
      <point x="438" y="0" type="line"/>
      <point x="531.525" y="440" type="line"/>
      <point x="458.525" y="440" type="line"/>
      <point x="400.284" y="166" type="line" smooth="yes"/>
      <point x="393.695" y="135"/>
      <point x="383.231" y="114"/>
      <point x="364.405" y="96" type="curve" smooth="yes"/>
      <point x="337.879" y="70"/>
      <point x="296.265" y="53" name="hr01"/>
      <point x="259.265" y="53" type="curve" smooth="yes"/>
      <point x="194.265" y="53"/>
      <point x="169.343" y="91"/>
      <point x="185.072" y="165" type="curve" smooth="yes"/>
      <point x="243.525" y="440" type="line"/>
      <point x="170.525" y="440" type="line"/>
      <point x="111.647" y="163" type="line" smooth="yes"/>
      <point x="99.531" y="106"/>
      <point x="99.9417" y="75"/>
      <point x="113.203" y="48" type="curve" smooth="yes"/>
      <point x="132.338" y="11"/>
      <point x="174.662" y="-11"/>
      <point x="228.662" y="-11" type="curve" smooth="yes"/>
      <point x="282.662" y="-11"/>
      <point x="321.275" y="6"/>
      <point x="376.265" y="53" type="curve"/>
    </contour>
  </outline>
</glyph>
<glyph name="v" format="2">
  <advance width="432"/>
  <unicode hex="0076"/>
  <outline>
    <contour>
      <point x="187" y="0" type="line"/>
      <point x="252" y="0" type="line"/>
      <point x="522.525" y="440" type="line"/>
      <point x="450.525" y="440" type="line"/>
      <point x="245.106" y="104" type="line"/>
      <point x="182.525" y="440" type="line"/>
      <point x="103.525" y="440" type="line"/>
    </contour>
  </outline>
</glyph>
<glyph name="w" format="2">
  <advance width="675"/>
  <unicode hex="0077"/>
  <outline>
    <contour>
      <point x="755.525" y="440" type="line"/>
      <point x="683.525" y="440" type="line"/>
      <point x="504.294" y="119" type="line"/>
      <point x="470.525" y="440" type="line"/>
      <point x="408.525" y="440" type="line"/>
      <point x="227.019" y="113" type="line"/>
      <point x="193.525" y="440" type="line"/>
      <point x="116.525" y="440" type="line"/>
      <point x="162" y="0" type="line"/>
      <point x="232" y="0" type="line"/>
      <point x="408.593" y="318" type="line"/>
      <point x="441" y="0" type="line"/>
      <point x="507" y="0" type="line"/>
    </contour>
  </outline>
</glyph>
<glyph name="x" format="2">
  <advance width="393"/>
  <unicode hex="0078"/>
  <outline>
    <contour>
      <point x="467.525" y="440" type="line"/>
      <point x="387.525" y="440" type="line"/>
      <point x="263.492" y="294" type="line"/>
      <point x="209.525" y="440" type="line"/>
      <point x="125.525" y="440" type="line"/>
      <point x="207.376" y="237" type="line"/>
      <point x="-5" y="0" type="line"/>
      <point x="76" y="0" type="line"/>
      <point x="231.598" y="191" type="line"/>
      <point x="301" y="0" type="line"/>
      <point x="386" y="0" type="line"/>
      <point x="290.651" y="243" type="line"/>
    </contour>
  </outline>
</glyph>
<glyph name="y" format="2">
  <advance width="427"/>
  <unicode hex="0079"/>
  <outline>
    <contour>
      <point x="524.525" y="440" type="line"/>
      <point x="450.525" y="440" type="line"/>
      <point x="243.507" y="120" type="line"/>
      <point x="182.525" y="440" type="line"/>
      <point x="103.525" y="440" type="line"/>
      <point x="182.739" y="27" type="line"/>
      <point x="118.696" y="-72" type="line" smooth="yes"/>
      <point x="103.595" y="-96"/>
      <point x="77.2179" y="-126"/>
      <point x="58.0295" y="-141" type="curve" smooth="yes"/>
      <point x="38.6286" y="-157"/>
      <point x="10.2905" y="-168"/>
      <point x="-13.7095" y="-168" type="curve" smooth="yes"/>
      <point x="-30.7095" y="-168"/>
      <point x="-43.8593" y="-164"/>
      <point x="-68.096" y="-151" type="curve"/>
      <point x="-74.3373" y="-218" type="line"/>
      <point x="-51.4629" y="-228"/>
      <point x="-39.888" y="-230"/>
      <point x="-20.888" y="-230" type="curve" smooth="yes"/>
      <point x="26.112" y="-230"/>
      <point x="73.3631" y="-210"/>
      <point x="109.803" y="-175" type="curve" smooth="yes"/>
      <point x="146.455" y="-139"/>
      <point x="165.868" y="-114.048"/>
      <point x="226.749" y="-20" type="curve" smooth="yes"/>
    </contour>
  </outline>
</glyph>
<glyph name="z" format="2">
  <advance width="412"/>
  <unicode hex="007A"/>
  <outline>
    <contour>
      <point x="141.525" y="440" type="line"/>
      <point x="128.134" y="377" type="line"/>
      <point x="379.134" y="377" type="line"/>
      <point x="32.3911" y="63" type="line"/>
      <point x="19" y="0" type="line"/>
      <point x="394" y="0" type="line"/>
      <point x="407.391" y="63" type="line"/>
      <point x="121.391" y="63" type="line"/>
      <point x="467.134" y="377" type="line"/>
      <point x="480.525" y="440" type="line"/>
    </contour>
  </outline>
</glyph>
<glyph name="braceleft" format="2">
  <advance width="242"/>
  <unicode hex="007B"/>
  <outline>
    <contour>
      <point x="320" y="696" type="line"/>
      <point x="303" y="696" type="line" smooth="yes"/>
      <point x="255" y="696"/>
      <point x="222" y="685"/>
      <point x="196" y="661" type="curve" smooth="yes"/>
      <point x="166" y="632"/>
      <point x="152" y="602"/>
      <point x="136" y="523" type="curve" smooth="yes"/>
      <point x="119" y="443" type="line" smooth="yes"/>
      <point x="99" y="350"/>
      <point x="68" y="312"/>
      <point x="13" y="313" type="curve"/>
      <point x="10" y="297" type="line"/>
      <point x="60" y="293"/>
      <point x="74" y="283"/>
      <point x="74" y="251" type="curve" smooth="yes"/>
      <point x="74" y="240"/>
      <point x="71" y="218"/>
      <point x="66" y="196" type="curve" smooth="yes"/>
      <point x="34" y="44" type="line" smooth="yes"/>
      <point x="31" y="29"/>
      <point x="29" y="15" name="hr01"/>
      <point x="29" y="1" type="curve" smooth="yes"/>
      <point x="29" y="-51"/>
      <point x="77" y="-91"/>
      <point x="136" y="-88" type="curve" smooth="yes"/>
      <point x="149" y="-87" type="line"/>
      <point x="154" y="-87" type="line"/>
      <point x="158" y="-71" type="line"/>
      <point x="112" y="-64"/>
      <point x="92" y="-45"/>
      <point x="92" y="-7" type="curve" smooth="yes"/>
      <point x="92" y="9"/>
      <point x="95" y="30"/>
      <point x="99" y="53" type="curve"/>
      <point x="126" y="178" type="line" smooth="yes"/>
      <point x="130" y="198"/>
      <point x="133" y="218" name="hr02"/>
      <point x="133" y="229" type="curve" smooth="yes"/>
      <point x="133" y="269"/>
      <point x="114" y="291"/>
      <point x="63" y="307" type="curve"/>
      <point x="146" y="336"/>
      <point x="168" y="365"/>
      <point x="188" y="468" type="curve"/>
      <point x="200" y="523" type="line"/>
      <point x="220" y="632"/>
      <point x="250" y="672"/>
      <point x="317" y="679" type="curve"/>
    </contour>
  </outline>
</glyph>
<glyph name="bar" format="2">
  <advance width="543"/>
  <unicode hex="007C"/>
  <outline>
    <contour>
      <point x="255" y="667" type="line"/>
      <point x="255" y="-167" type="line"/>
      <point x="300" y="-167" type="line"/>
      <point x="300" y="667" type="line"/>
    </contour>
  </outline>
</glyph>
<glyph name="braceright" format="2">
  <advance width="251"/>
  <unicode hex="007D"/>
  <outline>
    <contour>
      <point x="157.326" y="679" type="line"/>
      <point x="185.688" y="676"/>
      <point x="198.988" y="668"/>
      <point x="211.162" y="650" type="curve" smooth="yes"/>
      <point x="225.273" y="627"/>
      <point x="224.321" y="599"/>
      <point x="208.167" y="523" type="curve" smooth="yes"/>
      <point x="196.476" y="468" type="line" smooth="yes"/>
      <point x="179.897" y="390"/>
      <point x="179.646" y="370"/>
      <point x="197.119" y="344" type="curve" smooth="yes"/>
      <point x="206.356" y="331"/>
      <point x="219.443" y="322"/>
      <point x="253.255" y="307" type="curve"/>
      <point x="178.791" y="286"/>
      <point x="151.414" y="256"/>
      <point x="134.835" y="178" type="curve" smooth="yes"/>
      <point x="108.265" y="53" type="line" smooth="yes"/>
      <point x="89.5605" y="-35"/>
      <point x="64.8215" y="-62"/>
      <point x="-2.09152" y="-71" type="curve"/>
      <point x="-5.49242" y="-87" type="line"/>
      <point x="-0.492421" y="-87" type="line"/>
      <point x="4.29502" y="-88"/>
      <point x="9.29502" y="-88"/>
      <point x="10.295" y="-88" type="curve"/>
      <point x="48.295" y="-88"/>
      <point x="87.0583" y="-75"/>
      <point x="115.947" y="-52" type="curve" smooth="yes"/>
      <point x="144.836" y="-29"/>
      <point x="160.787" y="-1"/>
      <point x="170.352" y="44" type="curve" smooth="yes"/>
      <point x="202.661" y="196" type="line" smooth="yes"/>
      <point x="219.878" y="277"/>
      <point x="234.067" y="292"/>
      <point x="302.129" y="297" type="curve"/>
      <point x="305.53" y="313" type="line"/>
      <point x="247.955" y="315"/>
      <point x="235.182" y="349"/>
      <point x="255.163" y="443" type="curve" smooth="yes"/>
      <point x="272.167" y="523" type="line" smooth="yes"/>
      <point x="288.959" y="602"/>
      <point x="288.548" y="633"/>
      <point x="270.5" y="661" type="curve" smooth="yes"/>
      <point x="254.601" y="685"/>
      <point x="225.939" y="696"/>
      <point x="177.939" y="696" type="curve" smooth="yes"/>
      <point x="160.939" y="696" type="line"/>
    </contour>
  </outline>
</glyph>
<glyph name="asciitilde" format="2">
  <advance width="444"/>
  <unicode hex="007E"/>
  <outline>
    <contour>
      <point x="149.534" y="600" type="line"/>
      <point x="191.548" y="633"/>
      <point x="221.524" y="647"/>
      <point x="249.524" y="647" type="curve" smooth="yes"/>
      <point x="263.524" y="647"/>
      <point x="270.099" y="645"/>
      <point x="302.336" y="632" type="curve" smooth="yes"/>
      <point x="393.684" y="596"/>
      <point x="393.684" y="596"/>
      <point x="423.684" y="596" type="curve" smooth="yes"/>
      <point x="467.684" y="596"/>
      <point x="514.147" y="617"/>
      <point x="559.862" y="658" type="curve"/>
      <point x="560.152" y="697" type="line"/>
      <point x="510.65" y="657"/>
      <point x="480.674" y="643"/>
      <point x="445.674" y="643" type="curve" smooth="yes"/>
      <point x="423.674" y="643"/>
      <point x="399.162" y="650"/>
      <point x="361.775" y="667" type="curve" smooth="yes"/>
      <point x="318.026" y="687"/>
      <point x="298.302" y="693"/>
      <point x="274.302" y="693" type="curve" smooth="yes"/>
      <point x="237.302" y="693"/>
      <point x="197.688" y="676"/>
      <point x="150.036" y="640" type="curve"/>
    </contour>
  </outline>
</glyph>
<glyph name="exclamdown" format="2">
  <advance width="240"/>
  <unicode hex="00A1"/>
  <outline>
    <contour>
      <point x="123.754" y="-147" type="line"/>
      <point x="159.889" y="23" type="line"/>
      <point x="212.081" y="325" type="line"/>
      <point x="166.081" y="325" type="line"/>
      <point x="89.8888" y="23" type="line"/>
      <point x="53.7542" y="-147" type="line"/>
    </contour>
    <contour>
      <point x="233.505" y="534" type="curve" smooth="yes"/>
      <point x="204.505" y="534"/>
      <point x="175.404" y="510"/>
      <point x="169.027" y="480" type="curve" smooth="yes"/>
      <point x="162.863" y="451"/>
      <point x="181.762" y="427"/>
      <point x="211.762" y="427" type="curve" smooth="yes"/>
      <point x="240.762" y="427"/>
      <point x="269.863" y="451"/>
      <point x="276.027" y="480" type="curve" smooth="yes"/>
      <point x="282.404" y="510"/>
      <point x="263.505" y="534"/>
    </contour>
  </outline>
</glyph>
<glyph name="cent" format="2">
  <advance width="543"/>
  <unicode hex="00A2"/>
  <outline>
    <contour>
      <point x="457.651" y="243" type="line"/>
      <point x="418.598" y="191"/>
      <point x="394.41" y="176"/>
      <point x="348.985" y="174" type="curve"/>
      <point x="418.703" y="502" type="line"/>
      <point x="465.278" y="500"/>
      <point x="485.665" y="483"/>
      <point x="498.037" y="433" type="curve"/>
      <point x="565.264" y="467" type="line"/>
      <point x="547.868" y="531"/>
      <point x="511.181" y="556"/>
      <point x="430.394" y="557" type="curve"/>
      <point x="444.635" y="624" type="line"/>
      <point x="397.635" y="624" type="line"/>
      <point x="383.394" y="557" type="line"/>
      <point x="335.544" y="553"/>
      <point x="306.418" y="543"/>
      <point x="272.317" y="519" type="curve" smooth="yes"/>
      <point x="215.815" y="479"/>
      <point x="173.361" y="411"/>
      <point x="156.569" y="332" type="curve" smooth="yes"/>
      <point x="143.178" y="269"/>
      <point x="149.062" y="212"/>
      <point x="171.772" y="173" type="curve" smooth="yes"/>
      <point x="194.483" y="134"/>
      <point x="227.657" y="116"/>
      <point x="288.381" y="110" type="curve"/>
      <point x="269.889" y="23" type="line"/>
      <point x="316.889" y="23" type="line"/>
      <point x="335.381" y="110" type="line"/>
      <point x="409.231" y="114"/>
      <point x="462.608" y="144"/>
      <point x="509.999" y="207" type="curve"/>
    </contour>
    <contour>
      <point x="302.41" y="176" type="line"/>
      <point x="235.449" y="195"/>
      <point x="216.226" y="241"/>
      <point x="235.569" y="332" type="curve" smooth="yes"/>
      <point x="257.462" y="435"/>
      <point x="300.94" y="489"/>
      <point x="371.278" y="500" type="curve"/>
    </contour>
  </outline>
</glyph>
<glyph name="sterling" format="2">
  <advance width="543"/>
  <unicode hex="00A3"/>
  <outline>
    <contour>
      <point x="328.921" y="376" type="line"/>
      <point x="349.375" y="444" type="line" smooth="yes"/>
      <point x="368.341" y="505"/>
      <point x="381.505" y="534"/>
      <point x="403.244" y="561" type="curve" smooth="yes"/>
      <point x="432.321" y="599"/>
      <point x="468.36" y="618"/>
      <point x="511.36" y="618" type="curve" smooth="yes"/>
      <point x="551.36" y="618"/>
      <point x="575.809" y="606"/>
      <point x="599.795" y="573" type="curve"/>
      <point x="630.886" y="644" type="line"/>
      <point x="591.625" y="671"/>
      <point x="560.751" y="681"/>
      <point x="519.751" y="681" type="curve" smooth="yes"/>
      <point x="461.751" y="681"/>
      <point x="405.225" y="655"/>
      <point x="361.447" y="609" type="curve" smooth="yes"/>
      <point x="327.795" y="573"/>
      <point x="300.317" y="519"/>
      <point x="278.438" y="449" type="curve"/>
      <point x="256.921" y="376" type="line"/>
      <point x="170.921" y="376" type="line"/>
      <point x="157.53" y="313" type="line"/>
      <point x="239.53" y="313" type="line"/>
      <point x="181.381" y="110"/>
      <point x="153.092" y="71"/>
      <point x="56.3911" y="63" type="curve"/>
      <point x="43" y="0" type="line"/>
      <point x="471" y="0" type="line"/>
      <point x="484.391" y="63" type="line"/>
      <point x="186.391" y="63" type="line"/>
      <point x="238.893" y="103"/>
      <point x="263.734" y="154"/>
      <point x="311.53" y="313" type="curve"/>
      <point x="484.53" y="313" type="line"/>
      <point x="497.921" y="376" type="line"/>
    </contour>
  </outline>
</glyph>
<glyph name="currency" format="2">
  <advance width="500"/>
  <unicode hex="00A4"/>
  <outline>
    <contour>
      <point x="28" y="406" type="line"/>
      <point x="124" y="314" type="line"/>
      <point x="102" y="284"/>
      <point x="93" y="258"/>
      <point x="93" y="222" type="curve" smooth="yes"/>
      <point x="93" y="187"/>
      <point x="102" y="159"/>
      <point x="123" y="127" type="curve"/>
      <point x="28" y="35" type="line"/>
      <point x="58" y="0" type="line"/>
      <point x="153" y="97" type="line"/>
      <point x="189" y="73"/>
      <point x="216" y="64"/>
      <point x="252" y="64" type="curve" smooth="yes"/>
      <point x="288" y="64"/>
      <point x="315" y="73"/>
      <point x="345" y="95" type="curve"/>
      <point x="439" y="-2" type="line"/>
      <point x="471" y="29" type="line"/>
      <point x="375" y="126" type="line"/>
      <point x="398" y="157"/>
      <point x="407" y="185"/>
      <point x="407" y="220" type="curve" smooth="yes"/>
      <point x="407" y="256"/>
      <point x="398" y="284"/>
      <point x="375" y="314" type="curve"/>
      <point x="467" y="406" type="line"/>
      <point x="435" y="439" type="line"/>
      <point x="343" y="347" type="line"/>
      <point x="307" y="368"/>
      <point x="281" y="376"/>
      <point x="249" y="376" type="curve" smooth="yes"/>
      <point x="215" y="376"/>
      <point x="190" y="368"/>
      <point x="154" y="345" type="curve"/>
      <point x="61" y="439" type="line"/>
    </contour>
    <contour>
      <point x="251" y="340" type="curve" smooth="yes"/>
      <point x="317" y="340"/>
      <point x="371" y="286"/>
      <point x="371" y="221" type="curve" smooth="yes"/>
      <point x="371" y="153"/>
      <point x="318" y="99"/>
      <point x="252" y="99" type="curve" smooth="yes"/>
      <point x="183" y="99"/>
      <point x="129" y="153"/>
      <point x="129" y="222" type="curve" smooth="yes"/>
      <point x="129" y="287"/>
      <point x="184" y="340"/>
    </contour>
  </outline>
</glyph>
<glyph name="yen" format="2">
  <advance width="543"/>
  <unicode hex="00A5"/>
  <outline>
    <contour>
      <point x="260" y="0" type="line"/>
      <point x="309" y="234" type="line"/>
      <point x="502" y="234" type="line"/>
      <point x="510" y="273" type="line"/>
      <point x="319" y="273" type="line"/>
      <point x="329" y="319" type="line"/>
      <point x="365" y="361" type="line"/>
      <point x="529" y="361" type="line"/>
      <point x="537" y="400" type="line"/>
      <point x="399" y="400" type="line"/>
      <point x="619" y="667" type="line"/>
      <point x="530" y="667" type="line"/>
      <point x="301" y="388" type="line"/>
      <point x="196" y="667" type="line"/>
      <point x="113" y="667" type="line"/>
      <point x="215" y="400" type="line"/>
      <point x="80" y="400" type="line"/>
      <point x="72" y="361" type="line"/>
      <point x="232" y="361" type="line"/>
      <point x="247" y="319" type="line"/>
      <point x="238" y="273" type="line"/>
      <point x="53" y="273" type="line"/>
      <point x="45" y="234" type="line"/>
      <point x="230" y="234" type="line"/>
      <point x="181" y="0" type="line"/>
    </contour>
  </outline>
</glyph>
<glyph name="brokenbar" format="2">
  <advance width="543"/>
  <unicode hex="00A6"/>
  <outline>
    <contour>
      <point x="376.775" y="667" type="line"/>
      <point x="305.994" y="334" type="line"/>
      <point x="378.994" y="334" type="line"/>
      <point x="449.775" y="667" type="line"/>
    </contour>
    <contour>
      <point x="267.521" y="153" type="line"/>
      <point x="199.503" y="-167" type="line"/>
      <point x="272.503" y="-167" type="line"/>
      <point x="340.521" y="153" type="line"/>
    </contour>
  </outline>
</glyph>
<glyph name="section" format="2">
  <advance width="543"/>
  <unicode hex="00A7"/>
  <outline>
    <contour>
      <point x="585.945" y="569" type="line"/>
      <point x="577.51" y="614"/>
      <point x="564.973" y="635"/>
      <point x="535.012" y="654" type="curve" smooth="yes"/>
      <point x="507.838" y="672"/>
      <point x="472.751" y="681"/>
      <point x="429.751" y="681" type="curve" smooth="yes"/>
      <point x="362.751" y="681"/>
      <point x="306.075" y="659"/>
      <point x="265.147" y="617" type="curve" smooth="yes"/>
      <point x="238.196" y="589"/>
      <point x="218.331" y="552"/>
      <point x="210.892" y="517" type="curve" smooth="yes"/>
      <point x="204.94" y="489"/>
      <point x="206.689" y="469"/>
      <point x="216.824" y="432" type="curve"/>
      <point x="165.535" y="393"/>
      <point x="141.095" y="358"/>
      <point x="130.467" y="308" type="curve" smooth="yes"/>
      <point x="121.54" y="266"/>
      <point x="129.4" y="223"/>
      <point x="151.299" y="199" type="curve" smooth="yes"/>
      <point x="170.623" y="177"/>
      <point x="182.135" y="170"/>
      <point x="261.908" y="136" type="curve" smooth="yes"/>
      <point x="351.831" y="98"/>
      <point x="351.831" y="98"/>
      <point x="366.705" y="88" type="curve" smooth="yes"/>
      <point x="383.154" y="76"/>
      <point x="388.116" y="57"/>
      <point x="381.952" y="28" type="curve" smooth="yes"/>
      <point x="367.073" y="-42"/>
      <point x="306.87" y="-90"/>
      <point x="232.87" y="-90" type="curve" smooth="yes"/>
      <point x="190.87" y="-90"/>
      <point x="157.483" y="-73"/>
      <point x="140.86" y="-43" type="curve" smooth="yes"/>
      <point x="128.536" y="-21"/>
      <point x="126" y="0"/>
      <point x="126.203" y="48" type="curve"/>
      <point x="41.2753" y="6" type="line"/>
      <point x="42.4977" y="-40"/>
      <point x="47.8215" y="-62"/>
      <point x="63.7201" y="-86" type="curve" smooth="yes"/>
      <point x="90.5802" y="-129"/>
      <point x="148.479" y="-153"/>
      <point x="219.479" y="-153" type="curve" smooth="yes"/>
      <point x="339.479" y="-153"/>
      <point x="443.483" y="-73"/>
      <point x="467.077" y="38" type="curve" smooth="yes"/>
      <point x="475.154" y="76"/>
      <point x="470.831" y="98"/>
      <point x="449.12" y="137" type="curve"/>
      <point x="500.048" y="179"/>
      <point x="524.487" y="214"/>
      <point x="533.627" y="257" type="curve" smooth="yes"/>
      <point x="540.216" y="288"/>
      <point x="533.806" y="319"/>
      <point x="516.057" y="339" type="curve" smooth="yes"/>
      <point x="495.371" y="364"/>
      <point x="473.921" y="376"/>
      <point x="404.873" y="404" type="curve" smooth="yes"/>
      <point x="350.549" y="426"/>
      <point x="337.037" y="433"/>
      <point x="318.8" y="446" type="curve" smooth="yes"/>
      <point x="293.414" y="463"/>
      <point x="285.153" y="490"/>
      <point x="292.805" y="526" type="curve" smooth="yes"/>
      <point x="305.133" y="584"/>
      <point x="349.36" y="618"/>
      <point x="412.36" y="618" type="curve" smooth="yes"/>
      <point x="472.36" y="618"/>
      <point x="502.983" y="588"/>
      <point x="506.38" y="524" type="curve"/>
    </contour>
    <contour>
      <point x="368.473" y="181" type="line"/>
      <point x="266.825" y="225"/>
      <point x="264.038" y="226"/>
      <point x="246.163" y="236" type="curve" smooth="yes"/>
      <point x="210.202" y="255"/>
      <point x="196.579" y="285"/>
      <point x="204.868" y="324" type="curve" smooth="yes"/>
      <point x="209.757" y="347"/>
      <point x="221.371" y="364"/>
      <point x="247.472" y="388" type="curve"/>
      <point x="282.433" y="369"/>
      <point x="296.158" y="363"/>
      <point x="350.482" y="341" type="curve" smooth="yes"/>
      <point x="408.593" y="318"/>
      <point x="422.893" y="310"/>
      <point x="439.129" y="297" type="curve" smooth="yes"/>
      <point x="455.154" y="283"/>
      <point x="463.265" y="260"/>
      <point x="458.801" y="239" type="curve" smooth="yes"/>
      <point x="453.7" y="215"/>
      <point x="438.236" y="194"/>
      <point x="402.647" y="163" type="curve"/>
    </contour>
  </outline>
</glyph>
<glyph name="dieresis" format="2">
  <advance width="500"/>
  <unicode hex="00A8"/>
  <outline>
    <contour>
      <point x="255" y="662" type="curve" smooth="yes"/>
      <point x="225" y="662"/>
      <point x="201" y="638"/>
      <point x="201" y="608" type="curve" smooth="yes"/>
      <point x="201" y="583"/>
      <point x="218" y="566"/>
      <point x="243" y="566" type="curve" smooth="yes"/>
      <point x="274" y="566"/>
      <point x="298" y="589"/>
      <point x="298" y="621" type="curve" smooth="yes"/>
      <point x="298" y="645"/>
      <point x="281" y="662"/>
    </contour>
    <contour>
      <point x="427" y="662" type="curve" smooth="yes"/>
      <point x="396" y="662"/>
      <point x="372" y="638"/>
      <point x="372" y="608" type="curve" smooth="yes"/>
      <point x="372" y="583"/>
      <point x="389" y="566"/>
      <point x="415" y="566" type="curve" smooth="yes"/>
      <point x="446" y="566"/>
      <point x="470" y="590"/>
      <point x="470" y="620" type="curve" smooth="yes"/>
      <point x="470" y="645"/>
      <point x="453" y="662"/>
    </contour>
  </outline>
</glyph>
<glyph name="copyright" format="2">
  <advance width="757"/>
  <unicode hex="00A9"/>
  <outline>
    <contour>
      <point x="574" y="473" type="line"/>
      <point x="531" y="524"/>
      <point x="488" y="543"/>
      <point x="417" y="543" type="curve" smooth="yes"/>
      <point x="289" y="543"/>
      <point x="204" y="458"/>
      <point x="204" y="330" type="curve" smooth="yes"/>
      <point x="204" y="201"/>
      <point x="283" y="124"/>
      <point x="414" y="124" type="curve" smooth="yes"/>
      <point x="488" y="124"/>
      <point x="530" y="143"/>
      <point x="574" y="194" type="curve"/>
      <point x="528" y="236" type="line"/>
      <point x="502" y="191"/>
      <point x="473" y="174"/>
      <point x="417" y="174" type="curve" smooth="yes"/>
      <point x="376" y="174"/>
      <point x="332" y="191"/>
      <point x="308" y="215" type="curve" smooth="yes"/>
      <point x="285" y="239"/>
      <point x="271" y="283"/>
      <point x="271" y="330" type="curve" smooth="yes"/>
      <point x="271" y="430"/>
      <point x="328" y="493"/>
      <point x="418" y="493" type="curve" smooth="yes"/>
      <point x="472" y="493"/>
      <point x="503" y="475"/>
      <point x="528" y="431" type="curve"/>
    </contour>
    <contour>
      <point x="410" y="680" type="curve" smooth="yes"/>
      <point x="215" y="680"/>
      <point x="60" y="527"/>
      <point x="60" y="333" type="curve" smooth="yes"/>
      <point x="60" y="143"/>
      <point x="216" y="-13"/>
      <point x="406" y="-13" type="curve" smooth="yes"/>
      <point x="596" y="-13"/>
      <point x="751" y="142"/>
      <point x="751" y="333" type="curve" smooth="yes"/>
      <point x="751" y="523"/>
      <point x="597" y="680"/>
    </contour>
    <contour>
      <point x="409" y="622" type="curve" smooth="yes"/>
      <point x="562" y="622"/>
      <point x="688" y="491"/>
      <point x="688" y="334" type="curve" smooth="yes"/>
      <point x="688" y="175"/>
      <point x="561" y="46"/>
      <point x="406" y="46" type="curve" smooth="yes"/>
      <point x="251" y="46"/>
      <point x="123" y="176"/>
      <point x="123" y="333" type="curve" smooth="yes"/>
      <point x="123" y="495"/>
      <point x="249" y="622"/>
    </contour>
  </outline>
</glyph>
<glyph name="ordfeminine" format="2">
  <advance width="353"/>
  <unicode hex="00AA"/>
  <outline>
    <contour>
      <point x="437.775" y="667" type="line"/>
      <point x="378.775" y="667" type="line"/>
      <point x="373.036" y="640" type="line"/>
      <point x="354.712" y="662"/>
      <point x="330.051" y="673" name="hr01"/>
      <point x="299.051" y="673" type="curve" smooth="yes"/>
      <point x="227.051" y="673"/>
      <point x="161.51" y="614"/>
      <point x="144.293" y="533" type="curve" smooth="yes"/>
      <point x="127.288" y="453"/>
      <point x="167.747" y="394"/>
      <point x="239.747" y="394" type="curve" smooth="yes"/>
      <point x="270.747" y="394"/>
      <point x="300.085" y="405"/>
      <point x="327.762" y="427" type="curve"/>
      <point x="329.023" y="400" type="line"/>
      <point x="381.023" y="400" type="line"/>
    </contour>
    <contour>
      <point x="297.698" y="629" type="curve" smooth="yes"/>
      <point x="342.698" y="629"/>
      <point x="365.621" y="591"/>
      <point x="353.505" y="534" type="curve" smooth="yes"/>
      <point x="341.177" y="476"/>
      <point x="302.1" y="438"/>
      <point x="257.1" y="438" type="curve" smooth="yes"/>
      <point x="210.1" y="438"/>
      <point x="188.177" y="476"/>
      <point x="200.718" y="535" type="curve" smooth="yes"/>
      <point x="212.621" y="591"/>
      <point x="251.698" y="629"/>
    </contour>
  </outline>
</glyph>
<glyph name="guillemotleft" format="2">
  <advance width="375"/>
  <unicode hex="00AB"/>
  <outline>
    <contour>
      <point x="110" y="14" type="line"/>
      <point x="141" y="14" type="line"/>
      <point x="126" y="222" type="line"/>
      <point x="228" y="426" type="line"/>
      <point x="198" y="426" type="line"/>
      <point x="44" y="222" type="line"/>
    </contour>
    <contour>
      <point x="251" y="14" type="line"/>
      <point x="282" y="14" type="line"/>
      <point x="266" y="222" type="line"/>
      <point x="369" y="426" type="line"/>
      <point x="338" y="426" type="line"/>
      <point x="184" y="222" type="line"/>
    </contour>
  </outline>
</glyph>
<glyph name="logicalnot" format="2">
  <advance width="533"/>
  <unicode hex="00AC"/>
  <outline>
    <contour>
      <point x="78.9553" y="315" type="line"/>
      <point x="69.6028" y="271" type="line"/>
      <point x="512.603" y="271" type="line"/>
      <point x="465.203" y="48" type="line"/>
      <point x="512.203" y="48" type="line"/>
      <point x="568.955" y="315" type="line"/>
    </contour>
  </outline>
</glyph>
<glyph name="registered" format="2">
  <advance width="757"/>
  <unicode hex="00AE"/>
  <outline>
    <contour>
      <point x="287" y="132" type="line"/>
      <point x="349" y="132" type="line"/>
      <point x="349" y="310" type="line"/>
      <point x="385" y="310" type="line"/>
      <point x="493" y="132" type="line"/>
      <point x="562" y="132" type="line"/>
      <point x="448" y="319" type="line"/>
      <point x="500" y="337"/>
      <point x="531" y="379"/>
      <point x="531" y="431" type="curve" smooth="yes"/>
      <point x="531" y="475"/>
      <point x="509" y="510"/>
      <point x="474" y="525" type="curve"/>
      <point x="455" y="532"/>
      <point x="433" y="535"/>
      <point x="389" y="535" type="curve" smooth="yes"/>
      <point x="287" y="535" type="line"/>
    </contour>
    <contour>
      <point x="349" y="360" type="line"/>
      <point x="349" y="485" type="line"/>
      <point x="378" y="485" type="line" smooth="yes"/>
      <point x="413" y="485"/>
      <point x="413" y="485"/>
      <point x="421" y="484" type="curve" smooth="yes"/>
      <point x="449" y="482"/>
      <point x="465" y="463"/>
      <point x="465" y="431" type="curve" smooth="yes"/>
      <point x="465" y="381"/>
      <point x="439" y="360"/>
      <point x="379" y="360" type="curve" smooth="yes"/>
    </contour>
    <contour>
      <point x="410" y="680" type="curve" smooth="yes"/>
      <point x="215" y="680"/>
      <point x="60" y="527"/>
      <point x="60" y="333" type="curve" smooth="yes"/>
      <point x="60" y="143"/>
      <point x="216" y="-13"/>
      <point x="406" y="-13" type="curve" smooth="yes"/>
      <point x="596" y="-13"/>
      <point x="751" y="142"/>
      <point x="751" y="333" type="curve" smooth="yes"/>
      <point x="751" y="523"/>
      <point x="597" y="680"/>
    </contour>
    <contour>
      <point x="409" y="622" type="curve" smooth="yes"/>
      <point x="562" y="622"/>
      <point x="688" y="491"/>
      <point x="688" y="334" type="curve" smooth="yes"/>
      <point x="688" y="175"/>
      <point x="561" y="46"/>
      <point x="406" y="46" type="curve" smooth="yes"/>
      <point x="251" y="46"/>
      <point x="123" y="176"/>
      <point x="123" y="333" type="curve" smooth="yes"/>
      <point x="123" y="495"/>
      <point x="249" y="622"/>
    </contour>
  </outline>
</glyph>
<glyph name="macron" format="2">
  <advance width="500"/>
  <unicode hex="00AF"/>
  <unicode hex="02C9"/>
  <outline>
    <contour>
      <point x="213" y="630" type="line"/>
      <point x="203" y="585" type="line"/>
      <point x="455" y="585" type="line"/>
      <point x="465" y="630" type="line"/>
    </contour>
  </outline>
</glyph>
<glyph name="degree" format="2">
  <advance width="361"/>
  <unicode hex="00B0"/>
  <outline>
    <contour>
      <point x="248" y="680" type="curve" smooth="yes"/>
      <point x="168" y="680"/>
      <point x="101" y="615"/>
      <point x="101" y="537" type="curve" smooth="yes"/>
      <point x="101" y="456"/>
      <point x="166" y="391"/>
      <point x="248" y="391" type="curve" smooth="yes"/>
      <point x="329" y="391"/>
      <point x="395" y="456"/>
      <point x="395" y="536" type="curve" smooth="yes"/>
      <point x="395" y="615"/>
      <point x="329" y="680"/>
    </contour>
    <contour>
      <point x="248" y="623" type="curve" smooth="yes"/>
      <point x="296" y="623"/>
      <point x="335" y="584"/>
      <point x="335" y="536" type="curve" smooth="yes"/>
      <point x="335" y="488"/>
      <point x="295" y="448"/>
      <point x="248" y="448" type="curve" smooth="yes"/>
      <point x="200" y="448"/>
      <point x="161" y="487"/>
      <point x="161" y="536" type="curve" smooth="yes"/>
      <point x="161" y="583"/>
      <point x="201" y="623"/>
    </contour>
  </outline>
</glyph>
<glyph name="plusminus" format="2">
  <advance width="527"/>
  <unicode hex="00B1"/>
  <outline>
    <contour>
      <point x="66.4802" y="343" type="line"/>
      <point x="59.4271" y="303" type="line"/>
      <point x="286.427" y="303" type="line"/>
      <point x="246.225" y="75" type="line"/>
      <point x="286.225" y="75" type="line"/>
      <point x="326.427" y="303" type="line"/>
      <point x="552.427" y="303" type="line"/>
      <point x="559.48" y="343" type="line"/>
      <point x="333.48" y="343" type="line"/>
      <point x="372.625" y="565" type="line"/>
      <point x="332.625" y="565" type="line"/>
      <point x="293.48" y="343" type="line"/>
    </contour>
    <contour>
      <point x="13.0531" y="40" type="line"/>
      <point x="6" y="0" type="line"/>
      <point x="499" y="0" type="line"/>
      <point x="506.053" y="40" type="line"/>
    </contour>
  </outline>
</glyph>
<glyph name="twosuperior" format="2">
  <advance width="353"/>
  <unicode hex="00B2"/>
  <outline>
    <contour>
      <point x="64" y="267" type="line"/>
      <point x="318" y="267" type="line"/>
      <point x="328" y="313" type="line"/>
      <point x="148" y="313" type="line"/>
      <point x="265" y="425" type="line" smooth="yes"/>
      <point x="322" y="479"/>
      <point x="322" y="479"/>
      <point x="340" y="501" type="curve" smooth="yes"/>
      <point x="364" y="531"/>
      <point x="377" y="561"/>
      <point x="377" y="589" type="curve" smooth="yes"/>
      <point x="377" y="641"/>
      <point x="335" y="675"/>
      <point x="271" y="675" type="curve" smooth="yes"/>
      <point x="208" y="675"/>
      <point x="163" y="643"/>
      <point x="142" y="585" type="curve"/>
      <point x="187" y="554" type="line"/>
      <point x="200" y="607"/>
      <point x="225" y="633"/>
      <point x="264" y="633" type="curve" smooth="yes"/>
      <point x="297" y="633"/>
      <point x="320" y="611"/>
      <point x="320" y="581" type="curve" smooth="yes"/>
      <point x="320" y="547"/>
      <point x="298" y="516"/>
      <point x="228" y="451" type="curve" smooth="yes"/>
      <point x="72" y="305" type="line"/>
    </contour>
  </outline>
</glyph>
<glyph name="threesuperior" format="2">
  <advance width="353"/>
  <unicode hex="00B3"/>
  <outline>
    <contour>
      <point x="215.926" y="456" type="line"/>
      <point x="231.563" y="459"/>
      <point x="248.989" y="461"/>
      <point x="256.989" y="461" type="curve" smooth="yes"/>
      <point x="301.989" y="461"/>
      <point x="324.037" y="433"/>
      <point x="314.259" y="387" type="curve" smooth="yes"/>
      <point x="303.632" y="337"/>
      <point x="267.83" y="305"/>
      <point x="221.83" y="305" type="curve" smooth="yes"/>
      <point x="185.83" y="305"/>
      <point x="167.806" y="319"/>
      <point x="152.308" y="359" type="curve"/>
      <point x="99.2934" y="326" type="line"/>
      <point x="129.666" y="276"/>
      <point x="157.052" y="259"/>
      <point x="209.052" y="259" type="curve" smooth="yes"/>
      <point x="289.052" y="259"/>
      <point x="356.743" y="314"/>
      <point x="373.535" y="393" type="curve" smooth="yes"/>
      <point x="384.375" y="444"/>
      <point x="363.815" y="479"/>
      <point x="316.578" y="492" type="curve"/>
      <point x="356.829" y="512"/>
      <point x="382.418" y="543"/>
      <point x="390.495" y="581" type="curve" smooth="yes"/>
      <point x="402.399" y="637"/>
      <point x="367.476" y="675"/>
      <point x="303.476" y="675" type="curve" smooth="yes"/>
      <point x="254.476" y="675"/>
      <point x="220.437" y="656"/>
      <point x="185.447" y="609" type="curve"/>
      <point x="226.708" y="582" type="line"/>
      <point x="248.785" y="620"/>
      <point x="266.336" y="632"/>
      <point x="294.336" y="632" type="curve" smooth="yes"/>
      <point x="325.336" y="632"/>
      <point x="339.297" y="613"/>
      <point x="332.07" y="579" type="curve" smooth="yes"/>
      <point x="323.143" y="537"/>
      <point x="287.404" y="510"/>
      <point x="241.404" y="510" type="curve" smooth="yes"/>
      <point x="227.404" y="510" type="line"/>
    </contour>
  </outline>
</glyph>
<glyph name="acute" format="2">
  <advance width="500"/>
  <unicode hex="00B4"/>
  <outline>
    <contour>
      <point x="487.79" y="700" type="line"/>
      <point x="316.355" y="538" type="line"/>
      <point x="350.08" y="532" type="line"/>
      <point x="563.389" y="684" type="line"/>
    </contour>
  </outline>
</glyph>
<glyph name="micro" format="2">
  <advance width="583"/>
  <unicode hex="00B5"/>
  <outline>
    <contour>
      <point x="157" y="438" type="line"/>
      <point x="81" y="50" type="line"/>
      <point x="64" y="-30"/>
      <point x="38" y="-128"/>
      <point x="21" y="-173" type="curve"/>
      <point x="92" y="-173" type="line"/>
      <point x="135" y="39" type="line"/>
      <point x="157" y="7"/>
      <point x="187" y="-7"/>
      <point x="232" y="-7" type="curve" smooth="yes"/>
      <point x="281" y="-7"/>
      <point x="313" y="7"/>
      <point x="365" y="50" type="curve"/>
      <point x="354" y="0" type="line"/>
      <point x="418" y="0" type="line"/>
      <point x="511" y="438" type="line"/>
      <point x="447" y="438" type="line"/>
      <point x="395" y="194" type="line" smooth="yes"/>
      <point x="383" y="137"/>
      <point x="371" y="110"/>
      <point x="345" y="88" type="curve" smooth="yes"/>
      <point x="319" y="65"/>
      <point x="284" y="52"/>
      <point x="245" y="52" type="curve" smooth="yes"/>
      <point x="192" y="52"/>
      <point x="159" y="78"/>
      <point x="159" y="118" type="curve" smooth="yes"/>
      <point x="159" y="133"/>
      <point x="162" y="156"/>
      <point x="167" y="181" type="curve" smooth="yes"/>
      <point x="223" y="438" type="line"/>
    </contour>
  </outline>
</glyph>
<glyph name="paragraph" format="2">
  <advance width="500"/>
  <unicode hex="00B6"/>
  <outline>
    <contour>
      <point x="493.635" y="624" type="line"/>
      <point x="342.72" y="-86" type="line"/>
      <point x="384.72" y="-86" type="line"/>
      <point x="536.698" y="629" type="line"/>
      <point x="617.186" y="636" type="line"/>
      <point x="623.775" y="667" type="line"/>
      <point x="376.775" y="667" type="line" smooth="yes"/>
      <point x="303.775" y="667"/>
      <point x="265.287" y="660"/>
      <point x="229.249" y="641" type="curve" smooth="yes"/>
      <point x="181.722" y="615"/>
      <point x="143.244" y="561"/>
      <point x="130.278" y="500" type="curve" smooth="yes"/>
      <point x="116.675" y="436"/>
      <point x="133.834" y="385"/>
      <point x="179.395" y="350" type="curve" smooth="yes"/>
      <point x="213.656" y="323"/>
      <point x="243.53" y="313"/>
      <point x="311.042" y="306" type="curve"/>
      <point x="227.72" y="-86" type="line"/>
      <point x="269.72" y="-86" type="line"/>
      <point x="418.935" y="616" type="line"/>
    </contour>
  </outline>
</glyph>
<glyph name="periodcentered" format="2">
  <advance width="225"/>
  <unicode hex="00B7"/>
  <unicode hex="2219"/>
  <outline>
    <contour>
      <point x="121" y="281" type="curve" smooth="yes"/>
      <point x="88" y="281"/>
      <point x="61" y="255"/>
      <point x="61" y="222" type="curve" smooth="yes"/>
      <point x="61" y="194"/>
      <point x="79" y="176"/>
      <point x="107" y="176" type="curve" smooth="yes"/>
      <point x="142" y="176"/>
      <point x="168" y="202"/>
      <point x="168" y="236" type="curve" smooth="yes"/>
      <point x="168" y="263"/>
      <point x="149" y="281"/>
    </contour>
  </outline>
</glyph>
<glyph name="cedilla" format="2">
  <advance width="500"/>
  <unicode hex="00B8"/>
  <outline>
    <contour>
      <point x="141" y="-179" type="line"/>
      <point x="212" y="-141"/>
      <point x="240" y="-108"/>
      <point x="240" y="-65" type="curve" smooth="yes"/>
      <point x="240" y="-43"/>
      <point x="232" y="-28"/>
      <point x="212" y="-10" type="curve"/>
      <point x="150" y="-52" type="line"/>
      <point x="170" y="-67"/>
      <point x="178" y="-79"/>
      <point x="178" y="-97" type="curve" smooth="yes"/>
      <point x="178" y="-123"/>
      <point x="159" y="-143"/>
      <point x="115" y="-165" type="curve"/>
    </contour>
  </outline>
</glyph>
<glyph name="onesuperior" format="2">
  <advance width="353"/>
  <unicode hex="00B9"/>
  <outline>
    <contour>
      <point x="384.775" y="667" type="line"/>
      <point x="351.775" y="667" type="line"/>
      <point x="318.21" y="622"/>
      <point x="291.66" y="610"/>
      <point x="210.384" y="604" type="curve"/>
      <point x="204.007" y="574" type="line"/>
      <point x="309.858" y="578" type="line"/>
      <point x="243.753" y="267" type="line"/>
      <point x="299.753" y="267" type="line"/>
    </contour>
  </outline>
</glyph>
<glyph name="ordmasculine" format="2">
  <advance width="374"/>
  <unicode hex="00BA"/>
  <outline>
    <contour>
      <point x="278" y="673" type="curve" smooth="yes"/>
      <point x="236" y="673"/>
      <point x="201" y="660"/>
      <point x="173" y="634" type="curve" smooth="yes"/>
      <point x="140" y="604"/>
      <point x="117" y="548"/>
      <point x="117" y="499" type="curve" smooth="yes"/>
      <point x="117" y="430"/>
      <point x="157" y="394"/>
      <point x="231" y="394" type="curve" smooth="yes"/>
      <point x="276" y="394"/>
      <point x="313" y="409"/>
      <point x="341" y="437" type="curve" smooth="yes"/>
      <point x="372" y="469"/>
      <point x="392" y="522"/>
      <point x="392" y="572" type="curve" smooth="yes"/>
      <point x="392" y="636"/>
      <point x="351" y="673"/>
    </contour>
    <contour>
      <point x="275" y="633" type="curve" smooth="yes"/>
      <point x="312" y="633"/>
      <point x="336" y="609"/>
      <point x="336" y="570" type="curve" smooth="yes"/>
      <point x="336" y="494"/>
      <point x="291" y="434"/>
      <point x="233" y="434" type="curve" smooth="yes"/>
      <point x="195" y="434"/>
      <point x="173" y="458"/>
      <point x="173" y="499" type="curve" smooth="yes"/>
      <point x="173" y="527"/>
      <point x="186" y="570"/>
      <point x="202" y="592" type="curve" smooth="yes"/>
      <point x="221" y="619"/>
      <point x="246" y="633"/>
    </contour>
  </outline>
</glyph>
<glyph name="guillemotright" format="2">
  <advance width="398"/>
  <unicode hex="00BB"/>
  <outline>
    <contour>
      <point x="143.525" y="440" type="line"/>
      <point x="163.337" y="218" type="line"/>
      <point x="55" y="0" type="line"/>
      <point x="86" y="0" type="line"/>
      <point x="248.337" y="218" type="line"/>
      <point x="179.525" y="440" type="line"/>
    </contour>
    <contour>
      <point x="296.525" y="440" type="line"/>
      <point x="316.337" y="218" type="line"/>
      <point x="208" y="0" type="line"/>
      <point x="239" y="0" type="line"/>
      <point x="401.337" y="218" type="line"/>
      <point x="332.525" y="440" type="line"/>
    </contour>
  </outline>
</glyph>
<glyph name="onequarter" format="2">
  <advance width="853"/>
  <unicode hex="00BC"/>
  <outline>
    <contour>
      <point x="384.775" y="667" type="line"/>
      <point x="351.775" y="667" type="line"/>
      <point x="318.21" y="622"/>
      <point x="291.66" y="610"/>
      <point x="210.384" y="604" type="curve"/>
      <point x="204.007" y="574" type="line"/>
      <point x="309.858" y="578" type="line"/>
      <point x="243.753" y="267" type="line"/>
      <point x="299.753" y="267" type="line"/>
    </contour>
    <contour>
      <point x="813.2" y="669" type="line"/>
      <point x="766.901" y="677" type="line"/>
      <point x="181.787" y="-1" type="line"/>
      <point x="229.874" y="-10" type="line"/>
    </contour>
    <contour>
      <point x="848.023" y="400" type="line"/>
      <point x="787.023" y="400" type="line"/>
      <point x="557.632" y="130" type="line"/>
      <point x="548.705" y="88" type="line"/>
      <point x="729.705" y="88" type="line"/>
      <point x="711" y="0" type="line"/>
      <point x="763" y="0" type="line"/>
      <point x="781.705" y="88" type="line"/>
      <point x="838.705" y="88" type="line"/>
      <point x="848.057" y="132" type="line"/>
      <point x="791.057" y="132" type="line"/>
    </contour>
    <contour>
      <point x="781.144" y="330" type="line"/>
      <point x="739.057" y="132" type="line"/>
      <point x="619.057" y="132" type="line"/>
    </contour>
  </outline>
</glyph>
<glyph name="onehalf" format="2">
  <advance width="853"/>
  <unicode hex="00BD"/>
  <outline>
    <contour>
      <point x="384.775" y="667" type="line"/>
      <point x="351.775" y="667" type="line"/>
      <point x="318.21" y="622"/>
      <point x="291.66" y="610"/>
      <point x="210.384" y="604" type="curve"/>
      <point x="204.007" y="574" type="line"/>
      <point x="309.858" y="578" type="line"/>
      <point x="243.753" y="267" type="line"/>
      <point x="299.753" y="267" type="line"/>
    </contour>
    <contour>
      <point x="813.2" y="669" type="line"/>
      <point x="766.901" y="677" type="line"/>
      <point x="181.787" y="-1" type="line"/>
      <point x="229.874" y="-10" type="line"/>
    </contour>
    <contour>
      <point x="808.352" y="44" type="line"/>
      <point x="633.352" y="44" type="line"/>
      <point x="790.11" y="184"/>
      <point x="835.801" y="239"/>
      <point x="849.617" y="304" type="curve" smooth="yes"/>
      <point x="863.646" y="370"/>
      <point x="828.723" y="408"/>
      <point x="754.723" y="408" type="curve" smooth="yes"/>
      <point x="695.723" y="408"/>
      <point x="661.834" y="385"/>
      <point x="622.38" y="317" type="curve"/>
      <point x="665.579" y="285" type="line"/>
      <point x="683.269" y="340"/>
      <point x="707.371" y="364"/>
      <point x="746.371" y="364" type="curve" smooth="yes"/>
      <point x="782.371" y="364"/>
      <point x="799.482" y="341"/>
      <point x="791.405" y="303" type="curve" smooth="yes"/>
      <point x="782.265" y="260"/>
      <point x="756.337" y="218"/>
      <point x="707.497" y="167" type="curve" smooth="yes"/>
      <point x="676.695" y="135"/>
      <point x="646.956" y="108"/>
      <point x="561.865" y="37" type="curve"/>
      <point x="554" y="0" type="line"/>
      <point x="799" y="0" type="line"/>
    </contour>
  </outline>
</glyph>
<glyph name="threequarters" format="2">
  <advance width="853"/>
  <unicode hex="00BE"/>
  <outline>
    <contour>
      <point x="215.926" y="456" type="line"/>
      <point x="231.563" y="459"/>
      <point x="248.989" y="461"/>
      <point x="256.989" y="461" type="curve" smooth="yes"/>
      <point x="301.989" y="461"/>
      <point x="324.037" y="433"/>
      <point x="314.259" y="387" type="curve" smooth="yes"/>
      <point x="303.632" y="337"/>
      <point x="267.83" y="305"/>
      <point x="221.83" y="305" type="curve" smooth="yes"/>
      <point x="185.83" y="305"/>
      <point x="167.806" y="319"/>
      <point x="152.308" y="359" type="curve"/>
      <point x="99.2934" y="326" type="line"/>
      <point x="129.666" y="276"/>
      <point x="157.052" y="259"/>
      <point x="209.052" y="259" type="curve" smooth="yes"/>
      <point x="289.052" y="259"/>
      <point x="356.743" y="314"/>
      <point x="373.535" y="393" type="curve" smooth="yes"/>
      <point x="384.375" y="444"/>
      <point x="363.815" y="479"/>
      <point x="316.578" y="492" type="curve"/>
      <point x="356.829" y="512"/>
      <point x="382.418" y="543"/>
      <point x="390.495" y="581" type="curve" smooth="yes"/>
      <point x="402.399" y="637"/>
      <point x="367.476" y="675"/>
      <point x="303.476" y="675" type="curve" smooth="yes"/>
      <point x="254.476" y="675"/>
      <point x="220.437" y="656"/>
      <point x="185.447" y="609" type="curve"/>
      <point x="226.708" y="582" type="line"/>
      <point x="248.785" y="620"/>
      <point x="266.336" y="632"/>
      <point x="294.336" y="632" type="curve" smooth="yes"/>
      <point x="325.336" y="632"/>
      <point x="339.297" y="613"/>
      <point x="332.07" y="579" type="curve" smooth="yes"/>
      <point x="323.143" y="537"/>
      <point x="287.404" y="510"/>
      <point x="241.404" y="510" type="curve" smooth="yes"/>
      <point x="227.404" y="510" type="line"/>
    </contour>
    <contour>
      <point x="813.2" y="669" type="line"/>
      <point x="766.901" y="677" type="line"/>
      <point x="181.787" y="-1" type="line"/>
      <point x="229.874" y="-10" type="line"/>
    </contour>
    <contour>
      <point x="849.023" y="400" type="line"/>
      <point x="788.023" y="400" type="line"/>
      <point x="558.632" y="130" type="line"/>
      <point x="549.705" y="88" type="line"/>
      <point x="730.705" y="88" type="line"/>
      <point x="712" y="0" type="line"/>
      <point x="764" y="0" type="line"/>
      <point x="782.705" y="88" type="line"/>
      <point x="839.705" y="88" type="line"/>
      <point x="849.057" y="132" type="line"/>
      <point x="792.057" y="132" type="line"/>
    </contour>
    <contour>
      <point x="782.144" y="330" type="line"/>
      <point x="740.057" y="132" type="line"/>
      <point x="620.057" y="132" type="line"/>
    </contour>
  </outline>
</glyph>
<glyph name="questiondown" format="2">
  <advance width="337"/>
  <unicode hex="00BF"/>
  <outline>
    <contour>
      <point x="156" y="257" type="line"/>
      <point x="170" y="233"/>
      <point x="175" y="218"/>
      <point x="175" y="197" type="curve" smooth="yes"/>
      <point x="175" y="154"/>
      <point x="153" y="123"/>
      <point x="77" y="56" type="curve" smooth="yes"/>
      <point x="23" y="8"/>
      <point x="16" y="2"/>
      <point x="-2" y="-21" type="curve" smooth="yes"/>
      <point x="-30" y="-56"/>
      <point x="-45" y="-92"/>
      <point x="-45" y="-127" type="curve" smooth="yes"/>
      <point x="-45" y="-198"/>
      <point x="8" y="-244"/>
      <point x="89" y="-244" type="curve" smooth="yes"/>
      <point x="167" y="-244"/>
      <point x="219" y="-206"/>
      <point x="242" y="-132" type="curve"/>
      <point x="177" y="-99" type="line"/>
      <point x="165" y="-158"/>
      <point x="140" y="-184"/>
      <point x="95" y="-184" type="curve" smooth="yes"/>
      <point x="55" y="-184"/>
      <point x="25" y="-155"/>
      <point x="25" y="-115" type="curve" smooth="yes"/>
      <point x="25" y="-71"/>
      <point x="51" y="-35"/>
      <point x="134" y="35" type="curve" smooth="yes"/>
      <point x="181" y="75"/>
      <point x="192" y="85"/>
      <point x="208" y="104" type="curve" smooth="yes"/>
      <point x="228" y="130"/>
      <point x="240" y="162"/>
      <point x="240" y="191" type="curve" smooth="yes"/>
      <point x="240" y="215"/>
      <point x="234" y="234"/>
      <point x="216" y="267" type="curve"/>
    </contour>
    <contour>
      <point x="230" y="449" type="curve" smooth="yes"/>
      <point x="195" y="449"/>
      <point x="169" y="423"/>
      <point x="169" y="389" type="curve" smooth="yes"/>
      <point x="169" y="362"/>
      <point x="188" y="344"/>
      <point x="216" y="344" type="curve" smooth="yes"/>
      <point x="250" y="344"/>
      <point x="276" y="370"/>
      <point x="276" y="403" type="curve" smooth="yes"/>
      <point x="276" y="431"/>
      <point x="258" y="449"/>
    </contour>
  </outline>
</glyph>
<glyph name="Agrave" format="2">
  <advance width="599"/>
  <unicode hex="00C0"/>
  <outline>
    <contour>
      <point x="478.775" y="667" type="line"/>
      <point x="404.775" y="667" type="line"/>
      <point x="-3" y="0" type="line"/>
      <point x="83" y="0" type="line"/>
      <point x="208.912" y="216" type="line"/>
      <point x="479.912" y="216" type="line"/>
      <point x="517" y="0" type="line"/>
      <point x="603" y="0" type="line"/>
    </contour>
    <contour>
      <point x="467.728" y="281" type="line"/>
      <point x="248.728" y="281" type="line"/>
      <point x="417.945" y="569" type="line"/>
    </contour>
    <contour>
      <point x="394.05" y="880" type="line"/>
      <point x="311.649" y="864" type="line"/>
      <point x="461.34" y="712" type="line"/>
      <point x="496.616" y="718" type="line"/>
    </contour>
  </outline>
</glyph>
<glyph name="Aacute" format="2">
  <advance width="599"/>
  <unicode hex="00C1"/>
  <outline>
    <contour>
      <point x="478.775" y="667" type="line"/>
      <point x="404.775" y="667" type="line"/>
      <point x="-3" y="0" type="line"/>
      <point x="83" y="0" type="line"/>
      <point x="208.912" y="216" type="line"/>
      <point x="479.912" y="216" type="line"/>
      <point x="517" y="0" type="line"/>
      <point x="603" y="0" type="line"/>
    </contour>
    <contour>
      <point x="467.728" y="281" type="line"/>
      <point x="248.728" y="281" type="line"/>
      <point x="417.945" y="569" type="line"/>
    </contour>
    <contour>
      <point x="576.05" y="880" type="line"/>
      <point x="404.616" y="718" type="line"/>
      <point x="438.34" y="712" type="line"/>
      <point x="651.649" y="864" type="line"/>
    </contour>
  </outline>
</glyph>
<glyph name="Acircumflex" format="2">
  <advance width="599"/>
  <unicode hex="00C2"/>
  <outline>
    <contour>
      <point x="478.775" y="667" type="line"/>
      <point x="404.775" y="667" type="line"/>
      <point x="-3" y="0" type="line"/>
      <point x="83" y="0" type="line"/>
      <point x="208.912" y="216" type="line"/>
      <point x="479.912" y="216" type="line"/>
      <point x="517" y="0" type="line"/>
      <point x="603" y="0" type="line"/>
    </contour>
    <contour>
      <point x="467.728" y="281" type="line"/>
      <point x="248.728" y="281" type="line"/>
      <point x="417.945" y="569" type="line"/>
    </contour>
    <contour>
      <point x="514.625" y="878" type="line"/>
      <point x="458.625" y="878" type="line"/>
      <point x="292.828" y="719" type="line"/>
      <point x="323.553" y="713" type="line"/>
      <point x="476.209" y="829" type="line"/>
      <point x="581.553" y="713" type="line"/>
      <point x="612.828" y="719" type="line"/>
    </contour>
  </outline>
</glyph>
<glyph name="Atilde" format="2">
  <advance width="599"/>
  <unicode hex="00C3"/>
  <outline>
    <contour>
      <point x="478.775" y="667" type="line"/>
      <point x="404.775" y="667" type="line"/>
      <point x="-3" y="0" type="line"/>
      <point x="83" y="0" type="line"/>
      <point x="208.912" y="216" type="line"/>
      <point x="479.912" y="216" type="line"/>
      <point x="517" y="0" type="line"/>
      <point x="603" y="0" type="line"/>
    </contour>
    <contour>
      <point x="467.728" y="281" type="line"/>
      <point x="248.728" y="281" type="line"/>
      <point x="417.945" y="569" type="line"/>
    </contour>
    <contour>
      <point x="618.485" y="835" type="line"/>
      <point x="591.683" y="803"/>
      <point x="577.77" y="794"/>
      <point x="557.77" y="794" type="curve" smooth="yes"/>
      <point x="544.77" y="794"/>
      <point x="523.258" y="801"/>
      <point x="494.234" y="815" type="curve" smooth="yes"/>
      <point x="454.485" y="835"/>
      <point x="446.91" y="837" name="hr01"/>
      <point x="427.91" y="837" type="curve" smooth="yes"/>
      <point x="398.91" y="837"/>
      <point x="374.721" y="822"/>
      <point x="305.756" y="761" type="curve"/>
      <point x="320.142" y="744" type="line" name="hr02"/>
      <point x="364.582" y="779"/>
      <point x="383.707" y="789" name="hr03"/>
      <point x="405.707" y="789" type="curve" smooth="yes"/>
      <point x="419.707" y="789"/>
      <point x="428.069" y="786"/>
      <point x="451.944" y="776" type="curve" smooth="yes"/>
      <point x="474.818" y="766"/>
      <point x="474.818" y="766"/>
      <point x="485.543" y="760" type="curve" smooth="yes"/>
      <point x="516.355" y="745"/>
      <point x="520.142" y="744" name="hr04"/>
      <point x="531.142" y="744" type="curve" smooth="yes"/>
      <point x="561.142" y="744"/>
      <point x="605.156" y="777"/>
      <point x="637.721" y="822" type="curve"/>
    </contour>
  </outline>
</glyph>
<glyph name="Adieresis" format="2">
  <advance width="599"/>
  <unicode hex="00C4"/>
  <outline>
    <contour>
      <point x="478.775" y="667" type="line"/>
      <point x="404.775" y="667" type="line"/>
      <point x="-3" y="0" type="line"/>
      <point x="83" y="0" type="line"/>
      <point x="208.912" y="216" type="line"/>
      <point x="479.912" y="216" type="line"/>
      <point x="517" y="0" type="line"/>
      <point x="603" y="0" type="line"/>
    </contour>
    <contour>
      <point x="467.728" y="281" type="line"/>
      <point x="248.728" y="281" type="line"/>
      <point x="417.945" y="569" type="line"/>
    </contour>
    <contour>
      <point x="380.248" y="848" type="curve" smooth="yes"/>
      <point x="350.248" y="848"/>
      <point x="319.934" y="823"/>
      <point x="313.557" y="793" type="curve" smooth="yes"/>
      <point x="306.968" y="762"/>
      <point x="326.654" y="737"/>
      <point x="357.654" y="737" type="curve" smooth="yes"/>
      <point x="387.654" y="737"/>
      <point x="417.968" y="762"/>
      <point x="424.557" y="793" type="curve" smooth="yes"/>
      <point x="430.934" y="823"/>
      <point x="411.248" y="848"/>
    </contour>
    <contour>
      <point x="580.248" y="848" type="curve" smooth="yes"/>
      <point x="550.248" y="848"/>
      <point x="519.934" y="823"/>
      <point x="513.557" y="793" type="curve" smooth="yes"/>
      <point x="506.968" y="762"/>
      <point x="526.654" y="737"/>
      <point x="557.654" y="737" type="curve" smooth="yes"/>
      <point x="587.654" y="737"/>
      <point x="617.968" y="762"/>
      <point x="624.557" y="793" type="curve" smooth="yes"/>
      <point x="630.934" y="823"/>
      <point x="611.248" y="848"/>
    </contour>
  </outline>
</glyph>
<glyph name="Aring" format="2">
  <advance width="599"/>
  <unicode hex="00C5"/>
  <outline>
    <contour>
      <point x="478.775" y="667" type="line"/>
      <point x="404.775" y="667" type="line"/>
      <point x="-3" y="0" type="line"/>
      <point x="83" y="0" type="line"/>
      <point x="208.912" y="216" type="line"/>
      <point x="479.912" y="216" type="line"/>
      <point x="517" y="0" type="line"/>
      <point x="603" y="0" type="line"/>
    </contour>
    <contour>
      <point x="467.728" y="281" type="line"/>
      <point x="248.728" y="281" type="line"/>
      <point x="417.945" y="569" type="line"/>
    </contour>
    <contour>
      <point x="491.301" y="900" type="curve" smooth="yes"/>
      <point x="437.301" y="900"/>
      <point x="381.736" y="855"/>
      <point x="370.258" y="801" type="curve" smooth="yes"/>
      <point x="358.355" y="745"/>
      <point x="393.79" y="700"/>
      <point x="448.79" y="700" type="curve" smooth="yes"/>
      <point x="503.79" y="700"/>
      <point x="558.355" y="745"/>
      <point x="570.045" y="800" type="curve" smooth="yes"/>
      <point x="581.736" y="855"/>
      <point x="546.301" y="900"/>
    </contour>
    <contour>
      <point x="483.161" y="857" type="curve" smooth="yes"/>
      <point x="514.161" y="857"/>
      <point x="533.847" y="832"/>
      <point x="527.045" y="800" type="curve" smooth="yes"/>
      <point x="520.456" y="769"/>
      <point x="489.93" y="743"/>
      <point x="458.93" y="743" type="curve" smooth="yes"/>
      <point x="426.93" y="743"/>
      <point x="406.456" y="769"/>
      <point x="413.258" y="801" type="curve" smooth="yes"/>
      <point x="419.635" y="831"/>
      <point x="452.161" y="857"/>
    </contour>
  </outline>
</glyph>
<glyph name="AE" format="2">
  <advance width="762"/>
  <unicode hex="00C6"/>
  <outline>
    <contour>
      <point x="-80" y="0" type="line"/>
      <point x="4" y="0" type="line"/>
      <point x="150" y="194" type="line"/>
      <point x="367" y="194" type="line"/>
      <point x="326" y="0" type="line"/>
      <point x="682" y="0" type="line"/>
      <point x="695" y="63" type="line"/>
      <point x="413" y="63" type="line"/>
      <point x="465" y="310" type="line"/>
      <point x="712" y="310" type="line"/>
      <point x="726" y="373" type="line"/>
      <point x="479" y="373" type="line"/>
      <point x="527" y="604" type="line"/>
      <point x="775" y="604" type="line"/>
      <point x="788" y="667" type="line"/>
      <point x="431" y="667" type="line"/>
    </contour>
    <contour>
      <point x="197" y="257" type="line"/>
      <point x="452" y="596" type="line"/>
      <point x="381" y="257" type="line"/>
    </contour>
  </outline>
</glyph>
<glyph name="Ccedilla" format="2">
  <advance width="615"/>
  <unicode hex="00C7"/>
  <outline>
    <contour>
      <point x="530" y="142" type="line"/>
      <point x="477" y="76"/>
      <point x="417" y="47"/>
      <point x="334" y="47" type="curve" smooth="yes"/>
      <point x="216" y="47"/>
      <point x="150" y="114"/>
      <point x="150" y="236" type="curve" smooth="yes"/>
      <point x="150" y="321"/>
      <point x="177" y="419"/>
      <point x="221" y="487" type="curve" smooth="yes"/>
      <point x="275" y="571"/>
      <point x="354" y="618"/>
      <point x="445" y="618" type="curve" smooth="yes"/>
      <point x="514" y="618"/>
      <point x="563" y="593"/>
      <point x="596" y="541" type="curve"/>
      <point x="658" y="594" type="line"/>
      <point x="608" y="655"/>
      <point x="547" y="681"/>
      <point x="453" y="681" type="curve" smooth="yes"/>
      <point x="337" y="681"/>
      <point x="241" y="637"/>
      <point x="171" y="553" type="curve" smooth="yes"/>
      <point x="106" y="475"/>
      <point x="64" y="347"/>
      <point x="64" y="227" type="curve" smooth="yes"/>
      <point x="64" y="70"/>
      <point x="156" y="-13"/>
      <point x="330" y="-13" type="curve" smooth="yes"/>
      <point x="410" y="-13"/>
      <point x="475" y="3"/>
      <point x="522" y="34" type="curve" smooth="yes"/>
      <point x="538" y="45"/>
      <point x="550" y="54"/>
      <point x="574" y="77" type="curve"/>
    </contour>
    <contour>
      <point x="231" y="-199" type="line"/>
      <point x="276" y="-177"/>
      <point x="294" y="-166"/>
      <point x="313" y="-148" type="curve" smooth="yes"/>
      <point x="337" y="-126"/>
      <point x="350" y="-99"/>
      <point x="350" y="-75" type="curve" smooth="yes"/>
      <point x="350" y="-50"/>
      <point x="340" y="-32"/>
      <point x="316" y="-13" type="curve"/>
      <point x="242" y="-60" type="line"/>
      <point x="265" y="-75"/>
      <point x="275" y="-89"/>
      <point x="275" y="-108" type="curve" smooth="yes"/>
      <point x="275" y="-138"/>
      <point x="253" y="-160"/>
      <point x="200" y="-184" type="curve"/>
    </contour>
  </outline>
</glyph>
<glyph name="Egrave" format="2">
  <advance width="489"/>
  <unicode hex="00C8"/>
  <outline>
    <contour>
      <point x="252.071" y="372" type="line"/>
      <point x="301.384" y="604" type="line"/>
      <point x="547.384" y="604" type="line"/>
      <point x="560.775" y="667" type="line"/>
      <point x="234.775" y="667" type="line"/>
      <point x="93" y="0" type="line"/>
      <point x="455" y="0" type="line"/>
      <point x="468.391" y="63" type="line"/>
      <point x="186.391" y="63" type="line"/>
      <point x="238.68" y="309" type="line"/>
      <point x="484.68" y="309" type="line"/>
      <point x="498.071" y="372" type="line"/>
    </contour>
    <contour>
      <point x="372.05" y="880" type="line"/>
      <point x="289.649" y="864" type="line"/>
      <point x="439.34" y="712" type="line"/>
      <point x="474.616" y="718" type="line"/>
    </contour>
  </outline>
</glyph>
<glyph name="Eacute" format="2">
  <advance width="489"/>
  <unicode hex="00C9"/>
  <outline>
    <contour>
      <point x="252.071" y="372" type="line"/>
      <point x="301.384" y="604" type="line"/>
      <point x="547.384" y="604" type="line"/>
      <point x="560.775" y="667" type="line"/>
      <point x="234.775" y="667" type="line"/>
      <point x="93" y="0" type="line"/>
      <point x="455" y="0" type="line"/>
      <point x="468.391" y="63" type="line"/>
      <point x="186.391" y="63" type="line"/>
      <point x="238.68" y="309" type="line"/>
      <point x="484.68" y="309" type="line"/>
      <point x="498.071" y="372" type="line"/>
    </contour>
    <contour>
      <point x="513.05" y="880" type="line"/>
      <point x="341.616" y="718" type="line"/>
      <point x="375.34" y="712" type="line"/>
      <point x="588.649" y="864" type="line"/>
    </contour>
  </outline>
</glyph>
<glyph name="Ecircumflex" format="2">
  <advance width="489"/>
  <unicode hex="00CA"/>
  <outline>
    <contour>
      <point x="252.071" y="372" type="line"/>
      <point x="301.384" y="604" type="line"/>
      <point x="547.384" y="604" type="line"/>
      <point x="560.775" y="667" type="line"/>
      <point x="234.775" y="667" type="line"/>
      <point x="93" y="0" type="line"/>
      <point x="455" y="0" type="line"/>
      <point x="468.391" y="63" type="line"/>
      <point x="186.391" y="63" type="line"/>
      <point x="238.68" y="309" type="line"/>
      <point x="484.68" y="309" type="line"/>
      <point x="498.071" y="372" type="line"/>
    </contour>
    <contour>
      <point x="468.625" y="878" type="line"/>
      <point x="412.625" y="878" type="line"/>
      <point x="246.828" y="719" type="line"/>
      <point x="277.553" y="713" type="line"/>
      <point x="430.209" y="829" type="line"/>
      <point x="535.553" y="713" type="line"/>
      <point x="566.828" y="719" type="line"/>
    </contour>
  </outline>
</glyph>
<glyph name="Edieresis" format="2">
  <advance width="492"/>
  <unicode hex="00CB"/>
  <outline>
    <contour>
      <point x="47" y="0" type="line"/>
      <point x="412" y="0" type="line"/>
      <point x="426" y="63" type="line"/>
      <point x="140" y="63" type="line"/>
      <point x="193" y="310" type="line"/>
      <point x="442" y="310" type="line"/>
      <point x="456" y="373" type="line"/>
      <point x="206" y="373" type="line"/>
      <point x="255" y="604" type="line"/>
      <point x="505" y="604" type="line"/>
      <point x="518" y="667" type="line"/>
      <point x="189" y="667" type="line"/>
    </contour>
    <contour>
      <point x="289" y="845" type="curve" smooth="yes"/>
      <point x="256" y="845"/>
      <point x="229" y="818"/>
      <point x="229" y="786" type="curve" smooth="yes"/>
      <point x="229" y="757"/>
      <point x="247" y="739"/>
      <point x="275" y="739" type="curve" smooth="yes"/>
      <point x="310" y="739"/>
      <point x="336" y="765"/>
      <point x="336" y="799" type="curve" smooth="yes"/>
      <point x="336" y="827"/>
      <point x="317" y="845"/>
    </contour>
    <contour>
      <point x="483" y="845" type="curve" smooth="yes"/>
      <point x="450" y="845"/>
      <point x="423" y="818"/>
      <point x="423" y="785" type="curve" smooth="yes"/>
      <point x="423" y="757"/>
      <point x="441" y="739"/>
      <point x="469" y="739" type="curve" smooth="yes"/>
      <point x="504" y="739"/>
      <point x="530" y="765"/>
      <point x="530" y="799" type="curve" smooth="yes"/>
      <point x="530" y="827"/>
      <point x="511" y="845"/>
    </contour>
  </outline>
</glyph>
<glyph name="Igrave" format="2">
  <advance width="267"/>
  <unicode hex="00CC"/>
  <outline>
    <contour>
      <point x="47" y="0" type="line"/>
      <point x="127" y="0" type="line"/>
      <point x="269" y="667" type="line"/>
      <point x="189" y="667" type="line"/>
    </contour>
    <contour>
      <point x="258" y="726" type="line"/>
      <point x="285" y="739" type="line"/>
      <point x="148" y="860" type="line"/>
      <point x="85" y="827" type="line"/>
    </contour>
  </outline>
</glyph>
<glyph name="Iacute" format="2">
  <advance width="267"/>
  <unicode hex="00CD"/>
  <outline>
    <contour>
      <point x="314.775" y="667" type="line"/>
      <point x="234.775" y="667" type="line"/>
      <point x="93" y="0" type="line"/>
      <point x="173" y="0" type="line"/>
    </contour>
    <contour>
      <point x="389.05" y="880" type="line"/>
      <point x="237.616" y="718" type="line"/>
      <point x="271.34" y="712" type="line"/>
      <point x="464.649" y="864" type="line"/>
    </contour>
  </outline>
</glyph>
<glyph name="Icircumflex" format="2">
  <advance width="267"/>
  <unicode hex="00CE"/>
  <outline>
    <contour>
      <point x="47" y="0" type="line"/>
      <point x="127" y="0" type="line"/>
      <point x="269" y="667" type="line"/>
      <point x="189" y="667" type="line"/>
    </contour>
    <contour>
      <point x="95" y="731" type="line"/>
      <point x="124" y="722" type="line"/>
      <point x="259" y="820" type="line"/>
      <point x="347" y="722" type="line"/>
      <point x="374" y="731" type="line"/>
      <point x="298" y="862" type="line"/>
      <point x="242" y="862" type="line"/>
    </contour>
  </outline>
</glyph>
<glyph name="Idieresis" format="2">
  <advance width="267"/>
  <unicode hex="00CF"/>
  <outline>
    <contour>
      <point x="314.775" y="667" type="line"/>
      <point x="234.775" y="667" type="line"/>
      <point x="93" y="0" type="line"/>
      <point x="173" y="0" type="line"/>
    </contour>
    <contour>
      <point x="236.248" y="848" type="curve" smooth="yes"/>
      <point x="206.248" y="848"/>
      <point x="175.934" y="823"/>
      <point x="169.557" y="793" type="curve" smooth="yes"/>
      <point x="162.968" y="762"/>
      <point x="182.654" y="737"/>
      <point x="213.654" y="737" type="curve" smooth="yes"/>
      <point x="243.654" y="737"/>
      <point x="273.968" y="762"/>
      <point x="280.557" y="793" type="curve" smooth="yes"/>
      <point x="286.934" y="823"/>
      <point x="267.248" y="848"/>
    </contour>
    <contour>
      <point x="389.248" y="848" type="curve" smooth="yes"/>
      <point x="359.248" y="848"/>
      <point x="328.934" y="823"/>
      <point x="322.557" y="793" type="curve" smooth="yes"/>
      <point x="315.968" y="762"/>
      <point x="335.654" y="737"/>
      <point x="366.654" y="737" type="curve" smooth="yes"/>
      <point x="396.654" y="737"/>
      <point x="426.968" y="762"/>
      <point x="433.557" y="793" type="curve" smooth="yes"/>
      <point x="439.934" y="823"/>
      <point x="420.248" y="848"/>
    </contour>
  </outline>
</glyph>
<glyph name="Eth" format="2">
  <advance width="682"/>
  <unicode hex="00D0"/>
  <outline>
    <contour>
      <point x="171.646" y="370" type="line"/>
      <point x="98.6459" y="370" type="line"/>
      <point x="86.5302" y="313" type="line"/>
      <point x="159.53" y="313" type="line"/>
      <point x="93" y="0" type="line"/>
      <point x="301" y="0" type="line" smooth="yes"/>
      <point x="377" y="0"/>
      <point x="449.401" y="16"/>
      <point x="500.352" y="44" type="curve" smooth="yes"/>
      <point x="599.831" y="98"/>
      <point x="675.424" y="209"/>
      <point x="704.119" y="344" type="curve" smooth="yes"/>
      <point x="728.989" y="461"/>
      <point x="711.819" y="559"/>
      <point x="656.297" y="613" type="curve" smooth="yes"/>
      <point x="614.587" y="652"/>
      <point x="554.775" y="667"/>
      <point x="442.775" y="667" type="curve" smooth="yes"/>
      <point x="234.775" y="667" type="line"/>
    </contour>
    <contour>
      <point x="251.646" y="370" type="line"/>
      <point x="301.384" y="604" type="line"/>
      <point x="433.384" y="604" type="line" smooth="yes"/>
      <point x="520.384" y="604"/>
      <point x="548.896" y="597"/>
      <point x="578.945" y="569" type="curve" smooth="yes"/>
      <point x="626.017" y="527"/>
      <point x="638.8" y="446"/>
      <point x="616.482" y="341" type="curve" smooth="yes"/>
      <point x="595.226" y="241"/>
      <point x="550.222" y="161"/>
      <point x="489.231" y="114" type="curve" smooth="yes"/>
      <point x="447.217" y="81"/>
      <point x="385.391" y="63"/>
      <point x="318.391" y="63" type="curve" smooth="yes"/>
      <point x="186.391" y="63" type="line"/>
      <point x="239.53" y="313" type="line"/>
      <point x="425.53" y="313" type="line"/>
      <point x="437.646" y="370" type="line"/>
    </contour>
  </outline>
</glyph>
<glyph name="Ntilde" format="2">
  <advance width="731"/>
  <unicode hex="00D1"/>
  <outline>
    <contour>
      <point x="778.775" y="667" type="line"/>
      <point x="701.775" y="667" type="line"/>
      <point x="586.57" y="125" type="line"/>
      <point x="311.775" y="667" type="line"/>
      <point x="234.775" y="667" type="line"/>
      <point x="93" y="0" type="line"/>
      <point x="170" y="0" type="line"/>
      <point x="285.206" y="542" type="line"/>
      <point x="560" y="0" type="line"/>
      <point x="637" y="0" type="line"/>
    </contour>
    <contour>
      <point x="683.485" y="835" type="line"/>
      <point x="656.683" y="803"/>
      <point x="642.77" y="794"/>
      <point x="622.77" y="794" type="curve" smooth="yes"/>
      <point x="609.77" y="794"/>
      <point x="588.258" y="801"/>
      <point x="559.234" y="815" type="curve" smooth="yes"/>
      <point x="519.485" y="835"/>
      <point x="511.91" y="837" name="hr01"/>
      <point x="492.91" y="837" type="curve" smooth="yes"/>
      <point x="463.91" y="837"/>
      <point x="439.721" y="822"/>
      <point x="370.756" y="761" type="curve"/>
      <point x="385.142" y="744" type="line" name="hr02"/>
      <point x="429.582" y="779"/>
      <point x="448.707" y="789" name="hr03"/>
      <point x="470.707" y="789" type="curve" smooth="yes"/>
      <point x="484.707" y="789"/>
      <point x="493.069" y="786"/>
      <point x="516.944" y="776" type="curve" smooth="yes"/>
      <point x="539.818" y="766"/>
      <point x="539.818" y="766"/>
      <point x="550.543" y="760" type="curve" smooth="yes"/>
      <point x="581.355" y="745"/>
      <point x="585.142" y="744" name="hr04"/>
      <point x="596.142" y="744" type="curve" smooth="yes"/>
      <point x="626.142" y="744"/>
      <point x="670.156" y="777"/>
      <point x="702.721" y="822" type="curve"/>
    </contour>
  </outline>
</glyph>
<glyph name="Ograve" format="2">
  <advance width="734"/>
  <unicode hex="00D2"/>
  <outline>
    <contour>
      <point x="511.538" y="680" type="curve" smooth="yes"/>
      <point x="421.538" y="680"/>
      <point x="340.799" y="653"/>
      <point x="273.534" y="600" type="curve" smooth="yes"/>
      <point x="197.993" y="541"/>
      <point x="146.076" y="452"/>
      <point x="122.057" y="339" type="curve" smooth="yes"/>
      <point x="95.4871" y="214"/>
      <point x="107.632" y="130"/>
      <point x="160.241" y="67" type="curve" smooth="yes"/>
      <point x="203.976" y="14"/>
      <point x="273.237" y="-13"/>
      <point x="365.237" y="-13" type="curve" smooth="yes"/>
      <point x="454.237" y="-13"/>
      <point x="536.188" y="15"/>
      <point x="602.241" y="67" type="curve" smooth="yes"/>
      <point x="680.42" y="129"/>
      <point x="729.912" y="216"/>
      <point x="754.994" y="334" type="curve" smooth="yes"/>
      <point x="780.076" y="452"/>
      <point x="767.568" y="539"/>
      <point x="715.534" y="600" type="curve" smooth="yes"/>
      <point x="670.799" y="653"/>
      <point x="602.538" y="680"/>
    </contour>
    <contour>
      <point x="498.147" y="617" type="curve" smooth="yes"/>
      <point x="641.147" y="617"/>
      <point x="705.404" y="510"/>
      <point x="667.994" y="334" type="curve" smooth="yes"/>
      <point x="630.371" y="157"/>
      <point x="520.628" y="50"/>
      <point x="377.628" y="50" type="curve" smooth="yes"/>
      <point x="232.628" y="50"/>
      <point x="170.159" y="156"/>
      <point x="208.844" y="338" type="curve" smooth="yes"/>
      <point x="245.404" y="510"/>
      <point x="356.147" y="617"/>
    </contour>
    <contour>
      <point x="478.05" y="880" type="line"/>
      <point x="395.649" y="864" type="line"/>
      <point x="545.34" y="712" type="line"/>
      <point x="580.616" y="718" type="line"/>
    </contour>
  </outline>
</glyph>
<glyph name="Oacute" format="2">
  <advance width="740"/>
  <unicode hex="00D3"/>
  <outline>
    <contour>
      <point x="447" y="681" type="curve" smooth="yes"/>
      <point x="344" y="681"/>
      <point x="256" y="645"/>
      <point x="189" y="575" type="curve" smooth="yes"/>
      <point x="114" y="497"/>
      <point x="63" y="357"/>
      <point x="63" y="227" type="curve" smooth="yes"/>
      <point x="63" y="69"/>
      <point x="157" y="-14"/>
      <point x="333" y="-14" type="curve" smooth="yes"/>
      <point x="445" y="-14"/>
      <point x="528" y="18"/>
      <point x="598" y="91" type="curve" smooth="yes"/>
      <point x="671" y="166"/>
      <point x="725" y="311"/>
      <point x="725" y="432" type="curve" smooth="yes"/>
      <point x="725" y="518"/>
      <point x="701" y="582"/>
      <point x="656" y="620" type="curve" smooth="yes"/>
      <point x="610" y="659"/>
      <point x="534" y="681"/>
    </contour>
    <contour>
      <point x="451" y="617" type="curve" smooth="yes"/>
      <point x="575" y="617"/>
      <point x="638" y="553"/>
      <point x="638" y="425" type="curve" smooth="yes"/>
      <point x="638" y="342"/>
      <point x="606" y="235"/>
      <point x="562" y="171" type="curve" smooth="yes"/>
      <point x="507" y="91"/>
      <point x="430" y="49"/>
      <point x="336" y="49" type="curve" smooth="yes"/>
      <point x="214" y="49"/>
      <point x="150" y="113"/>
      <point x="150" y="236" type="curve" smooth="yes"/>
      <point x="150" y="324"/>
      <point x="180" y="426"/>
      <point x="226" y="494" type="curve" smooth="yes"/>
      <point x="281" y="576"/>
      <point x="357" y="617"/>
    </contour>
    <contour>
      <point x="434" y="736" type="line"/>
      <point x="463" y="726" type="line"/>
      <point x="676" y="832" type="line"/>
      <point x="602" y="860" type="line"/>
    </contour>
  </outline>
</glyph>
<glyph name="Ocircumflex" format="2">
  <advance width="734"/>
  <unicode hex="00D4"/>
  <outline>
    <contour>
      <point x="511.538" y="680" type="curve" smooth="yes"/>
      <point x="421.538" y="680"/>
      <point x="340.799" y="653"/>
      <point x="273.534" y="600" type="curve" smooth="yes"/>
      <point x="197.993" y="541"/>
      <point x="146.076" y="452"/>
      <point x="122.057" y="339" type="curve" smooth="yes"/>
      <point x="95.4871" y="214"/>
      <point x="107.632" y="130"/>
      <point x="160.241" y="67" type="curve" smooth="yes"/>
      <point x="203.976" y="14"/>
      <point x="273.237" y="-13"/>
      <point x="365.237" y="-13" type="curve" smooth="yes"/>
      <point x="454.237" y="-13"/>
      <point x="536.188" y="15"/>
      <point x="602.241" y="67" type="curve" smooth="yes"/>
      <point x="680.42" y="129"/>
      <point x="729.912" y="216"/>
      <point x="754.994" y="334" type="curve" smooth="yes"/>
      <point x="780.076" y="452"/>
      <point x="767.568" y="539"/>
      <point x="715.534" y="600" type="curve" smooth="yes"/>
      <point x="670.799" y="653"/>
      <point x="602.538" y="680"/>
    </contour>
    <contour>
      <point x="498.147" y="617" type="curve" smooth="yes"/>
      <point x="641.147" y="617"/>
      <point x="705.404" y="510"/>
      <point x="667.994" y="334" type="curve" smooth="yes"/>
      <point x="630.371" y="157"/>
      <point x="520.628" y="50"/>
      <point x="377.628" y="50" type="curve" smooth="yes"/>
      <point x="232.628" y="50"/>
      <point x="170.159" y="156"/>
      <point x="208.844" y="338" type="curve" smooth="yes"/>
      <point x="245.404" y="510"/>
      <point x="356.147" y="617"/>
    </contour>
    <contour>
      <point x="581.625" y="878" type="line"/>
      <point x="525.625" y="878" type="line"/>
      <point x="359.828" y="719" type="line"/>
      <point x="390.553" y="713" type="line"/>
      <point x="543.209" y="829" type="line"/>
      <point x="648.553" y="713" type="line"/>
      <point x="679.828" y="719" type="line"/>
    </contour>
  </outline>
</glyph>
<glyph name="Otilde" format="2">
  <advance width="734"/>
  <unicode hex="00D5"/>
  <outline>
    <contour>
      <point x="511.538" y="680" type="curve" smooth="yes"/>
      <point x="421.538" y="680"/>
      <point x="340.799" y="653"/>
      <point x="273.534" y="600" type="curve" smooth="yes"/>
      <point x="197.993" y="541"/>
      <point x="146.076" y="452"/>
      <point x="122.057" y="339" type="curve" smooth="yes"/>
      <point x="95.4871" y="214"/>
      <point x="107.632" y="130"/>
      <point x="160.241" y="67" type="curve" smooth="yes"/>
      <point x="203.976" y="14"/>
      <point x="273.237" y="-13"/>
      <point x="365.237" y="-13" type="curve" smooth="yes"/>
      <point x="454.237" y="-13"/>
      <point x="536.188" y="15"/>
      <point x="602.241" y="67" type="curve" smooth="yes"/>
      <point x="680.42" y="129"/>
      <point x="729.912" y="216"/>
      <point x="754.994" y="334" type="curve" smooth="yes"/>
      <point x="780.076" y="452"/>
      <point x="767.568" y="539"/>
      <point x="715.534" y="600" type="curve" smooth="yes"/>
      <point x="670.799" y="653"/>
      <point x="602.538" y="680"/>
    </contour>
    <contour>
      <point x="498.147" y="617" type="curve" smooth="yes"/>
      <point x="641.147" y="617"/>
      <point x="705.404" y="510"/>
      <point x="667.994" y="334" type="curve" smooth="yes"/>
      <point x="630.371" y="157"/>
      <point x="520.628" y="50"/>
      <point x="377.628" y="50" type="curve" smooth="yes"/>
      <point x="232.628" y="50"/>
      <point x="170.159" y="156"/>
      <point x="208.844" y="338" type="curve" smooth="yes"/>
      <point x="245.404" y="510"/>
      <point x="356.147" y="617"/>
    </contour>
    <contour>
      <point x="688.485" y="835" type="line"/>
      <point x="661.683" y="803"/>
      <point x="647.77" y="794"/>
      <point x="627.77" y="794" type="curve" smooth="yes"/>
      <point x="614.77" y="794"/>
      <point x="593.258" y="801"/>
      <point x="564.234" y="815" type="curve" smooth="yes"/>
      <point x="524.485" y="835"/>
      <point x="516.91" y="837"/>
      <point x="497.91" y="837" type="curve" smooth="yes"/>
      <point x="468.91" y="837" name="hr01"/>
      <point x="444.721" y="822"/>
      <point x="375.756" y="761" type="curve"/>
      <point x="390.142" y="744" type="line"/>
      <point x="434.582" y="779"/>
      <point x="453.707" y="789" name="hr02"/>
      <point x="475.707" y="789" type="curve" smooth="yes"/>
      <point x="489.707" y="789" name="hr03"/>
      <point x="498.069" y="786"/>
      <point x="521.944" y="776" type="curve" smooth="yes"/>
      <point x="544.818" y="766"/>
      <point x="544.818" y="766"/>
      <point x="555.543" y="760" type="curve" smooth="yes"/>
      <point x="586.355" y="745"/>
      <point x="590.142" y="744"/>
      <point x="601.142" y="744" type="curve" smooth="yes"/>
      <point x="631.142" y="744" name="hr04"/>
      <point x="675.156" y="777"/>
      <point x="707.721" y="822" type="curve"/>
    </contour>
  </outline>
</glyph>
<glyph name="Odieresis" format="2">
  <advance width="734"/>
  <unicode hex="00D6"/>
  <outline>
    <contour>
      <point x="511.538" y="680" type="curve" smooth="yes"/>
      <point x="421.538" y="680"/>
      <point x="340.799" y="653"/>
      <point x="273.534" y="600" type="curve" smooth="yes"/>
      <point x="197.993" y="541"/>
      <point x="146.076" y="452"/>
      <point x="122.057" y="339" type="curve" smooth="yes"/>
      <point x="95.4871" y="214"/>
      <point x="107.632" y="130"/>
      <point x="160.241" y="67" type="curve" smooth="yes"/>
      <point x="203.976" y="14"/>
      <point x="273.237" y="-13"/>
      <point x="365.237" y="-13" type="curve" smooth="yes"/>
      <point x="454.237" y="-13"/>
      <point x="536.188" y="15"/>
      <point x="602.241" y="67" type="curve" smooth="yes"/>
      <point x="680.42" y="129"/>
      <point x="729.912" y="216"/>
      <point x="754.994" y="334" type="curve" smooth="yes"/>
      <point x="780.076" y="452"/>
      <point x="767.568" y="539"/>
      <point x="715.534" y="600" type="curve" smooth="yes"/>
      <point x="670.799" y="653"/>
      <point x="602.538" y="680"/>
    </contour>
    <contour>
      <point x="498.147" y="617" type="curve" smooth="yes"/>
      <point x="641.147" y="617"/>
      <point x="705.404" y="510"/>
      <point x="667.994" y="334" type="curve" smooth="yes"/>
      <point x="630.371" y="157"/>
      <point x="520.628" y="50"/>
      <point x="377.628" y="50" type="curve" smooth="yes"/>
      <point x="232.628" y="50"/>
      <point x="170.159" y="156"/>
      <point x="208.844" y="338" type="curve" smooth="yes"/>
      <point x="245.404" y="510"/>
      <point x="356.147" y="617"/>
    </contour>
    <contour>
      <point x="447.248" y="848" type="curve" smooth="yes"/>
      <point x="417.248" y="848"/>
      <point x="386.934" y="823"/>
      <point x="380.557" y="793" type="curve" smooth="yes"/>
      <point x="373.968" y="762"/>
      <point x="393.654" y="737"/>
      <point x="424.654" y="737" type="curve" smooth="yes"/>
      <point x="454.654" y="737"/>
      <point x="484.968" y="762"/>
      <point x="491.557" y="793" type="curve" smooth="yes"/>
      <point x="497.934" y="823"/>
      <point x="478.248" y="848"/>
    </contour>
    <contour>
      <point x="647.248" y="848" type="curve" smooth="yes"/>
      <point x="617.248" y="848"/>
      <point x="586.934" y="823"/>
      <point x="580.557" y="793" type="curve" smooth="yes"/>
      <point x="573.968" y="762"/>
      <point x="593.654" y="737"/>
      <point x="624.654" y="737" type="curve" smooth="yes" name="hr01"/>
      <point x="654.654" y="737"/>
      <point x="684.968" y="762"/>
      <point x="691.557" y="793" type="curve" smooth="yes"/>
      <point x="697.934" y="823"/>
      <point x="678.248" y="848"/>
    </contour>
  </outline>
</glyph>
<glyph name="multiply" format="2">
  <advance width="567"/>
  <unicode hex="00D7"/>
  <outline>
    <contour>
      <point x="190.259" y="594" type="line"/>
      <point x="153.882" y="564" type="line"/>
      <point x="324.694" y="342" type="line"/>
      <point x="67.7821" y="126" type="line"/>
      <point x="89.1929" y="95" type="line"/>
      <point x="349.318" y="312" type="line"/>
      <point x="519.193" y="95" type="line"/>
      <point x="558.782" y="126" type="line"/>
      <point x="386.694" y="342" type="line"/>
      <point x="651.669" y="563" type="line"/>
      <point x="630.471" y="595" type="line"/>
      <point x="362.284" y="373" type="line"/>
    </contour>
  </outline>
</glyph>
<glyph name="Oslash" format="2">
  <advance width="740"/>
  <unicode hex="00D8"/>
  <outline>
    <contour>
      <point x="114" y="-63" type="line"/>
      <point x="176" y="15" type="line"/>
      <point x="214" y="-4"/>
      <point x="274" y="-14"/>
      <point x="340" y="-14" type="curve" smooth="yes"/>
      <point x="446" y="-14"/>
      <point x="531" y="20"/>
      <point x="599" y="91" type="curve" smooth="yes"/>
      <point x="674" y="168"/>
      <point x="726" y="310"/>
      <point x="726" y="436" type="curve" smooth="yes"/>
      <point x="726" y="518"/>
      <point x="703" y="582"/>
      <point x="660" y="617" type="curve"/>
      <point x="720" y="690" type="line"/>
      <point x="679" y="721" type="line"/>
      <point x="617" y="647" type="line"/>
      <point x="568" y="670"/>
      <point x="511" y="681"/>
      <point x="448" y="681" type="curve" smooth="yes"/>
      <point x="343" y="681"/>
      <point x="258" y="646"/>
      <point x="190" y="576" type="curve" smooth="yes"/>
      <point x="114" y="497"/>
      <point x="63" y="357"/>
      <point x="63" y="228" type="curve" smooth="yes"/>
      <point x="63" y="150"/>
      <point x="84" y="93"/>
      <point x="131" y="47" type="curve"/>
      <point x="71" y="-30" type="line"/>
    </contour>
    <contour>
      <point x="185" y="112" type="line"/>
      <point x="159" y="149"/>
      <point x="150" y="184"/>
      <point x="150" y="240" type="curve" smooth="yes"/>
      <point x="150" y="327"/>
      <point x="181" y="430"/>
      <point x="227" y="497" type="curve" smooth="yes"/>
      <point x="282" y="576"/>
      <point x="357" y="617"/>
      <point x="450" y="617" type="curve" smooth="yes"/>
      <point x="499" y="617"/>
      <point x="534" y="609"/>
      <point x="571" y="589" type="curve"/>
    </contour>
    <contour>
      <point x="608" y="552" type="line"/>
      <point x="630" y="518"/>
      <point x="639" y="483"/>
      <point x="639" y="426" type="curve" smooth="yes"/>
      <point x="639" y="339"/>
      <point x="607" y="234"/>
      <point x="561" y="167" type="curve" smooth="yes"/>
      <point x="508" y="91"/>
      <point x="430" y="50"/>
      <point x="337" y="50" type="curve" smooth="yes"/>
      <point x="286" y="50"/>
      <point x="257" y="57"/>
      <point x="226" y="78" type="curve"/>
    </contour>
  </outline>
</glyph>
<glyph name="Ugrave" format="2">
  <advance width="685"/>
  <unicode hex="00D9"/>
  <outline>
    <contour>
      <point x="182" y="667" type="line"/>
      <point x="91" y="239" type="line" smooth="yes"/>
      <point x="85.2479" y="211.946"/>
      <point x="82" y="184"/>
      <point x="82" y="158" type="curve" smooth="yes"/>
      <point x="82" y="46"/>
      <point x="156" y="-13"/>
      <point x="297" y="-13" type="curve" smooth="yes"/>
      <point x="361" y="-13"/>
      <point x="423" y="1"/>
      <point x="468" y="25" type="curve" smooth="yes"/>
      <point x="538" y="63"/>
      <point x="580" y="131"/>
      <point x="604" y="246" type="curve" smooth="yes"/>
      <point x="694" y="667" type="line"/>
      <point x="614" y="667" type="line"/>
      <point x="521" y="231" type="line" smooth="yes"/>
      <point x="495" y="110"/>
      <point x="423" y="50"/>
      <point x="304" y="50" type="curve" smooth="yes"/>
      <point x="211" y="50"/>
      <point x="160" y="90"/>
      <point x="160" y="161" type="curve" smooth="yes"/>
      <point x="160" y="177"/>
      <point x="164" y="205"/>
      <point x="169" y="229" type="curve" smooth="yes"/>
      <point x="262" y="667" type="line"/>
    </contour>
    <contour>
      <point x="494" y="726" type="line"/>
      <point x="521" y="739" type="line"/>
      <point x="371" y="860" type="line"/>
      <point x="308" y="827" type="line"/>
    </contour>
  </outline>
</glyph>
<glyph name="Uacute" format="2">
  <advance width="685"/>
  <unicode hex="00DA"/>
  <outline>
    <contour>
      <point x="182" y="667" type="line"/>
      <point x="91" y="239" type="line" smooth="yes"/>
      <point x="85.2479" y="211.946"/>
      <point x="82" y="184"/>
      <point x="82" y="158" type="curve" smooth="yes"/>
      <point x="82" y="46"/>
      <point x="156" y="-13"/>
      <point x="297" y="-13" type="curve" smooth="yes"/>
      <point x="361" y="-13"/>
      <point x="423" y="1"/>
      <point x="468" y="25" type="curve" smooth="yes"/>
      <point x="538" y="63"/>
      <point x="580" y="131"/>
      <point x="604" y="246" type="curve" smooth="yes"/>
      <point x="694" y="667" type="line"/>
      <point x="614" y="667" type="line"/>
      <point x="521" y="231" type="line" smooth="yes"/>
      <point x="495" y="110"/>
      <point x="423" y="50"/>
      <point x="304" y="50" type="curve" smooth="yes"/>
      <point x="211" y="50"/>
      <point x="160" y="90"/>
      <point x="160" y="161" type="curve" smooth="yes"/>
      <point x="160" y="177"/>
      <point x="164" y="205"/>
      <point x="169" y="229" type="curve" smooth="yes"/>
      <point x="262" y="667" type="line"/>
    </contour>
    <contour>
      <point x="387" y="736" type="line"/>
      <point x="416" y="726" type="line"/>
      <point x="629" y="832" type="line"/>
      <point x="555" y="860" type="line"/>
    </contour>
  </outline>
</glyph>
<glyph name="Ucircumflex" format="2">
  <advance width="685"/>
  <unicode hex="00DB"/>
  <outline>
    <contour>
      <point x="182" y="667" type="line"/>
      <point x="91" y="239" type="line" smooth="yes"/>
      <point x="85" y="212"/>
      <point x="82" y="184"/>
      <point x="82" y="158" type="curve" smooth="yes"/>
      <point x="82" y="46"/>
      <point x="156" y="-13"/>
      <point x="297" y="-13" type="curve" smooth="yes"/>
      <point x="361" y="-13"/>
      <point x="423" y="1"/>
      <point x="468" y="25" type="curve" smooth="yes"/>
      <point x="538" y="63"/>
      <point x="580" y="131"/>
      <point x="604" y="246" type="curve" smooth="yes"/>
      <point x="694" y="667" type="line"/>
      <point x="614" y="667" type="line"/>
      <point x="521" y="231" type="line" smooth="yes"/>
      <point x="495" y="110"/>
      <point x="423" y="50"/>
      <point x="304" y="50" type="curve" smooth="yes"/>
      <point x="211" y="50"/>
      <point x="160" y="90"/>
      <point x="160" y="161" type="curve" smooth="yes"/>
      <point x="160" y="177"/>
      <point x="164" y="205"/>
      <point x="169" y="229" type="curve" smooth="yes"/>
      <point x="262" y="667" type="line"/>
    </contour>
    <contour>
      <point x="284" y="731" type="line"/>
      <point x="312" y="722" type="line"/>
      <point x="467" y="820" type="line"/>
      <point x="575" y="722" type="line"/>
      <point x="603" y="731" type="line"/>
      <point x="506" y="862" type="line"/>
      <point x="451" y="862" type="line"/>
    </contour>
  </outline>
</glyph>
<glyph name="Udieresis" format="2">
  <advance width="685"/>
  <unicode hex="00DC"/>
  <outline>
    <contour>
      <point x="182" y="667" type="line"/>
      <point x="91" y="239" type="line" smooth="yes"/>
      <point x="85" y="212"/>
      <point x="82" y="184"/>
      <point x="82" y="158" type="curve" smooth="yes"/>
      <point x="82" y="46"/>
      <point x="156" y="-13"/>
      <point x="297" y="-13" type="curve" smooth="yes"/>
      <point x="361" y="-13"/>
      <point x="423" y="1"/>
      <point x="468" y="25" type="curve" smooth="yes"/>
      <point x="538" y="63"/>
      <point x="580" y="131"/>
      <point x="604" y="246" type="curve" smooth="yes"/>
      <point x="694" y="667" type="line"/>
      <point x="614" y="667" type="line"/>
      <point x="521" y="231" type="line" smooth="yes"/>
      <point x="495" y="110"/>
      <point x="423" y="50"/>
      <point x="304" y="50" type="curve" smooth="yes"/>
      <point x="211" y="50"/>
      <point x="160" y="90"/>
      <point x="160" y="161" type="curve" smooth="yes"/>
      <point x="160" y="177"/>
      <point x="164" y="205"/>
      <point x="169" y="229" type="curve" smooth="yes"/>
      <point x="262" y="667" type="line"/>
    </contour>
    <contour>
      <point x="372" y="845" type="curve" smooth="yes"/>
      <point x="339" y="845"/>
      <point x="312" y="818"/>
      <point x="312" y="786" type="curve" smooth="yes"/>
      <point x="312" y="757"/>
      <point x="330" y="739"/>
      <point x="358" y="739" type="curve" smooth="yes"/>
      <point x="393" y="739"/>
      <point x="419" y="765"/>
      <point x="419" y="799" type="curve" smooth="yes"/>
      <point x="419" y="827"/>
      <point x="400" y="845"/>
    </contour>
    <contour>
      <point x="566" y="845" type="curve" smooth="yes"/>
      <point x="533" y="845"/>
      <point x="506" y="818"/>
      <point x="506" y="785" type="curve" smooth="yes"/>
      <point x="506" y="757"/>
      <point x="524" y="739"/>
      <point x="552" y="739" type="curve" smooth="yes"/>
      <point x="587" y="739"/>
      <point x="613" y="765"/>
      <point x="613" y="799" type="curve" smooth="yes"/>
      <point x="613" y="827"/>
      <point x="594" y="845"/>
    </contour>
  </outline>
</glyph>
<glyph name="Yacute" format="2">
  <advance width="480"/>
  <unicode hex="00DD"/>
  <outline>
    <contour>
      <point x="153" y="0" type="line"/>
      <point x="233" y="0" type="line"/>
      <point x="296" y="296" type="line"/>
      <point x="598" y="667" type="line"/>
      <point x="505" y="667" type="line"/>
      <point x="268" y="367" type="line"/>
      <point x="153" y="667" type="line"/>
      <point x="68" y="667" type="line"/>
      <point x="216" y="296" type="line"/>
    </contour>
    <contour>
      <point x="284" y="736" type="line"/>
      <point x="313" y="726" type="line"/>
      <point x="526" y="832" type="line"/>
      <point x="452" y="860" type="line"/>
    </contour>
  </outline>
</glyph>
<glyph name="Thorn" format="2">
  <advance width="493"/>
  <unicode hex="00DE"/>
  <outline>
    <contour>
      <point x="93" y="0" type="line"/>
      <point x="173" y="0" type="line"/>
      <point x="216.787" y="206" type="line"/>
      <point x="292.787" y="206" type="line" smooth="yes"/>
      <point x="345.787" y="206"/>
      <point x="407.55" y="219"/>
      <point x="443.588" y="238" type="curve" smooth="yes"/>
      <point x="503.39" y="270"/>
      <point x="549.569" y="332"/>
      <point x="564.235" y="401" type="curve" smooth="yes"/>
      <point x="576.351" y="458"/>
      <point x="564.979" y="508"/>
      <point x="532.355" y="538" type="curve" smooth="yes"/>
      <point x="504.882" y="564"/>
      <point x="468.795" y="573"/>
      <point x="391.795" y="573" type="curve" smooth="yes"/>
      <point x="294.795" y="573" type="line"/>
      <point x="314.775" y="667" type="line"/>
      <point x="234.775" y="667" type="line"/>
    </contour>
    <contour>
      <point x="230.178" y="269" type="line"/>
      <point x="281.404" y="510" type="line"/>
      <point x="380.404" y="510" type="line" smooth="yes"/>
      <point x="419.404" y="510"/>
      <point x="441.341" y="505"/>
      <point x="455.79" y="493" type="curve" smooth="yes"/>
      <point x="477.964" y="475"/>
      <point x="485.737" y="441"/>
      <point x="476.172" y="396" type="curve" smooth="yes"/>
      <point x="458.53" y="313"/>
      <point x="400.178" y="269"/>
      <point x="306.178" y="269" type="curve" smooth="yes"/>
    </contour>
  </outline>
</glyph>
<glyph name="germandbls" format="2">
  <advance width="501"/>
  <unicode hex="00DF"/>
  <outline>
    <contour>
      <point x="77" y="0" type="line"/>
      <point x="150" y="0" type="line"/>
      <point x="260.104" y="518" type="line" smooth="yes"/>
      <point x="276.684" y="596"/>
      <point x="317.399" y="637"/>
      <point x="378.399" y="637" type="curve" smooth="yes"/>
      <point x="425.399" y="637"/>
      <point x="447.085" y="612"/>
      <point x="437.945" y="569" type="curve" smooth="yes"/>
      <point x="432.631" y="544"/>
      <point x="423.23" y="528"/>
      <point x="388.027" y="480" type="curve" smooth="yes"/>
      <point x="353.037" y="433"/>
      <point x="339.361" y="411"/>
      <point x="335.747" y="394" type="curve" smooth="yes"/>
      <point x="330.221" y="368"/>
      <point x="338.757" y="347"/>
      <point x="366.318" y="312" type="curve" smooth="yes"/>
      <point x="432.675" y="229"/>
      <point x="441.424" y="209"/>
      <point x="430.584" y="158" type="curve" smooth="yes"/>
      <point x="417.405" y="96"/>
      <point x="370.265" y="53"/>
      <point x="316.265" y="53" type="curve" smooth="yes"/>
      <point x="282.265" y="53"/>
      <point x="259.604" y="64"/>
      <point x="233.555" y="92" type="curve"/>
      <point x="194.251" y="20" type="line"/>
      <point x="226.787" y="-1"/>
      <point x="256.874" y="-10"/>
      <point x="296.874" y="-10" type="curve" smooth="yes"/>
      <point x="395.874" y="-10"/>
      <point x="489.029" y="66"/>
      <point x="509.434" y="162" type="curve" smooth="yes"/>
      <point x="522.188" y="222"/>
      <point x="505.39" y="270" name="hr03"/>
      <point x="443.97" y="348" type="curve" smooth="yes"/>
      <point x="418.771" y="380"/>
      <point x="411.385" y="397"/>
      <point x="415.211" y="415" type="curve" smooth="yes"/>
      <point x="417.549" y="426"/>
      <point x="424.1" y="438"/>
      <point x="441.989" y="461" type="curve" smooth="yes"/>
      <point x="485.104" y="518"/>
      <point x="496.781" y="540"/>
      <point x="504.645" y="577" type="curve" smooth="yes"/>
      <point x="520.587" y="652"/>
      <point x="477.79" y="700"/>
      <point x="393.79" y="700" type="curve" smooth="yes"/>
      <point x="338.79" y="700"/>
      <point x="289.751" y="681"/>
      <point x="253.099" y="645" type="curve" smooth="yes"/>
      <point x="217.872" y="611"/>
      <point x="198.795" y="573"/>
      <point x="185.191" y="509" type="curve" smooth="yes"/>
      <point x="170.525" y="440" type="line"/>
      <point x="106.525" y="440" type="line"/>
      <point x="93.1338" y="377" type="line"/>
      <point x="157.134" y="377" type="line"/>
    </contour>
  </outline>
</glyph>
